SplineFontDB: 3.2
FontName: ComputerVision
FullName: ComputerVision
FamilyName: ComputerVision
Weight: Regular
Copyright: Copyright (c) 2023, Simon Thiefes
Version: 001.000
ItalicAngle: 0
UnderlinePosition: -80
UnderlineWidth: 40
Ascent: 692
Descent: 308
InvalidEm: 0
LayerCount: 2
Layer: 0 0 "Hinten" 1
Layer: 1 0 "Vorne" 0
XUID: [1021 694 -516466584 4177015]
FSType: 0
OS2Version: 0
OS2_WeightWidthSlopeOnly: 0
OS2_UseTypoMetrics: 1
CreationTime: 1678365446
ModificationTime: 1699492199
PfmFamily: 17
TTFWeight: 400
TTFWidth: 5
LineGap: 72
VLineGap: 0
OS2TypoAscent: 0
OS2TypoAOffset: 1
OS2TypoDescent: 0
OS2TypoDOffset: 1
OS2TypoLinegap: 72
OS2WinAscent: 0
OS2WinAOffset: 1
OS2WinDescent: 0
OS2WinDOffset: 1
HheadAscent: 0
HheadAOffset: 1
HheadDescent: 0
HheadDOffset: 1
OS2Vendor: 'PfEd'
Lookup: 4 0 0 "liga" { "liga-1"  } []
MarkAttachClasses: 1
DEI: 91125
LangName: 1033
Encoding: Custom
UnicodeInterp: none
NameList: AGL For New Fonts
DisplaySize: -48
AntiAlias: 1
FitToEm: 0
BeginPrivate: 0
EndPrivate
BeginChars: 124 122

StartChar: glyph0
Encoding: -1 65 0
Width: 535
VWidth: 0
Flags: HW
LayerCount: 2
Fore
SplineSet
325.014648438 428.916015625 m 2
 325.014648438 443.440429688 322.65625 455.231445312 319.751953125 455.231445312 c 0
 316.846679688 455.231445312 314.48828125 443.440429688 314.48828125 428.916015625 c 2
 314.48828125 296.474609375 l 1
 3.7841796875 244.690429688 l 2
 0.9609375 244.219726562 -1.30078125 232.615234375 -1.30078125 218.388671875 c 0
 -1.30078125 203.551757812 1.1591796875 191.590820312 4.1396484375 192.087890625 c 2
 319.9296875 244.719726562 l 2
 322.752929688 245.190429688 325.014648438 256.794921875 325.014648438 271.020507812 c 2
 325.014648438 428.916015625 l 2
477.646484375 -123.715820312 m 0
 476.54296875 -123.715820312 450.633789062 -129.114257812 414.39453125 -129.114257812 c 0
 344.240234375 -129.114257812 275.033203125 -109.256835938 215.15625 -71.2939453125 c 0
 150.4375 -30.2626953125 101.318359375 27.3369140625 70.9892578125 91.458984375 c 0
 58.5078125 117.84765625 36.1728515625 173.810546875 36.1728515625 236.381835938 c 0
 36.1728515625 260.208984375 39.7216796875 302.0078125 59.044921875 352.994140625 c 0
 63.8701171875 365.727539062 62.0361328125 402.600585938 56.59375 402.600585938 c 0
 55.708984375 402.600585938 54.875 401.505859375 54.142578125 399.57421875 c 0
 44.1748046875 373.271484375 25.646484375 317.538085938 25.646484375 236.381835938 c 0
 25.646484375 60.3916015625 112.194335938 -59.0751953125 213.821289062 -123.505859375 c 0
 238.416992188 -139.099609375 338.939453125 -200.208007812 477.830078125 -176.33203125 c 0
 480.650390625 -175.846679688 482.91015625 -164.248046875 482.91015625 -150.032226562 c 0
 482.91015625 -135.5078125 480.551757812 -123.715820312 477.646484375 -123.715820312 c 0
529.2421875 139.952148438 m 2
 532.49609375 136.698242188 535.541015625 149.161132812 535.541015625 165.7578125 c 0
 535.541015625 178.5078125 533.723632812 189.153320312 531.314453125 191.5625 c 2
 268.15625 454.720703125 l 2
 264.90234375 457.975585938 261.857421875 445.512695312 261.857421875 428.916015625 c 0
 261.857421875 416.165039062 263.674804688 405.520507812 266.083984375 403.111328125 c 2
 529.2421875 139.952148438 l 2
EndSplineSet
EndChar

StartChar: glyph1
Encoding: 0 12 1
Width: 8
VWidth: 0
Flags: HW
LayerCount: 2
Fore
SplineSet
-0.423828125 -44.7685546875 m 2
 -0.423828125 -49.00390625 8.34765625 -49.025390625 8.34765625 -44.7685546875 c 2
 8.34765625 376.284179688 l 2
 8.34765625 380.51953125 -0.423828125 380.541015625 -0.423828125 376.284179688 c 2
 -0.423828125 -44.7685546875 l 2
EndSplineSet
EndChar

StartChar: glyph2
Encoding: 1 58 2
Width: 157
VWidth: 0
Flags: HW
LayerCount: 2
Fore
SplineSet
102.338867188 -202.663085938 m 2
 102.338867188 -207.504882812 103.6484375 -211.435546875 105.262695312 -211.435546875 c 0
 106.875976562 -211.435546875 108.186523438 -207.504882812 108.186523438 -202.663085938 c 2
 108.186523438 -44.7685546875 l 2
 108.186523438 -39.9267578125 106.875976562 -35.99609375 105.262695312 -35.99609375 c 0
 103.6484375 -35.99609375 102.338867188 -39.9267578125 102.338867188 -44.7685546875 c 2
 102.338867188 -202.663085938 l 2
53.5556640625 16.1875 m 2
 49.86328125 19.8798828125 48.201171875 3.0458984375 51.70703125 -0.4609375 c 2
 104.337890625 -53.0927734375 l 2
 106.84765625 -55.6015625 109.194335938 -47.3779296875 107.771484375 -40.2646484375 c 2
 55.140625 222.892578125 l 2
 53.26953125 232.25 48.1142578125 223.926757812 50.1220703125 213.885742188 c 2
 98.6884765625 -28.9453125 l 1
 53.5556640625 16.1875 l 2
EndSplineSet
EndChar

StartChar: glyph3
Encoding: 2 68 3
Width: 432
VWidth: 0
Flags: HW
LayerCount: 2
Fore
SplineSet
154.135742188 271.020507812 m 0
 154.135742188 263.9765625 160.611328125 265.991210938 165.20703125 265.991210938 c 0
 175.42578125 265.991210938 185.162109375 264.591796875 194.293945312 262.012695312 c 1
 154.274414062 61.9150390625 l 2
 153.606445312 58.5771484375 155.297851562 55.6708984375 157.392578125 55.2783203125 c 0
 163.569335938 54.12109375 169.74609375 53.5595703125 175.862304688 53.5595703125 c 0
 213.302734375 53.5595703125 248.688476562 74.5341796875 266.25390625 110.141601562 c 0
 274.513671875 126.885742188 278.396484375 144.442382812 278.396484375 161.624023438 c 0
 278.396484375 210.430664062 247.802734375 253.592773438 203.651367188 269.752929688 c 1
 214.147460938 322.233398438 l 2
 215.495117188 328.971679688 208.189453125 331.493164062 206.90625 325.07421875 c 2
 196.321289062 272.149414062 l 1
 186.481445312 274.989257812 176.052734375 276.517578125 165.20703125 276.517578125 c 0
 160.59375 276.517578125 154.135742188 277.697265625 154.135742188 271.020507812 c 0
EndSplineSet
EndChar

StartChar: ".alt1"
Encoding: 3 -1 4
Width: 385
VWidth: 0
Flags: HW
LayerCount: 2
Fore
SplineSet
382.392578125 318.888671875 m 2
 387.939453125 322.850585938 384.180664062 330.231445312 376.345703125 330.231445312 c 0
 374.001953125 330.231445312 371.872070312 329.541015625 370.297851562 328.416992188 c 2
 1.876953125 65.259765625 l 2
 0.19921875 64.060546875 -0.84765625 62.369140625 -0.84765625 60.4951171875 c 2
 -0.84765625 -150.03125 l 2
 -0.84765625 -153.662109375 3.0830078125 -156.610351562 7.9248046875 -156.610351562 c 0
 12.765625 -156.610351562 16.6962890625 -153.662109375 16.6962890625 -150.03125 c 2
 16.6962890625 57.677734375 l 1
 382.392578125 318.888671875 l 2
373.8671875 -206.12109375 m 2
 376.62890625 -211.184570312 381.630859375 -204.349609375 378.825195312 -199.205078125 c 2
 66.349609375 373.666015625 l 1
 166.80078125 423.891601562 l 2
 170.676757812 425.830078125 169.067382812 436.055664062 164.838867188 433.940429688 c 2
 59.57421875 381.30859375 l 2
 57.455078125 380.249023438 56.4736328125 375.764648438 58.076171875 372.826171875 c 2
 373.8671875 -206.12109375 l 2
273.854492188 320.822265625 m 2
 276.171875 326.614257812 270.583007812 332.168945312 268.309570312 326.485351562 c 2
 57.783203125 -199.83203125 l 2
 55.4658203125 -205.624023438 61.0546875 -211.178710938 63.328125 -205.495117188 c 2
 273.854492188 320.822265625 l 2
EndSplineSet
EndChar

StartChar: glyph5
Encoding: 4 118 5
Width: 493
VWidth: 0
Flags: HW
LayerCount: 2
Fore
SplineSet
132.879882812 -184.0546875 m 0
 129.553710938 -187.380859375 127.219726562 -191.991210938 124.04296875 -195.16796875 c 0
 108.750976562 -210.459960938 81.3603515625 -209.125 68.5244140625 -188.680664062 c 0
 57.8095703125 -171.615234375 53.0341796875 -158.751953125 51.7802734375 -150.763671875 c 0
 50.30859375 -141.38671875 52.0224609375 -138.706054688 55.7509765625 -134.9765625 c 0
 60.8564453125 -129.87109375 74.26171875 -123.206054688 94.9345703125 -118.54296875 c 0
 120.399414062 -112.799804688 154.578125 -109.723632812 190.856445312 -106.603515625 c 0
 225.962890625 -103.584960938 263.108398438 -100.455078125 297.837890625 -93.7041015625 c 0
 325.603515625 -88.306640625 352.08984375 -80.6650390625 375 -67.6630859375 c 0
 385.44921875 -61.7333984375 394.885742188 -54.5009765625 403.176757812 -46.2099609375 c 0
 431.6171875 -17.76953125 446.0234375 22.6044921875 440.7421875 63.859375 c 0
 440.028320312 69.4345703125 437.532226562 74.8251953125 433.25390625 79.103515625 c 0
 422.983398438 89.373046875 406.307617188 89.373046875 396.038085938 79.103515625 c 0
 390.045898438 73.111328125 387.549804688 64.939453125 388.549804688 57.130859375 c 0
 391.704101562 32.4892578125 383.033203125 8.0791015625 365.959960938 -8.994140625 c 0
 361.033203125 -13.9208984375 355.358398438 -18.28125 349.028320312 -21.8740234375 c 0
 333.7109375 -30.56640625 312.385742188 -37.2626953125 287.736328125 -42.0546875 c 0
 256.948242188 -48.0390625 221.383789062 -51.1611328125 186.315429688 -54.1767578125 c 0
 149.966796875 -57.302734375 114.235351562 -60.23828125 83.2919921875 -67.2177734375 c 0
 58.8369140625 -72.7333984375 35.7548828125 -80.5419921875 18.53515625 -97.7607421875 c 0
 3.1181640625 -113.177734375 -3.8974609375 -135.416015625 -0.201171875 -158.975585938 c 0
 2.6796875 -177.3359375 10.93359375 -195.952148438 23.92578125 -216.646484375 c 0
 27.5654296875 -222.442382812 31.7724609375 -227.703125 36.453125 -232.383789062 c 0
 70.763671875 -266.693359375 126.948242188 -266.694335938 161.258789062 -232.383789062 c 0
 165.940429688 -227.702148438 170.147460938 -222.44140625 173.787109375 -216.645507812 c 0
 180.166992188 -206.483398438 178.936523438 -192.895507812 170.095703125 -184.0546875 c 0
 159.826171875 -173.784179688 143.150390625 -173.784179688 132.879882812 -184.0546875 c 0
388.345703125 113.3046875 m 2
 388.345703125 110.280273438 399.552734375 107.864257812 414.646484375 107.864257812 c 0
 428.872070312 107.864257812 440.4765625 110.125976562 440.947265625 112.94921875 c 2
 493.579101562 428.73828125 l 2
 494.083007812 431.76171875 481.990234375 434.1796875 467.278320312 434.1796875 c 0
 453.051757812 434.1796875 441.447265625 431.916992188 440.977539062 429.094726562 c 2
 388.345703125 113.3046875 l 2
230.436523438 -202.663085938 m 2
 230.436523438 -205.567382812 242.228515625 -207.92578125 256.751953125 -207.92578125 c 0
 271.276367188 -207.92578125 283.068359375 -205.567382812 283.068359375 -202.663085938 c 2
 283.08984375 -44.982421875 l 1
 283.650390625 -47.7880859375 295.217773438 -50.03125 309.383789062 -50.03125 c 0
 324.134765625 -50.03125 336.288085938 -47.6015625 335.678710938 -44.5546875 c 2
 283.046875 218.603515625 l 2
 282.485351562 221.409179688 270.918945312 223.65234375 256.751953125 223.65234375 c 0
 242.228515625 223.65234375 230.436523438 221.294921875 230.436523438 218.389648438 c 2
 230.436523438 -202.663085938 l 2
EndSplineSet
EndChar

StartChar: C)
Encoding: 5 -1 6
Width: 596
VWidth: 0
Flags: HW
LayerCount: 2
Fore
SplineSet
578.837890625 270.541992188 m 0
 580.665039062 267.5703125 596.236328125 267.834960938 596.236328125 271.021484375 c 0
 596.236328125 271.185546875 596.186523438 271.345703125 596.090820312 271.500976562 c 0
 557.383789062 334.454101562 512.224609375 376.500976562 463.62109375 401.741210938 c 0
 424.926757812 421.8359375 382.895507812 431.788085938 338.553710938 431.788085938 c 0
 301.391601562 431.788085938 266.293945312 424.784179688 233.991210938 413.073242188 c 0
 193.455078125 398.376953125 156.049804688 375.838867188 123.2734375 347.709960938 c 0
 49.54296875 284.431640625 -0.4951171875 192.676757812 -0.4951171875 98.87890625 c 0
 -0.4951171875 9.802734375 44.5947265625 -81.1337890625 158.5234375 -151.182617188 c 0
 196.026367188 -174.241210938 236.772460938 -185.749023438 280.026367188 -185.749023438 c 0
 306.25390625 -185.749023438 330.6953125 -181.418945312 352.705078125 -174.142578125 c 0
 380.29296875 -165.020507812 405.059570312 -151.030273438 426.543945312 -133.241210938 c 0
 474.870117188 -93.2255859375 506.420898438 -33.7275390625 506.420898438 32.77734375 c 0
 506.420898438 58.84375 501.559570312 85.9814453125 490.913085938 113.432617188 c 0
 490.40625 114.740234375 486.696289062 115.7578125 482.201171875 115.7578125 c 0
 477.126953125 115.7578125 472.853515625 114.456054688 473.48828125 112.819335938 c 0
 484.05078125 85.5810546875 488.876953125 58.6435546875 488.876953125 32.77734375 c 0
 488.876953125 -33.2158203125 457.3671875 -92.2646484375 410.04296875 -131.450195312 c 0
 389.015625 -148.862304688 364.833007812 -162.301757812 339.709960938 -170.607421875 c 0
 319.549804688 -177.2734375 299.4140625 -180.485351562 280.026367188 -180.485351562 c 0
 248.315429688 -180.485351562 211.291992188 -171.624023438 174.299804688 -148.879882812 c 0
 62.142578125 -79.919921875 17.048828125 10.322265625 17.048828125 98.87890625 c 0
 17.048828125 192.10546875 66.982421875 283.4453125 139.83984375 345.974609375 c 0
 172.213867188 373.758789062 209.166992188 395.819335938 247.512695312 409.721679688 c 0
 278.31640625 420.888671875 309.21875 426.524414062 338.553710938 426.524414062 c 0
 373.161132812 426.524414062 410.77734375 418.662109375 448.418945312 399.114257812 c 0
 495.235351562 374.801757812 540.317382812 333.19140625 578.837890625 270.541992188 c 0
EndSplineSet
Ligature2: "liga-1" C )
EndChar

StartChar: ".alt2"
Encoding: 6 -1 7
Width: 726
VWidth: 0
Flags: HW
LayerCount: 2
Fore
SplineSet
476.607421875 -48.6640625 m 0
 471.124023438 -54.1474609375 465.171875 -59.2177734375 459.65625 -64.7333984375 c 0
 450.78515625 -73.6044921875 450.78515625 -88.0087890625 459.65625 -96.8798828125 c 0
 468.235351562 -105.459960938 481.990234375 -105.7421875 490.91015625 -97.7275390625 c 0
 497.02734375 -92.23046875 502.9765625 -86.58984375 508.754882812 -80.8115234375 c 0
 616.625976562 27.060546875 664.23828125 182.024414062 634.412109375 332.797851562 c 0
 625.772460938 376.466796875 609.0859375 421.701171875 576.268554688 454.517578125 c 0
 563.328125 467.458007812 547.91015625 478.265625 529.935546875 485.736328125 c 0
 307.790039062 578.0625 160.008789062 563.864257812 76.6103515625 480.465820312 c 0
 23.5859375 427.44140625 1.197265625 350.8359375 -0.349609375 268.352539062 c 0
 -3.44140625 103.561523438 75.53515625 -92.970703125 191.83984375 -209.274414062 c 0
 239.59765625 -257.033203125 294.426757812 -291.916015625 354.142578125 -303.677734375 c 0
 429.588867188 -318.5390625 509.061523438 -294.619140625 582.299804688 -221.380859375 c 0
 632.319335938 -171.362304688 679.783203125 -98.828125 723.836914062 0.9208984375 c 0
 727.51953125 9.2587890625 725.947265625 19.365234375 719.119140625 26.1923828125 c 0
 708.513671875 36.798828125 689.080078125 34.7744140625 682.25390625 19.3173828125 c 0
 639.759765625 -76.8994140625 594.694335938 -144.69140625 550.15234375 -189.233398438 c 0
 485.177734375 -254.208984375 422.096679688 -270.729492188 362.979492188 -259.084960938 c 0
 315.044921875 -249.643554688 267.337890625 -220.478515625 223.986328125 -177.127929688 c 0
 117.681640625 -70.8232421875 42.2685546875 116.802734375 45.095703125 267.493164062 c 0
 46.5078125 342.750976562 67.1572265625 406.717773438 108.7578125 448.318359375 c 0
 172.287109375 511.84765625 295.814453125 533.799804688 512.452148438 443.76171875 c 0
 524.635742188 438.697265625 535.032226562 431.459960938 544.12109375 422.370117188 c 0
 567.291992188 399.200195312 582.154296875 362.705078125 589.826171875 323.923828125 c 0
 616.66796875 188.236328125 573.779296875 48.5078125 476.607421875 -48.6640625 c 0
704.749023438 416.252929688 m 2
 707.610351562 419.114257812 704.336914062 425.311523438 701.34375 422.318359375 c 2
 655.879882812 376.85546875 l 2
 655.493164062 376.46875 655.182617188 375.954101562 654.984375 375.358398438 c 2
 564.05859375 102.581054688 l 2
 562.532226562 98.0009765625 567.787109375 95.107421875 569.254882812 99.509765625 c 2
 659.879882812 371.384765625 l 1
 704.749023438 416.252929688 l 2
609.001953125 192.766601562 m 2
 607.791992188 189.138671875 614.086914062 187.721679688 615.237304688 191.174804688 c 2
 660.69921875 327.564453125 l 2
 661.909179688 331.192382812 655.614257812 332.609375 654.463867188 329.15625 c 2
 609.001953125 192.766601562 l 2
EndSplineSet
EndChar

StartChar: glyph8
Encoding: 7 55 8
Width: 368
VWidth: 0
Flags: HW
LayerCount: 2
Fore
SplineSet
38.048828125 29.7744140625 m 2
 23.37890625 19.994140625 22.8525390625 0.4267578125 34.0234375 -10.7451171875 c 0
 43.0400390625 -19.7607421875 56.9931640625 -20.861328125 67.21484375 -14.046875 c 2
 225.110351562 91.2158203125 l 2
 239.780273438 100.99609375 240.306640625 120.5625 229.134765625 131.734375 c 0
 220.119140625 140.750976562 206.165039062 141.8515625 195.943359375 135.037109375 c 2
 38.048828125 29.7744140625 l 2
104.817382812 54.009765625 m 0
 138.490234375 39.646484375 174.801757812 58.779296875 210.380859375 53.92578125 c 0
 271.241210938 45.6240234375 307.529296875 16.2470703125 324.491210938 -19.150390625 c 0
 332.942382812 -36.7861328125 336.534179688 -55.443359375 336.534179688 -73.9287109375 c 0
 336.534179688 -97.3427734375 330.6328125 -122.545898438 319.178710938 -145.927734375 c 0
 296.3046875 -192.619140625 252.323242188 -229.66796875 197.784179688 -229.66796875 c 0
 169.524414062 -229.66796875 138.440429688 -219.7734375 105.993164062 -196.341796875 c 0
 102.630859375 -193.9140625 101.331054688 -206.673828125 104.532226562 -208.985351562 c 0
 137.45703125 -232.76171875 169.025390625 -242.825195312 197.784179688 -242.825195312 c 0
 253.22265625 -242.825195312 298.254882812 -205.62109375 322.50390625 -156.124023438 c 0
 334.610351562 -131.411132812 341.797851562 -103.036132812 341.797851562 -73.9287109375 c 0
 341.797851562 -50.77734375 337.1640625 -28.4609375 327.860351562 -9.044921875 c 0
 309.313476562 29.6611328125 271.977539062 58.701171875 210.671875 67.064453125 c 0
 175.44921875 71.869140625 139.42578125 52.59765625 105.70703125 66.98046875 c 0
 69.8994140625 82.25390625 56.7900390625 111.729492188 56.7900390625 135.303710938 c 0
 56.7900390625 146.731445312 59.6630859375 159.384765625 65.8720703125 171.432617188 c 0
 78.263671875 195.48046875 102.916992188 214.61328125 135.493164062 214.61328125 c 0
 142.521484375 214.61328125 149.916992188 213.733398438 157.634765625 211.841796875 c 0
 161.0703125 211 161.500976562 224.116210938 158.154296875 224.936523438 c 0
 150.267578125 226.869140625 142.700195312 227.771484375 135.493164062 227.771484375 c 0
 102.158203125 227.771484375 76.484375 208.682617188 62.6484375 181.833007812 c 0
 55.7431640625 168.432617188 51.52734375 152.46875 51.52734375 135.303710938 c 0
 51.52734375 99.234375 69.265625 69.1748046875 104.817382812 54.009765625 c 0
EndSplineSet
EndChar

StartChar: glyph9
Encoding: 8 92 9
Width: 354
VWidth: 0
Flags: HW
LayerCount: 2
Fore
SplineSet
353.836914062 164.895507812 m 0
 355.905273438 168.612304688 345.744140625 170.15625 343.778320312 166.623046875 c 0
 309.61328125 105.21875 249.147460938 75.8447265625 190.913085938 75.8447265625 c 0
 132.678710938 75.8447265625 72.212890625 105.21875 38.0478515625 166.623046875 c 0
 18.7685546875 201.2734375 10.240234375 236.1171875 10.240234375 269.278320312 c 0
 10.240234375 383.43359375 110.969726562 475.435546875 216.866210938 475.435546875 c 0
 258.708984375 475.435546875 303.087890625 461.348632812 344.440429688 427.284179688 c 0
 348.139648438 424.236328125 357.05078125 427.354492188 353.173828125 430.547851562 c 0
 310.704101562 465.533203125 263.37109375 481.283203125 216.866210938 481.283203125 c 0
 100.201171875 481.283203125 -0.2861328125 383.93359375 -0.2861328125 269.278320312 c 0
 -0.2861328125 235.55078125 8.3828125 200.133789062 27.98828125 164.895507812 c 0
 62.6962890625 102.515625 125.688476562 69.9970703125 190.913085938 69.9970703125 c 0
 256.137695312 69.9970703125 319.129882812 102.515625 353.836914062 164.895507812 c 0
194.462890625 6.9951171875 m 2
 196.116210938 10.3017578125 188.932617188 11.8701171875 187.364257812 8.732421875 c 2
 134.732421875 -96.5322265625 l 2
 133.079101562 -99.8388671875 140.26171875 -101.407226562 141.831054688 -98.26953125 c 2
 194.462890625 6.9951171875 l 2
85.650390625 426.28515625 m 2
 90.490234375 426.28515625 90.515625 431.547851562 85.650390625 431.547851562 c 2
 33.0185546875 431.547851562 l 2
 30.494140625 431.547851562 28.453125 429.727539062 29.55078125 427.899414062 c 2
 345.33984375 -98.41796875 l 2
 347.142578125 -101.423828125 354.224609375 -99.6318359375 352.275390625 -96.3837890625 c 2
 38.6748046875 426.28515625 l 1
 85.650390625 426.28515625 l 2
EndSplineSet
EndChar

StartChar: ".alt3"
Encoding: 9 -1 10
Width: 116
VWidth: 0
Flags: HW
LayerCount: 2
Fore
SplineSet
0.1435546875 68.705078125 m 2
 -3.2939453125 60.11328125 -0.056640625 47.3369140625 5.283203125 47.3369140625 c 0
 7.361328125 47.3369140625 9.216796875 49.26953125 10.4228515625 52.28515625 c 2
 87.9482421875 246.098632812 l 1
 51.802734375 65.3740234375 l 2
 49.9775390625 56.2490234375 53.5439453125 47.3369140625 57.9140625 47.3369140625 c 0
 60.68359375 47.3369140625 63.0556640625 50.7666015625 64.025390625 55.6162109375 c 2
 116.657226562 318.774414062 l 2
 119.45703125 332.77734375 109.97265625 343.282226562 105.40625 331.864257812 c 2
 0.1435546875 68.705078125 l 2
EndSplineSet
EndChar

StartChar: 7.alt1
Encoding: 10 -1 11
Width: 421
VWidth: 0
Flags: HW
LayerCount: 2
Fore
SplineSet
331.559570312 249.950195312 m 2
 345.056640625 260.073242188 345.283203125 278.744140625 334.397460938 289.62890625 c 0
 325.02734375 299 310.32421875 299.8203125 300.01953125 292.091796875 c 2
 89.494140625 134.196289062 l 2
 75.9970703125 124.073242188 75.7705078125 105.403320312 86.6552734375 94.517578125 c 0
 96.0263671875 85.146484375 110.729492188 84.326171875 121.034179688 92.0546875 c 2
 331.559570312 249.950195312 l 2
34.0234375 -184.0546875 m 2
 23.75390625 -194.32421875 23.75390625 -211.000976562 34.0234375 -221.270507812 c 0
 44.2939453125 -231.541015625 60.9697265625 -231.541015625 71.240234375 -221.270507812 c 2
 387.029296875 94.5185546875 l 2
 397.298828125 104.788085938 397.298828125 121.463867188 387.029296875 131.734375 c 0
 379.35546875 139.407226562 368.106445312 141.34765625 358.625 137.555664062 c 2
 95.4677734375 32.2919921875 l 2
 77.0029296875 24.90625 74.1064453125 1.8046875 86.6552734375 -10.7451171875 c 0
 94.3291015625 -18.41796875 105.578125 -20.3583984375 115.059570312 -16.5654296875 c 2
 259.1484375 41.0703125 l 1
 34.0234375 -184.0546875 l 2
EndSplineSet
EndChar

StartChar: ".alt4"
Encoding: 11 -1 12
Width: 163
VWidth: 0
Flags: HW
LayerCount: 2
Fore
SplineSet
-0.6474609375 113.126953125 m 2
 -0.6474609375 106.350585938 5.9306640625 106.315429688 5.9306640625 113.126953125 c 2
 5.9306640625 323.654296875 l 2
 5.9306640625 330.430664062 -0.6474609375 330.46484375 -0.6474609375 323.654296875 c 2
 -0.6474609375 113.126953125 l 2
105.272460938 -202.663085938 m 0
 105.272460938 -223.030273438 107.638671875 -236.643554688 109.411132812 -224.237304688 c 2
 162.04296875 144.18359375 l 2
 162.72265625 148.943359375 163.16796875 156.834960938 163.16796875 165.7578125 c 0
 163.16796875 186.124023438 160.801757812 199.737304688 159.029296875 187.331054688 c 2
 106.397460938 -181.08984375 l 2
 105.717773438 -185.849609375 105.272460938 -193.741210938 105.272460938 -202.663085938 c 0
0.009765625 7.86328125 m 0
 0.009765625 -7.251953125 1.291015625 -19.935546875 2.90625 -18.3203125 c 2
 28.69921875 7.47265625 l 1
 107.147460938 -227.874023438 l 2
 108.944335938 -233.264648438 110.536132812 -219.254882812 110.536132812 -202.663085938 c 0
 110.536132812 -192.358398438 109.942382812 -183.428710938 109.079101562 -179.110351562 c 2
 56.4482421875 84.0478515625 l 2
 56.0244140625 86.1650390625 55.5556640625 87.2265625 55.0087890625 86.6796875 c 2
 29.21484375 60.8857421875 l 1
 3.3984375 138.337890625 l 2
 1.6015625 143.727539062 0.009765625 129.71875 0.009765625 113.126953125 c 0
 0.009765625 101.231445312 0.80078125 91.1689453125 1.884765625 87.916015625 c 2
 15.4755859375 47.1455078125 l 1
 2.376953125 34.0478515625 l 2
 1.048828125 32.7197265625 0.009765625 21.4951171875 0.009765625 7.86328125 c 0
EndSplineSet
EndChar

StartChar: glyph13
Encoding: 12 47 13
Width: 208
VWidth: 0
Flags: HW
LayerCount: 2
Fore
SplineSet
201.596679688 305.044921875 m 2
 211.8671875 315.315429688 211.8671875 331.991210938 201.596679688 342.260742188 c 0
 191.327148438 352.53125 174.650390625 352.53125 164.380859375 342.260742188 c 2
 59.1181640625 236.998046875 l 2
 47.845703125 225.725585938 48.5009765625 205.864257812 63.53125 196.225585938 c 1
 1.5546875 72.271484375 l 2
 -3.373046875 62.416015625 -1.7294921875 50.1015625 6.4853515625 41.88671875 c 0
 18.4208984375 29.951171875 40.09375 31.638671875 48.6328125 48.7177734375 c 2
 151.99609375 255.444335938 l 1
 201.596679688 305.044921875 l 2
EndSplineSet
EndChar

StartChar: glyph14
Encoding: 13 53 14
Width: 261
VWidth: 0
Flags: HW
LayerCount: 2
Fore
SplineSet
208.509765625 172.172851562 m 2
 203.412109375 192.563476562 178.11328125 198.099609375 164.379882812 184.366210938 c 0
 157.6015625 177.587890625 155.296875 168.01953125 157.465820312 159.34375 c 2
 203.708007812 -25.62109375 l 1
 51.4033203125 -63.697265625 l 1
 51.404296875 165.7578125 l 2
 51.404296875 172.495117188 48.8369140625 179.231445312 43.7021484375 184.366210938 c 0
 33.431640625 194.63671875 16.755859375 194.63671875 6.4853515625 184.366210938 c 0
 1.3505859375 179.231445312 -1.216796875 172.495117188 -1.216796875 165.758789062 c 2
 -1.2177734375 -97.400390625 l 2
 -1.2177734375 -104.13671875 1.349609375 -110.873046875 6.4853515625 -116.008789062 c 0
 13.2626953125 -122.787109375 22.83203125 -125.091796875 31.5068359375 -122.922851562 c 2
 242.03515625 -70.291015625 l 2
 256.978515625 -66.5546875 264.354492188 -51.201171875 261.142578125 -38.3544921875 c 2
 208.509765625 172.172851562 l 2
EndSplineSet
EndChar

StartChar: NX
Encoding: 14 -1 15
Width: 498
VWidth: 0
Flags: HW
LayerCount: 2
Fore
SplineSet
332.151367188 410.307617188 m 0
 344.353515625 422.509765625 342.177734375 444.833007812 324.424804688 452.881835938 c 0
 267.383789062 478.7421875 201.807617188 478.7421875 144.766601562 452.881835938 c 0
 116.526367188 440.079101562 92.0556640625 422.869140625 71.6767578125 402.490234375 c 0
 -21.2783203125 309.53515625 -27.19140625 152.545898438 71.615234375 53.7392578125 c 0
 76.162109375 49.1923828125 80.9208984375 44.7802734375 85.8916015625 40.51171875 c 0
 96.2265625 31.6396484375 111.8359375 32.09765625 121.625 41.8876953125 c 2
 490.045898438 410.307617188 l 2
 500.315429688 420.578125 500.315429688 437.25390625 490.045898438 447.524414062 c 0
 479.775390625 457.793945312 463.099609375 457.793945312 452.829101562 447.524414062 c 2
 102.6875 97.3818359375 l 1
 31.5986328125 175.181640625 37.8505859375 294.231445312 108.892578125 365.2734375 c 0
 124.775390625 381.15625 143.989257812 394.731445312 166.528320312 404.950195312 c 0
 209.837890625 424.584960938 259.353515625 424.584960938 302.662109375 404.950195312 c 0
 312.359375 400.553710938 324.18359375 402.33984375 332.151367188 410.307617188 c 0
124.590820312 443.990234375 m 2
 114.65234375 458.1875 95.4580078125 458.575195312 84.4072265625 447.524414062 c 0
 75.24609375 438.362304688 74.2568359375 424.103515625 81.4404296875 413.841796875 c 2
 449.862304688 -112.473632812 l 2
 459.80078125 -126.670898438 478.995117188 -127.05859375 490.045898438 -116.0078125 c 0
 496.823242188 -109.229492188 499.127929688 -99.6611328125 496.958984375 -90.9853515625 c 2
 391.696289062 330.067382812 l 2
 386.598632812 350.458984375 361.299804688 355.995117188 347.56640625 342.260742188 c 0
 340.788085938 335.483398438 338.483398438 325.9140625 340.65234375 317.239257812 c 2
 411.393554688 34.2724609375 l 1
 124.590820312 443.990234375 l 2
EndSplineSet
Ligature2: "liga-1" N X
EndChar

StartChar: ".alt5"
Encoding: 15 -1 16
Width: 367
VWidth: 0
Flags: HW
LayerCount: 2
Fore
SplineSet
258.79296875 -150.310546875 m 2
 259.31640625 -153.979492188 268.07421875 -153.598632812 267.524414062 -149.750976562 c 2
 214.892578125 218.669921875 l 2
 214.369140625 222.337890625 205.611328125 221.95703125 206.161132812 218.109375 c 2
 258.79296875 -150.310546875 l 2
267.517578125 270.6953125 m 2
 267.517578125 274.555664062 259.415039062 275.0390625 258.799804688 271.34765625 c 2
 206.16796875 -44.4423828125 l 2
 205.53125 -48.2626953125 214.267578125 -48.8017578125 214.885742188 -45.09375 c 2
 267.517578125 270.6953125 l 2
313.646484375 -46.9501953125 m 2
 315.571289062 -50.7978515625 319.947265625 -46.615234375 317.932617188 -42.5869140625 c 2
 160.037109375 273.202148438 l 2
 159.013671875 275.25 156.776367188 275.251953125 155.751953125 273.202148438 c 2
 50.4892578125 62.6767578125 l 2
 48.4990234375 58.6962890625 52.8134765625 54.390625 54.7744140625 58.3134765625 c 2
 157.89453125 264.553710938 l 1
 313.646484375 -46.9501953125 l 2
EndSplineSet
EndChar

StartChar: glyph17
Encoding: 16 114 17
Width: 263
VWidth: 0
Flags: HW
LayerCount: 2
Fore
SplineSet
229.134765625 94.5185546875 m 0
 242.161132812 107.544921875 238.276367188 131.618164062 218.876953125 138.084960938 c 2
 60.982421875 190.715820312 l 2
 51.822265625 193.768554688 41.310546875 191.65234375 34.0234375 184.365234375 c 0
 27.5625 177.904296875 25.166015625 168.908203125 26.8349609375 160.56640625 c 2
 79.466796875 -102.591796875 l 2
 83.666015625 -123.586914062 109.682617188 -130.198242188 123.872070312 -116.008789062 c 0
 130.333007812 -109.547851562 132.729492188 -100.55078125 131.060546875 -92.2099609375 c 2
 87.3291015625 126.450195312 l 1
 202.17578125 88.16796875 l 2
 211.336914062 85.1142578125 221.84765625 87.2314453125 229.134765625 94.5185546875 c 0
EndSplineSet
EndChar

StartChar: glyph18
Encoding: 17 105 18
Width: 421
VWidth: 0
Flags: HW
LayerCount: 2
Fore
SplineSet
86.6552734375 -63.376953125 m 0
 96.92578125 -73.646484375 113.6015625 -73.646484375 123.872070312 -63.376953125 c 0
 130.1171875 -57.130859375 132.564453125 -48.517578125 131.21484375 -40.4150390625 c 2
 82.2841796875 253.1640625 l 1
 376.771484375 351.326171875 l 2
 396.147460938 357.78515625 400.060546875 381.861328125 387.029296875 394.892578125 c 0
 379.7421875 402.178710938 369.23046875 404.295898438 360.0703125 401.2421875 c 2
 44.28125 295.979492188 l 2
 31.072265625 291.576171875 24.7529296875 278.239257812 26.681640625 266.66796875 c 2
 79.3134765625 -49.1220703125 l 2
 80.18359375 -54.34375 82.630859375 -59.3515625 86.6552734375 -63.376953125 c 0
48.689453125 278.04296875 m 2
 43.912109375 273.264648438 46.265625 262.249023438 52.6318359375 262.249023438 c 0
 54.109375 262.249023438 55.474609375 262.900390625 56.5732421875 263.999023438 c 2
 103.342773438 310.76953125 l 1
 310.125976562 -154.494140625 l 2
 313.068359375 -161.11328125 320.9453125 -159.547851562 322.212890625 -151.940429688 c 2
 374.84375 163.848632812 l 2
 376.744140625 175.251953125 363.799804688 178.473632812 361.998046875 167.666015625 c 2
 312.973632812 -126.487304688 l 1
 110.927734375 328.116210938 l 2
 109.083007812 332.266601562 104.580078125 333.93359375 101.322265625 330.67578125 c 2
 48.689453125 278.04296875 l 2
EndSplineSet
EndChar

StartChar: /.alt1
Encoding: 18 -1 19
Width: 579
VWidth: 0
Flags: HW
LayerCount: 2
Fore
SplineSet
191.918945312 -168.639648438 m 0
 202.188476562 -178.91015625 218.865234375 -178.91015625 229.134765625 -168.639648438 c 0
 234.26953125 -163.504882812 236.837890625 -156.767578125 236.837890625 -150.03125 c 2
 236.836914062 -49.5634765625 l 1
 393.0546875 367.018554688 l 2
 396.568359375 376.38671875 394.559570312 387.361328125 387.029296875 394.892578125 c 0
 374.307617188 407.61328125 350.846679688 404.376953125 343.786132812 385.549804688 c 2
 185.891601562 -35.5029296875 l 2
 184.774414062 -38.4833984375 184.21484375 -41.6259765625 184.21484375 -44.7685546875 c 2
 184.215820312 -150.03125 l 2
 184.215820312 -156.768554688 186.784179688 -163.504882812 191.918945312 -168.639648438 c 0
EndSplineSet
EndChar

StartChar: /.alt2
Encoding: 19 -1 20
Width: 525
VWidth: 0
Flags: HW
LayerCount: 2
Fore
SplineSet
244.549804688 199.78125 m 0
 254.8203125 189.51171875 271.49609375 189.51171875 281.765625 199.78125 c 0
 306.83984375 224.854492188 331.912109375 249.928710938 356.985351562 275.001953125 c 1
 83.353515625 -135.447265625 l 2
 76.5390625 -145.668945312 77.6396484375 -159.622070312 86.6552734375 -168.638671875 c 0
 97.830078125 -179.8125 117.396484375 -179.280273438 127.174804688 -164.61328125 c 2
 442.962890625 309.071289062 l 2
 449.77734375 319.29296875 448.676757812 333.24609375 439.661132812 342.26171875 c 0
 434.525390625 347.397460938 427.7890625 349.96484375 421.052734375 349.96484375 c 2
 368.420898438 349.96484375 l 2
 361.684570312 349.96484375 354.947265625 347.397460938 349.8125 342.26171875 c 2
 244.548828125 236.998046875 l 2
 234.278320312 226.728515625 234.280273438 210.051757812 244.549804688 199.78125 c 0
EndSplineSet
EndChar

StartChar: 7.alt2
Encoding: 20 -1 21
Width: 768
VWidth: 0
Flags: HW
LayerCount: 2
Fore
SplineSet
269.643554688 357.67578125 m 0
 277.858398438 349.4609375 290.172851562 347.817382812 300.028320312 352.745117188 c 2
 405.291015625 405.375976562 l 2
 422.360351562 413.91015625 424.056640625 435.588867188 412.123046875 447.5234375 c 0
 406.033203125 453.612304688 397.69140625 456.091796875 389.768554688 454.959960938 c 2
 21.34765625 402.329101562 l 2
 15.908203125 401.551757812 10.666015625 399.073242188 6.4853515625 394.892578125 c 0
 -3.7841796875 384.622070312 -3.7841796875 367.946289062 6.4853515625 357.67578125 c 0
 12.5751953125 351.586914062 20.9169921875 349.107421875 28.83984375 350.239257812 c 2
 262.998046875 383.690429688 l 1
 260.390625 374.759765625 262.606445312 364.713867188 269.643554688 357.67578125 c 0
359.4921875 199.782226562 m 0
 373.217773438 213.5078125 367.713867188 238.80859375 347.297851562 243.912109375 c 2
 136.771484375 296.54296875 l 2
 122.557617188 300.096679688 106.271484375 290.475585938 104.250976562 274.307617188 c 2
 51.6201171875 -146.745117188 l 2
 49.7421875 -161.767578125 61.9658203125 -176.341796875 77.7255859375 -176.341796875 c 2
 393.514648438 -176.340820312 l 2
 400.250976562 -176.340820312 406.987304688 -173.7734375 412.123046875 -168.638671875 c 0
 422.392578125 -158.368164062 422.392578125 -141.692382812 412.123046875 -131.422851562 c 0
 406.987304688 -126.287109375 400.250976562 -123.719726562 393.514648438 -123.719726562 c 2
 107.53125 -123.720703125 l 1
 152.782226562 238.2890625 l 1
 334.469726562 192.868164062 l 2
 343.145507812 190.69921875 352.713867188 193.00390625 359.4921875 199.782226562 c 0
440.2265625 -177.022460938 m 0
 419.584960938 -181.76171875 413.622070312 -207.354492188 427.538085938 -221.270507812 c 0
 434.188476562 -227.919921875 443.5234375 -230.264648438 452.06640625 -228.302734375 c 0
 550.279296875 -205.752929688 623.9453125 -165.907226562 675.618164062 -114.234375 c 0
 728.78125 -61.072265625 757.478515625 3.6669921875 766.233398438 71.0283203125 c 0
 783.708007812 205.4765625 723.53515625 349.345703125 625.692382812 447.1875 c 0
 567.3203125 505.559570312 494.666992188 548.299804688 414.639648438 561.590820312 c 0
 313.96875 578.309570312 204.739257812 546.89453125 105.959960938 448.115234375 c 0
 89.3134765625 431.46875 72.9677734375 412.94921875 56.966796875 392.461914062 c 0
 -30.263671875 280.767578125 -5.93359375 137.725585938 78.67578125 53.1162109375 c 0
 118.791015625 13.0009765625 172.819335938 -14.3671875 234.741210938 -19.6201171875 c 1
 109.287109375 -186.893554688 l 2
 101.55859375 -197.198242188 102.37890625 -211.901367188 111.75 -221.271484375 c 0
 122.63671875 -232.159179688 141.309570312 -231.92578125 151.428710938 -218.43359375 c 2
 309.323242188 -7.90625 l 2
 317.051757812 2.3984375 316.231445312 17.1015625 306.860351562 26.4716796875 c 0
 300.84765625 32.484375 292.637695312 34.9775390625 284.8046875 33.94921875 c 0
 216.057617188 24.923828125 157.212890625 49.0107421875 115.892578125 90.33203125 c 0
 47.92578125 158.298828125 29.0146484375 271.153320312 98.484375 360.106445312 c 0
 113.251953125 379.015625 128.181640625 395.904296875 143.176757812 410.899414062 c 0
 231.880859375 499.603515625 322.98828125 523.46484375 405.961914062 509.684570312 c 0
 472.849609375 498.576171875 536.427734375 462.01953125 588.4765625 409.971679688 c 0
 676.374023438 322.07421875 728.907226562 192.13671875 714.0546875 77.857421875 c 0
 706.645507812 20.85546875 682.920898438 -32.4990234375 638.40234375 -77.0185546875 c 0
 595.071289062 -120.348632812 530.921875 -156.198242188 440.2265625 -177.022460938 c 0
EndSplineSet
EndChar

StartChar: 5.alt1
Encoding: 21 -1 22
Width: 538
VWidth: 0
Flags: HW
LayerCount: 2
Fore
SplineSet
215.958007812 -44.767578125 m 0
 215.958007812 -43.154296875 210.061523438 -41.84375 202.799804688 -41.84375 c 0
 196.033203125 -41.84375 190.453125 -42.9814453125 189.72265625 -44.44140625 c 2
 137.090820312 -149.705078125 l 2
 136.185546875 -151.517578125 142.576171875 -152.955078125 150.16796875 -152.955078125 c 0
 156.934570312 -152.955078125 162.514648438 -151.818359375 163.245117188 -150.357421875 c 2
 215.876953125 -45.09375 l 2
 215.876953125 -44.986328125 215.958007812 -44.8779296875 215.958007812 -44.767578125 c 0
203.39453125 -197.43359375 m 0
 200.126953125 -197.43359375 197.537109375 -199.345703125 197.537109375 -202.663085938 c 0
 197.537109375 -205.3671875 199.580078125 -207.59765625 202.205078125 -207.893554688 c 0
 218.795898438 -209.76171875 234.758789062 -210.663085938 250.100585938 -210.663085938 c 0
 446.403320312 -210.663085938 538.294921875 -62.8994140625 538.294921875 86.2529296875 c 0
 538.294921875 240.3515625 440.349609375 398.609375 258.115234375 398.609375 c 0
 224.360351562 398.609375 187.836914062 393.166992188 148.645507812 381.323242188 c 0
 -24.2607421875 329.073242188 -53.826171875 100.159179688 94.669921875 3.4501953125 c 0
 100.430664062 -0.3017578125 106.056640625 8.5947265625 100.403320312 12.27734375 c 0
 -40.73046875 104.19140625 -12.5498046875 321.61328125 151.69140625 371.245117188 c 0
 190.012695312 382.825195312 225.514648438 388.083007812 258.115234375 388.083007812 c 0
 432.888671875 388.083007812 527.768554688 236.583984375 527.768554688 86.2529296875 c 0
 527.768554688 -58.734375 439.651367188 -200.13671875 250.100585938 -200.13671875 c 0
 235.1796875 -200.13671875 219.612304688 -199.259765625 203.39453125 -197.43359375 c 0
39.6826171875 -44.1103515625 m 2
 38.822265625 -50.9912109375 49.2958984375 -52.0771484375 50.126953125 -45.4267578125 c 2
 102.758789062 375.625976562 l 2
 103.619140625 382.5078125 93.1455078125 383.59375 92.314453125 376.942382812 c 2
 39.6826171875 -44.1103515625 l 2
EndSplineSet
EndChar

StartChar: \.alt1
Encoding: 22 -1 23
Width: 262
VWidth: 0
Flags: HW
LayerCount: 2
Fore
SplineSet
110.368164062 8.5029296875 m 2
 108.78515625 11.669921875 98.443359375 10.6484375 100.155273438 7.2236328125 c 2
 152.787109375 -98.0390625 l 2
 154.37109375 -101.206054688 164.712890625 -100.184570312 163 -96.759765625 c 2
 110.368164062 8.5029296875 l 2
EndSplineSet
EndChar

StartChar: ".alt6"
Encoding: 23 -1 24
Width: 129
VWidth: 0
Flags: HW
LayerCount: 2
Fore
SplineSet
69.5126953125 110.354492188 m 2
 71.728515625 121.431640625 61.6279296875 126.41796875 59.5244140625 115.899414062 c 2
 6.892578125 -147.258789062 l 2
 4.6767578125 -158.336914062 14.77734375 -163.323242188 16.880859375 -152.8046875 c 2
 69.5126953125 110.354492188 l 2
-1.2451171875 -97.19140625 m 2
 -1.2451171875 -99.142578125 4.0751953125 -100.688476562 11.88671875 -100.688476562 c 0
 18.869140625 -100.688476562 24.5888671875 -99.326171875 25.0185546875 -97.607421875 c 2
 77.650390625 112.918945312 l 2
 78.1376953125 114.869140625 71.9599609375 116.416015625 64.5185546875 116.416015625 c 0
 57.53515625 116.416015625 51.81640625 115.053710938 51.38671875 113.334960938 c 2
 -1.2451171875 -97.19140625 l 2
130.2421875 112.795898438 m 2
 130.2421875 114.817382812 125.318359375 116.416015625 117.150390625 116.416015625 c 0
 110.333984375 116.416015625 104.721679688 115.118164062 104.057617188 113.458007812 c 2
 -1.2060546875 -149.700195312 l 2
 -2.013671875 -151.719726562 4.330078125 -153.3203125 11.88671875 -153.3203125 c 0
 18.7021484375 -153.3203125 24.314453125 -152.022460938 24.978515625 -150.361328125 c 2
 130.2421875 112.795898438 l 2
EndSplineSet
EndChar

StartChar: glyph25
Encoding: 24 120 25
Width: 314
VWidth: 0
Flags: HW
LayerCount: 2
Fore
SplineSet
306.860351562 79.103515625 m 0
 295.416015625 90.5478515625 275.0546875 89.65625 265.676757812 74.0283203125 c 2
 115.44921875 -176.352539062 l 1
 25.09375 -176.352539062 l 2
 18.357421875 -176.352539062 11.62109375 -178.919921875 6.4853515625 -184.055664062 c 0
 -3.7841796875 -194.325195312 -3.7841796875 -211.000976562 6.4853515625 -221.271484375 c 0
 11.62109375 -226.40625 18.357421875 -228.973632812 25.09375 -228.973632812 c 2
 130.357421875 -228.973632812 l 2
 138.796875 -228.973632812 147.625976562 -225.041015625 152.932617188 -216.196289062 c 2
 310.828125 46.962890625 l 2
 316.89453125 57.0732421875 315.571289062 70.392578125 306.860351562 79.103515625 c 0
96.3330078125 -26.16015625 m 2
 86.0625 -15.890625 69.38671875 -15.890625 59.1171875 -26.16015625 c 0
 48.8466796875 -36.4306640625 48.8466796875 -53.1064453125 59.1171875 -63.376953125 c 2
 217.01171875 -221.271484375 l 2
 227.282226562 -231.541992188 243.958007812 -231.541992188 254.227539062 -221.271484375 c 0
 264.498046875 -211.000976562 264.498046875 -194.325195312 254.227539062 -184.055664062 c 2
 96.3330078125 -26.16015625 l 2
EndSplineSet
EndChar

StartChar: JN
Encoding: 25 -1 26
Width: 368
VWidth: 0
Flags: HW
LayerCount: 2
Fore
SplineSet
307.385742188 59.73828125 m 2
 310.5 56.6240234375 327.584960938 57.8583984375 324.192382812 61.2509765625 c 2
 166.297851562 219.146484375 l 2
 163.77734375 221.666015625 151.052734375 221.548828125 149.291992188 218.908203125 c 2
 44.0302734375 61.0126953125 l 2
 41.7431640625 57.5830078125 59.05859375 56.71484375 61.2333984375 59.9765625 c 2
 159.598632812 207.525390625 l 1
 307.385742188 59.73828125 l 2
EndSplineSet
Ligature2: "liga-1" J N
EndChar

StartChar: x.alt1
Encoding: 26 -1 27
Width: 359
VWidth: 0
Flags: HW
LayerCount: 2
Fore
SplineSet
82.923828125 165.7578125 m 2
 82.923828125 180.28125 84.2333984375 192.073242188 85.84765625 192.073242188 c 0
 87.4609375 192.073242188 88.771484375 180.28125 88.771484375 165.7578125 c 2
 88.771484375 135.422851562 l 1
 296.856445312 -176.706054688 l 2
 298.240234375 -178.782226562 299.296875 -189.62109375 299.296875 -202.663085938 c 0
 299.296875 -217.850585938 297.858398438 -230.62890625 296.046875 -228.817382812 c 2
 85.521484375 -18.2900390625 l 2
 84.0615234375 -16.830078125 82.923828125 -5.6689453125 82.923828125 7.86328125 c 2
 82.923828125 165.7578125 l 2
190.049804688 -69.859375 m 1
 88.771484375 82.05859375 l 1
 88.771484375 31.4189453125 l 1
 190.049804688 -69.859375 l 1
349.8359375 296.255859375 m 0
 347.841796875 301.577148438 346.081054688 287.58203125 346.081054688 271.020507812 c 0
 346.081054688 259.095703125 346.963867188 249.01171875 348.173828125 245.786132812 c 0
 350.55078125 239.444335938 352.318359375 233.080078125 353.409179688 227.689453125 c 0
 353.627929688 226.611328125 353.8125 225.590820312 353.967773438 224.663085938 c 1
 353.373046875 221.239257812 352.396484375 216.620117188 351.065429688 212.071289062 c 0
 348.612304688 203.685546875 345.05078125 194.990234375 340.530273438 186.744140625 c 0
 330.34765625 168.166015625 315.3046875 151.609375 296.163085938 139.375976562 c 0
 260.333984375 116.477539062 224.610351562 106.556640625 191.05078125 106.556640625 c 0
 132.716796875 106.556640625 80.896484375 136.58984375 46.509765625 180.237304688 c 0
 31.2392578125 199.620117188 19.3876953125 221.873046875 12.1328125 244.415039062 c 0
 9.275390625 253.291992188 7.15234375 262.305664062 5.9267578125 269.796875 c 0
 5.2734375 273.788085938 4.970703125 276.547851562 4.8349609375 278.086914062 c 1
 4.90234375 278.208007812 l 1
 5.3681640625 282.731445312 6.7919921875 291.40625 9.23046875 300.154296875 c 0
 12.263671875 311.034179688 16.74609375 322.4453125 22.6884765625 333.555664062 c 0
 36.0419921875 358.5234375 56.75 382.2578125 85.8798828125 402.54296875 c 1
 296.208984375 297.37890625 l 2
 297.9296875 296.518554688 299.296875 308.8125 299.296875 323.654296875 c 0
 299.296875 337.681640625 298.075195312 349.16015625 296.537109375 349.928710938 c 2
 86.01171875 455.190429688 l 2
 85.880859375 455.256835938 85.748046875 455.2421875 85.6201171875 455.153320312 c 0
 52.56640625 432.182617188 30.216796875 404.97265625 16.6376953125 375.287109375 c 0
 10.591796875 362.071289062 6.267578125 348.654296875 3.3056640625 332.817382812 c 0
 1.0810546875 320.928710938 -1.09375 304.047851562 -1.09375 277.939453125 c 0
 -1.09375 256.71875 0.4013671875 241.517578125 1.9453125 230.791015625 c 0
 3.9541015625 216.830078125 6.6962890625 205.614257812 10.2255859375 194.649414062 c 0
 18.1494140625 170.030273438 30.2080078125 147.770507812 45.6865234375 128.123046875 c 0
 80.486328125 83.953125 132.479492188 53.92578125 191.05078125 53.92578125 c 0
 224.740234375 53.92578125 260.59765625 63.8798828125 296.583007812 86.8779296875 c 0
 318.303710938 100.759765625 334.833007812 119.999023438 345.458984375 142.552734375 c 0
 350.193359375 152.600585938 353.76171875 163.02734375 356.305664062 175.798828125 c 0
 357.439453125 181.489257812 358.431640625 187.782226562 359.219726562 196.739257812 c 0
 359.848632812 203.88671875 360.358398438 213.471679688 360.358398438 224.626953125 c 0
 360.358398438 244.875 358.848632812 258.256835938 357.46484375 266.946289062 c 0
 355.629882812 278.46875 353.155273438 287.401367188 349.8359375 296.255859375 c 0
92.42578125 113.126953125 m 2
 92.42578125 118.7734375 79.2685546875 118.802734375 79.2685546875 113.126953125 c 2
 79.2685546875 -202.663085938 l 2
 79.2685546875 -207.8359375 90.4609375 -208.446289062 92.23046875 -203.729492188 c 2
 250.125976562 217.32421875 l 2
 252.244140625 222.974609375 239.3828125 224.852539062 237.359375 219.456054688 c 2
 92.42578125 -167.032226562 l 1
 92.42578125 113.126953125 l 2
EndSplineSet
EndChar

StartChar: glyph28
Encoding: 27 100 28
Width: 447
VWidth: 0
Flags: HW
LayerCount: 2
Fore
SplineSet
206.286132812 -22.3681640625 m 0
 219.650390625 -35.7333984375 231.624023438 -53.4326171875 247.545898438 -65.6591796875 c 0
 287.970703125 -96.7021484375 344.399414062 -96.7021484375 384.82421875 -65.658203125 c 0
 398.073242188 -55.484375 398.25390625 -36.9912109375 387.423828125 -26.16015625 c 0
 377.981445312 -16.7177734375 363.123046875 -15.95703125 352.807617188 -23.87890625 c 0
 331.153320312 -40.5078125 301.215820312 -40.5068359375 279.561523438 -23.8779296875 c 0
 265.737304688 -13.2626953125 256.608398438 1.7412109375 243.501953125 14.84765625 c 0
 238.317382812 20.0322265625 232.390625 25.2294921875 225.403320312 29.8408203125 c 0
 188.577148438 54.1455078125 150.17578125 61.3076171875 115.806640625 54.197265625 c 0
 88.521484375 48.552734375 64.91796875 34.447265625 46.29296875 15.822265625 c 0
 -5.1357421875 -35.6064453125 -24.091796875 -129.549804688 37.275390625 -190.916992188 c 0
 52.6982421875 -206.33984375 72.5859375 -218.774414062 96.7587890625 -227.431640625 c 0
 106.044921875 -230.7578125 116.833984375 -228.704101562 124.266601562 -221.271484375 c 0
 137.108398438 -208.4296875 133.619140625 -184.721679688 114.55859375 -177.895507812 c 0
 96.7548828125 -171.518554688 83.8095703125 -163.017578125 74.4921875 -153.701171875 c 0
 39.2548828125 -118.463867188 47.111328125 -57.7919921875 83.509765625 -21.3935546875 c 0
 95.7587890625 -9.1435546875 110.5703125 -0.62890625 126.529296875 2.6728515625 c 0
 146.21484375 6.7451171875 169.4140625 3.7216796875 196.439453125 -14.1142578125 c 0
 199.673828125 -16.2490234375 202.896484375 -18.9794921875 206.286132812 -22.3681640625 c 0
421.447265625 -207.92578125 m 0
 439.870117188 -207.92578125 454.145507812 -203.97265625 445 -200.314453125 c 2
 181.842773438 -95.05078125 l 2
 177.524414062 -93.3232421875 168.594726562 -92.13671875 158.290039062 -92.13671875 c 2
 134.1640625 -92.13671875 l 1
 342.416015625 428.491210938 l 2
 342.416015625 428.631835938 342.500976562 428.7734375 342.500976562 428.916015625 c 0
 342.500976562 431.821289062 330.708984375 434.1796875 316.185546875 434.1796875 c 0
 302.375976562 434.1796875 291.036132812 432.046875 289.954101562 429.340820312 c 2
 79.4267578125 -96.974609375 l 2
 78.1572265625 -100.1484375 90.6689453125 -102.663085938 105.658203125 -102.663085938 c 2
 142.0234375 -102.663085938 l 1
 397.89453125 -205.01171875 l 2
 402.212890625 -206.739257812 411.142578125 -207.92578125 421.447265625 -207.92578125 c 0
EndSplineSet
EndChar

StartChar: glyph29
Encoding: 28 97 29
Width: 266
VWidth: 0
Flags: HW
LayerCount: 2
Fore
SplineSet
1.8388671875 -94.8193359375 m 2
 -1.591796875 -94.1337890625 -2.4599609375 -99.328125 0.802734375 -99.98046875 c 2
 263.959960938 -152.612304688 l 2
 265.756835938 -152.971679688 267.313476562 -151.499023438 267.088867188 -149.702148438 c 2
 214.458007812 271.349609375 l 2
 214.047851562 274.624023438 208.801757812 274.161132812 209.235351562 270.69140625 c 2
 261.4140625 -146.734375 l 1
 1.8388671875 -94.8193359375 l 2
EndSplineSet
EndChar

StartChar: glyph30
Encoding: 29 90 30
Width: 486
VWidth: 0
Flags: HW
LayerCount: 2
Fore
SplineSet
218.874023438 113.126953125 m 0
 218.874023438 120.908203125 216.58984375 127.518554688 213.762695312 126.10546875 c 2
 58.388671875 48.41796875 l 1
 373.768554688 363.797851562 l 2
 375.510742188 365.540039062 376.768554688 370.475585938 376.768554688 376.284179688 c 0
 376.768554688 384.376953125 374.263671875 391.260742188 371.317382812 389.05078125 c 2
 160.791015625 231.155273438 l 2
 158.884765625 229.725585938 157.470703125 224.548828125 157.470703125 218.388671875 c 0
 157.470703125 210.296875 159.975585938 203.413085938 162.921875 205.623046875 c 2
 262.630859375 280.405273438 l 1
 2.5751953125 20.349609375 l 2
 0.8330078125 18.607421875 -0.423828125 13.6728515625 -0.423828125 7.86328125 c 0
 -0.423828125 0.08203125 1.8603515625 -6.5283203125 4.6865234375 -5.115234375 c 2
 215.212890625 100.1484375 l 2
 217.2890625 101.186523438 218.874023438 106.60546875 218.874023438 113.126953125 c 0
6.056640625 -148.439453125 m 0
 4.04296875 -145.794921875 -0.228515625 -148.872070312 1.8671875 -151.624023438 c 0
 62.513671875 -231.2734375 135.90625 -263.947265625 207.037109375 -263.947265625 c 0
 351.657226562 -263.947265625 486.299804688 -129.305664062 486.299804688 15.3134765625 c 0
 486.299804688 86.4453125 453.625 159.837890625 373.975585938 220.484375 c 0
 332.7578125 251.8671875 288.231445312 265.58984375 245.331054688 265.58984375 c 0
 131.749023438 265.58984375 29.7880859375 169.536132812 29.7880859375 52.5341796875 c 0
 29.7880859375 20.6923828125 37.3515625 -12.6533203125 54.2451171875 -45.9560546875 c 0
 54.470703125 -46.400390625 54.8173828125 -46.771484375 55.2431640625 -47.0263671875 c 2
 318.400390625 -204.921875 l 2
 321.370117188 -206.704101562 323.967773438 -202.124023438 321.102539062 -200.405273438 c 2
 58.6005859375 -42.9033203125 l 1
 42.302734375 -10.52734375 35.0517578125 21.7587890625 35.0517578125 52.5341796875 c 0
 35.0517578125 166.46484375 134.591796875 260.327148438 245.331054688 260.327148438 c 0
 287.083007812 260.327148438 330.458984375 247.00390625 370.791015625 216.293945312 c 0
 449.307617188 156.510742188 481.036132812 84.7333984375 481.036132812 15.3134765625 c 0
 481.036132812 -126.272460938 348.624023438 -258.684570312 207.037109375 -258.684570312 c 0
 137.6171875 -258.684570312 65.8408203125 -226.956054688 6.056640625 -148.439453125 c 0
370.02734375 -151.206054688 m 2
 371.491210938 -154.1328125 376.309570312 -152 374.73828125 -148.857421875 c 2
 217 166.618164062 l 1
 164.436523438 429.434570312 l 2
 163.79296875 432.651367188 158.586914062 431.84375 159.275390625 428.3984375 c 2
 211.907226562 165.239257812 l 2
 211.953125 165.0078125 212.030273438 164.788085938 212.1328125 164.583007812 c 2
 370.02734375 -151.206054688 l 2
EndSplineSet
EndChar

StartChar: OQ)
Encoding: 30 -1 31
Width: 572
VWidth: 0
Flags: HW
LayerCount: 2
Fore
SplineSet
377.193359375 -94.85546875 m 0
 373.80859375 -106.0234375 390.767578125 -110.56640625 393.987304688 -99.9443359375 c 0
 438.036132812 45.3955078125 322.204101562 168.075195312 194.649414062 168.075195312 c 0
 150.374023438 168.075195312 104.75 153.279296875 64.2294921875 119.900390625 c 0
 -22.791015625 48.2158203125 -22.43359375 -84.8662109375 64.2041015625 -156.784179688 c 0
 137.422851562 -217.5625 208.908203125 -243.443359375 274.318359375 -243.443359375 c 0
 448.583984375 -243.443359375 572.357421875 -61.8525390625 572.357421875 104.749023438 c 0
 572.357421875 241.98046875 487.67578125 370.916015625 280.932617188 385.036132812 c 0
 275.701171875 385.392578125 271.5546875 381.256835938 271.5546875 376.284179688 c 0
 271.5546875 371.646484375 275.162109375 367.844726562 279.721679688 367.533203125 c 0
 477.928710938 353.99609375 554.813476562 233.724609375 554.813476562 104.749023438 c 0
 554.813476562 -55.2734375 435.3671875 -225.899414062 274.318359375 -225.899414062 c 0
 213.715820312 -225.899414062 146.182617188 -202.037109375 75.3984375 -143.279296875 c 0
 -2.755859375 -78.4033203125 -3.1240234375 41.6904296875 75.373046875 106.353515625 c 0
 112.79296875 137.178710938 154.352539062 150.53125 194.649414062 150.53125 c 0
 311.823242188 150.53125 417.40625 37.826171875 377.193359375 -94.85546875 c 0
439.537109375 320.208007812 m 2
 443.270507812 322.07421875 440.940429688 329.1171875 436.905273438 327.099609375 c 2
 331.642578125 274.466796875 l 2
 327.91015625 272.600585938 330.240234375 265.557617188 334.275390625 267.575195312 c 2
 439.537109375 320.208007812 l 2
170.813476562 -145.427734375 m 2
 161.278320312 -148.606445312 169.078125 -158.047851562 179.315429688 -154.635742188 c 2
 337.208984375 -102.004882812 l 2
 346.745117188 -98.826171875 338.9453125 -89.3837890625 328.708007812 -92.7958984375 c 2
 170.813476562 -145.427734375 l 2
EndSplineSet
Ligature2: "liga-1" O Q )
EndChar

StartChar: glyph32
Encoding: 31 124 32
Width: 116
VWidth: 0
Flags: HW
LayerCount: 2
Fore
SplineSet
104.736328125 3.744140625 m 2
 108.5859375 -5.8798828125 120.487304688 1.6494140625 116.354492188 11.982421875 c 2
 11.0927734375 275.139648438 l 2
 7.2431640625 284.763671875 -4.6591796875 277.235351562 -0.525390625 266.90234375 c 2
 104.736328125 3.744140625 l 2
57.9140625 -106.171875 m 0
 61.8046875 -106.171875 65.1103515625 -101.603515625 64.4033203125 -95.9501953125 c 2
 51.8544921875 4.4443359375 l 1
 54.6865234375 -4.4599609375 66.1416015625 -1.060546875 64.3369140625 9.771484375 c 2
 11.7060546875 325.5625 l 2
 9.9833984375 335.899414062 -2.6220703125 333.537109375 -1.2060546875 322.204101562 c 2
 51.4248046875 -98.8505859375 l 2
 51.943359375 -103.002929688 54.6533203125 -106.171875 57.9140625 -106.171875 c 0
110.545898438 -103.978515625 m 2
 116.193359375 -103.978515625 116.22265625 -90.8212890625 110.545898438 -90.8212890625 c 2
 12.3798828125 -90.8212890625 l 1
 114.471679688 215.453125 l 2
 117.063476562 223.229492188 109.112304688 228.80078125 106.62109375 221.325195312 c 2
 1.357421875 -94.4638671875 l 2
 -0.1650390625 -99.03125 2.2109375 -103.978515625 5.283203125 -103.978515625 c 2
 110.545898438 -103.978515625 l 2
EndSplineSet
EndChar

StartChar: glyph34
Encoding: 33 40 33
Width: 156
VWidth: 0
Flags: HW
LayerCount: 2
Fore
SplineSet
148.96484375 305.044921875 m 2
 159.235351562 315.315429688 159.235351562 331.991210938 148.96484375 342.260742188 c 0
 138.6953125 352.53125 122.018554688 352.53125 111.749023438 342.260742188 c 2
 6.4853515625 236.998046875 l 2
 -0.80078125 229.711914062 -2.91796875 219.200195312 0.1357421875 210.0390625 c 2
 105.3984375 -105.750976562 l 2
 111.857421875 -125.127929688 135.93359375 -129.040039062 148.96484375 -116.008789062 c 0
 156.251953125 -108.721679688 158.368164062 -98.2099609375 155.315429688 -89.0498046875 c 2
 55.2041015625 211.284179688 l 1
 148.96484375 305.044921875 l 2
EndSplineSet
EndChar

StartChar: |.alt1
Encoding: 34 -1 34
Width: 111
VWidth: 0
Flags: HW
LayerCount: 2
Fore
SplineSet
104.823242188 269.514648438 m 2
 107.534179688 266.802734375 113.826171875 269.688476562 110.987304688 272.52734375 c 2
 5.7236328125 377.791015625 l 2
 3.740234375 379.774414062 -1.1181640625 378.881835938 -1.1181640625 376.284179688 c 2
 -1.1181640625 113.126953125 l 2
 -1.1181640625 109.73828125 6.400390625 109.720703125 6.400390625 113.126953125 c 2
 6.400390625 367.936523438 l 1
 104.823242188 269.514648438 l 2
59.0234375 429.125 m 2
 58.6875 432.819335938 51.1748046875 432.544921875 51.5234375 428.70703125 c 2
 104.155273438 -150.240234375 l 2
 104.491210938 -153.934570312 112.00390625 -153.66015625 111.655273438 -149.822265625 c 2
 59.0234375 429.125 l 2
EndSplineSet
EndChar

StartChar: /.alt3
Encoding: 35 -1 35
Width: 473
VWidth: 0
Flags: HW
LayerCount: 2
Fore
SplineSet
322.146484375 112.372070312 m 2
 324.399414062 116.126953125 311.580078125 117.4609375 309.431640625 113.880859375 c 2
 151.536132812 -149.27734375 l 2
 149.284179688 -153.03125 162.103515625 -154.366210938 164.251953125 -150.786132812 c 2
 322.146484375 112.372070312 l 2
EndSplineSet
EndChar

StartChar: ht
Encoding: 36 -1 36
Width: 238
VWidth: 0
Flags: HW
LayerCount: 2
Fore
SplineSet
111.749023438 41.8876953125 m 2
 122.018554688 31.6171875 138.6953125 31.6171875 148.96484375 41.8876953125 c 0
 154.099609375 47.0224609375 156.666992188 53.7587890625 156.666992188 60.4951171875 c 2
 156.666992188 323.653320312 l 2
 156.666992188 330.389648438 154.099609375 337.125976562 148.96484375 342.260742188 c 0
 135.543945312 355.681640625 110.765625 350.876953125 105.061523438 330.9140625 c 2
 -0.2021484375 -37.5078125 l 2
 -2.7431640625 -46.40234375 -0.5146484375 -56.376953125 6.4853515625 -63.376953125 c 0
 19.9052734375 -76.796875 44.6845703125 -71.9921875 50.388671875 -52.029296875 c 2
 84.89453125 68.7412109375 l 1
 111.749023438 41.8876953125 l 2
238.129882812 268.318359375 m 2
 240.109375 274.259765625 235.021484375 279.454101562 233.111328125 273.72265625 c 2
 127.84765625 -42.06640625 l 2
 126.794921875 -45.224609375 127.870117188 -48.98828125 129.57421875 -49.83984375 c 2
 227.963867188 -99.03515625 l 1
 181.571289062 -145.427734375 l 2
 178.392578125 -148.606445312 180.993164062 -158.047851562 184.405273438 -154.635742188 c 2
 237.037109375 -102.00390625 l 2
 239.259765625 -99.78125 238.86328125 -93.5576171875 236.403320312 -92.328125 c 2
 134.840820312 -41.546875 l 1
 238.129882812 268.318359375 l 2
28.8525390625 218.388671875 m 2
 28.8525390625 223.23046875 27.1689453125 227.161132812 25.09375 227.161132812 c 0
 23.0185546875 227.161132812 21.333984375 223.23046875 21.333984375 218.388671875 c 2
 21.333984375 60.4951171875 l 2
 21.333984375 55.654296875 23.0185546875 51.7236328125 25.09375 51.7236328125 c 0
 27.1689453125 51.7236328125 28.8525390625 55.654296875 28.8525390625 60.4951171875 c 2
 28.8525390625 218.388671875 l 2
EndSplineSet
Ligature2: "liga-1" h t
EndChar

StartChar: ".alt7"
Encoding: 37 -1 37
Width: 219
VWidth: 0
Flags: HW
LayerCount: 2
Fore
SplineSet
156.592773438 -202.663085938 m 2
 156.592773438 -206.05078125 167.119140625 -206.068359375 167.119140625 -202.663085938 c 2
 167.119140625 271.021484375 l 2
 167.119140625 274.340820312 157.010742188 274.448242188 156.603515625 271.1875 c 2
 103.97265625 -149.865234375 l 2
 103.54296875 -153.301757812 114.05859375 -153.553710938 114.478515625 -150.197265625 c 2
 156.592773438 186.725585938 l 1
 156.592773438 -202.663085938 l 2
-1.30078125 113.126953125 m 2
 -1.30078125 109.739257812 9.2255859375 109.721679688 9.2255859375 113.126953125 c 2
 9.2255859375 261.330078125 l 1
 94.796875 187.231445312 160.603515625 101.520507812 209.391601562 7.203125 c 0
 211.025390625 4.0458984375 221.352539062 5.103515625 219.583984375 8.5234375 c 0
 168.837890625 106.625976562 99.169921875 196.197265625 8.48828125 272.365234375 c 0
 5.9306640625 274.512695312 -1.30078125 273.732421875 -1.30078125 271.021484375 c 2
 -1.30078125 113.126953125 l 2
EndSplineSet
EndChar

StartChar: fe
Encoding: 38 -1 38
Width: 832
VWidth: 0
Flags: HW
LayerCount: 2
Fore
SplineSet
349.813476562 -10.7451171875 m 0
 360.083984375 -21.0146484375 376.759765625 -21.0146484375 387.029296875 -10.7451171875 c 0
 393.001953125 -4.7724609375 395.500976562 3.365234375 394.52734375 11.1494140625 c 2
 341.896484375 432.202148438 l 2
 341.196289062 437.805664062 338.697265625 443.225585938 334.3984375 447.524414062 c 0
 324.12890625 457.793945312 307.453125 457.793945312 297.182617188 447.524414062 c 0
 292.607421875 442.94921875 290.0703125 437.102539062 289.571289062 431.1171875 c 2
 236.939453125 -200.461914062 l 2
 236.318359375 -207.912109375 238.85546875 -215.577148438 244.55078125 -221.271484375 c 0
 254.8203125 -231.541992188 271.497070312 -231.541992188 281.766601562 -221.271484375 c 0
 286.341796875 -216.696289062 288.87890625 -210.849609375 289.377929688 -204.864257812 c 2
 321.025390625 174.901367188 l 1
 342.315429688 4.5771484375 l 2
 343.015625 -1.0263671875 345.515625 -6.4462890625 349.813476562 -10.7451171875 c 0
263.159179688 4.103515625 m 0
 269.909179688 4.103515625 269.979492188 11.56640625 263.219726562 11.6220703125 c 0
 163.872070312 12.435546875 89.8193359375 94.990234375 89.8193359375 187.831054688 c 0
 89.8193359375 215.060546875 96.2333984375 243.005859375 110.194335938 269.708007812 c 0
 186.758789062 416.138671875 285.736328125 471.310546875 380.844726562 471.310546875 c 0
 562.5 471.310546875 742.194335938 268.783203125 742.194335938 81.26171875 c 0
 742.194335938 -39.6513671875 667.770507812 -152.629882812 472.025390625 -199.094726562 c 0
 465.865234375 -200.557617188 468.609375 -207.830078125 475.34375 -206.232421875 c 0
 676.040039062 -158.590820312 752.720703125 -41.8994140625 752.720703125 81.26171875 c 0
 752.720703125 270.395507812 572.567382812 478.829101562 380.844726562 478.829101562 c 0
 279.068359375 478.829101562 177.397460938 419.73046875 100.330078125 272.334960938 c 0
 85.8994140625 244.735351562 79.29296875 215.916015625 79.29296875 187.831054688 c 0
 79.29296875 93.216796875 154.7890625 4.990234375 263.159179688 4.103515625 c 0
EndSplineSet
Ligature2: "liga-1" f e
EndChar

StartChar: ".alt8"
Encoding: 39 -1 39
Width: 263
VWidth: 0
Flags: HW
LayerCount: 2
Fore
SplineSet
158.416015625 139.453125 m 1
 172.416015625 139.728515625 184.206054688 151.838867188 184.205078125 165.758789062 c 2
 184.205078125 271.021484375 l 2
 184.204101562 277.7578125 181.63671875 284.494140625 176.501953125 289.62890625 c 0
 162.323242188 303.807617188 136.302734375 297.240234375 132.096679688 276.211914062 c 2
 79.466796875 13.0537109375 l 2
 76.37109375 -2.4228515625 88.6083984375 -18.447265625 105.263671875 -18.447265625 c 2
 210.526367188 -18.447265625 l 2
 217.262695312 -18.447265625 223.999023438 -15.8798828125 229.133789062 -10.7451171875 c 0
 239.404296875 -0.474609375 239.404296875 16.201171875 229.133789062 26.4716796875 c 0
 223.999023438 31.6064453125 217.262695312 34.173828125 210.526367188 34.173828125 c 2
 137.361328125 34.173828125 l 1
 158.416015625 139.453125 l 1
34.0234375 236.997070312 m 0
 22.5390625 225.512695312 23.48828125 205.0390625 39.248046875 195.725585938 c 0
 57.1767578125 185.12890625 72.0029296875 170.302734375 82.599609375 152.374023438 c 0
 106.536132812 111.87109375 106.536132812 61.75 82.599609375 21.2470703125 c 0
 78.0498046875 13.546875 77.7578125 4.0205078125 81.724609375 -3.9130859375 c 2
 186.987304688 -214.440429688 l 2
 195.522460938 -231.509765625 217.200195312 -233.206054688 229.134765625 -221.271484375 c 0
 237.349609375 -213.056640625 238.994140625 -200.7421875 234.06640625 -190.88671875 c 2
 134.8984375 7.44921875 l 1
 161.362304688 61.880859375 159.038085938 126.499023438 127.927734375 179.140625 c 0
 112.872070312 204.615234375 91.490234375 225.998046875 66.015625 241.053710938 c 0
 55.923828125 247.017578125 42.6923828125 245.666015625 34.0234375 236.997070312 c 0
EndSplineSet
EndChar

StartChar: glyph40
Encoding: 41 71 40
Width: 565
VWidth: 0
Flags: HW
LayerCount: 2
Fore
SplineSet
231.934570312 394.893554688 m 0
 221.665039062 384.623046875 221.665039062 367.947265625 231.934570312 357.676757812 c 2
 284.56640625 305.044921875 l 2
 298.423828125 291.1875 323.940429688 296.997070312 328.784179688 317.598632812 c 0
 332.650390625 334.041015625 345.41796875 346.80859375 361.860351562 350.674804688 c 0
 423.529296875 365.174804688 459.6796875 351.709960938 481.307617188 330.08203125 c 0
 501.138671875 310.250976562 511.8671875 279.150390625 511.951171875 244.567382812 c 0
 512.056640625 201.30859375 495.122070312 155.874023438 468.040039062 128.79296875 c 0
 449.47265625 110.224609375 426.975585938 99.9208984375 399.670898438 101.286132812 c 0
 377.56640625 102.392578125 350.3828125 111.484375 318.569335938 134.47265625 c 0
 308.28515625 141.903320312 293.82421875 140.990234375 284.56640625 131.733398438 c 0
 273.590820312 120.7578125 273.905273438 101.803710938 287.780273438 91.7783203125 c 0
 325.625 64.431640625 362.360351562 50.46484375 397.022460938 48.7314453125 c 0
 440.677734375 46.5478515625 477.966796875 64.287109375 505.256835938 91.5771484375 c 0
 544.459960938 130.779296875 564.708007812 188.84765625 564.572265625 244.696289062 c 0
 564.463867188 289.399414062 551.048828125 334.7734375 518.5234375 367.298828125 c 0
 481.4921875 404.330078125 423.56640625 419.25 349.750976562 401.893554688 c 0
 328.559570312 396.911132812 310.90625 386.461914062 296.1171875 367.926757812 c 1
 269.151367188 394.893554688 l 2
 258.880859375 405.163085938 242.205078125 405.163085938 231.934570312 394.893554688 c 0
451.873046875 13.751953125 m 0
 451.873046875 -90.98828125 378.623046875 -193.959960938 243.994140625 -193.959960938 c 0
 92.623046875 -193.959960938 17.509765625 -80.51171875 17.509765625 34.1787109375 c 0
 17.509765625 150.529296875 94.849609375 265.4765625 250.358398438 262.250976562 c 0
 255.325195312 262.250976562 259.315429688 266.0625 259.315429688 271.020507812 c 0
 259.315429688 275.80078125 255.484375 279.692382812 250.728515625 279.791015625 c 0
 84.04296875 283.248046875 -0.0341796875 158.129882812 -0.0341796875 34.1787109375 c 0
 -0.0341796875 -88.041015625 81.69140625 -211.50390625 243.994140625 -211.50390625 c 0
 389.572265625 -211.50390625 469.416992188 -98.861328125 469.416992188 13.751953125 c 0
 469.416992188 104.672851562 416.94921875 196.071289062 305.512695312 226.845703125 c 0
 294.272460938 229.950195312 290.127929688 212.890625 300.837890625 209.932617188 c 0
 404.163085938 181.3984375 451.873046875 97.9501953125 451.873046875 13.751953125 c 0
364.092773438 110.243164062 m 0
 367.934570312 121.271484375 351.166992188 126.4765625 347.520507812 116.010742188 c 0
 317.131835938 28.7763671875 266.354492188 -2.0341796875 215.063476562 -2.0341796875 c 0
 125.78125 -2.0341796875 30.119140625 93.62890625 30.119140625 182.911132812 c 0
 30.119140625 234.202148438 60.9287109375 284.978515625 148.163085938 315.3671875 c 0
 156.184570312 318.161132812 164.326171875 319.4765625 172.30078125 319.4765625 c 0
 203.327148438 319.4765625 232.224609375 299.630859375 242.18359375 268.359375 c 0
 245.46875 258.043945312 262.490234375 262.420898438 258.903320312 273.681640625 c 0
 246.563476562 312.432617188 210.735351562 337.020507812 172.30078125 337.020507812 c 0
 162.361328125 337.020507812 152.2734375 335.380859375 142.396484375 331.940429688 c 0
 50.3203125 299.864257812 12.5751953125 242.74609375 12.5751953125 182.911132812 c 0
 12.5751953125 83.1513671875 115.3046875 -19.578125 215.063476562 -19.578125 c 0
 274.8984375 -19.578125 332.017578125 18.16796875 364.092773438 110.243164062 c 0
EndSplineSet
EndChar

StartChar: glyph41
Encoding: 42 60 41
Width: 269
VWidth: 0
Flags: HW
LayerCount: 2
Fore
SplineSet
2.8603515625 279.768554688 m 0
 1.1064453125 279.768554688 -0.2822265625 276.30078125 -0.2822265625 271.020507812 c 0
 -0.2822265625 266.400390625 0.9111328125 262.609375 2.4228515625 262.2734375 c 0
 37.236328125 254.528320312 73.3095703125 254.528320312 108.123046875 262.2734375 c 0
 147.1640625 270.958007812 183.487304688 289.100585938 213.971679688 315.217773438 c 0
 217.44921875 318.197265625 216.14453125 335.329101562 212.364257812 332.08984375 c 0
 169.196289062 295.10546875 112.68359375 274.008789062 55.2724609375 274.008789062 c 0
 37.6953125 274.008789062 20.1181640625 275.9296875 2.8603515625 279.768554688 c 0
5.83203125 378.272460938 m 2
 3.330078125 382.276367188 -3.17578125 378.499023438 -0.548828125 374.295898438 c 2
 262.609375 -46.7568359375 l 2
 265.112304688 -50.759765625 271.6171875 -46.982421875 268.990234375 -42.779296875 c 2
 5.83203125 378.272460938 l 2
EndSplineSet
EndChar

StartChar: glyph42
Encoding: 43 46 42
Width: 313
VWidth: 0
Flags: HW
LayerCount: 2
Fore
SplineSet
55.37109375 433.7734375 m 2
 53.67578125 440.551757812 49.3427734375 437.693359375 49.3427734375 428.916015625 c 0
 49.3427734375 427.120117188 49.544921875 425.450195312 49.892578125 424.059570312 c 2
 102.524414062 213.532226562 l 2
 103.2890625 210.473632812 104.837890625 208.592773438 106.416992188 210.172851562 c 2
 211.6796875 315.4375 l 2
 215.470703125 319.228515625 213.533203125 336.03125 209.373046875 331.870117188 c 2
 106.552734375 229.047851562 l 1
 55.37109375 433.7734375 l 2
105.899414062 437.524414062 m 0
 101.609375 439.766601562 100.546875 422.44140625 104.62890625 420.307617188 c 0
 177.501953125 382.221679688 228.236328125 320.297851562 253.529296875 251.734375 c 0
 266.163085938 217.483398438 272.358398438 182.086914062 272.358398438 147.227539062 c 0
 272.358398438 85.951171875 252.922851562 20.5615234375 209.078125 -36.890625 c 0
 194.173828125 -56.421875 176.647460938 -73.9619140625 156.989257812 -88.96484375 c 0
 153.077148438 -91.9501953125 154.547851562 -109.080078125 158.80078125 -105.834960938 c 0
 178.764648438 -90.59765625 196.640625 -72.7392578125 211.973632812 -52.646484375 c 0
 256.497070312 5.6962890625 278.936523438 75.2333984375 278.936523438 147.227539062 c 0
 278.936523438 187.935546875 271.66796875 227.573242188 258.21875 264.034179688 c 0
 231.341796875 336.891601562 179.424804688 399.096679688 105.899414062 437.524414062 c 0
135.00390625 153.05859375 m 1
 137.024414062 175.055664062 139.479492188 199.274414062 139.479492188 219.154296875 c 0
 139.479492188 248.741210938 134.140625 278.923828125 104.958007812 277.592773438 c 0
 55.966796875 275.359375 34.9150390625 246.439453125 34.9150390625 214.603515625 c 0
 34.9150390625 175.375976562 65.88671875 130.399414062 107.1328125 130.399414062 c 0
 111.38671875 130.399414062 115.681640625 130.8984375 119.989257812 131.926757812 c 1
 116.819335938 89.78515625 114.6640625 32.62890625 157.0703125 32.62890625 c 0
 171.8828125 32.62890625 190.110351562 39.7578125 214.04296875 54.935546875 c 0
 237.419921875 69.759765625 237.418945312 103.860351562 214.043945312 118.686523438 c 0
 206.783203125 123.291992188 199.887695312 112.084960938 207.009765625 107.567382812 c 0
 222.2265625 97.916015625 222.227539062 75.705078125 207.010742188 66.0556640625 c 0
 183.956054688 51.4345703125 167.551757812 45.7861328125 157.0703125 45.7861328125 c 0
 138.502929688 45.7861328125 131.70703125 64.037109375 131.70703125 99.1142578125 c 0
 131.70703125 110.80859375 132.50390625 123.682617188 133.590820312 136.959960938 c 1
 143.6015625 142.015625 153.517578125 150.098632812 162.973632812 161.578125 c 0
 168.403320312 168.168945312 158.173828125 176.442382812 152.814453125 169.936523438 c 0
 146.809570312 162.647460938 140.844726562 157.12109375 135.00390625 153.05859375 c 1
EndSplineSet
EndChar

StartChar: ".alt9"
Encoding: 44 -1 43
Width: 315
VWidth: 0
Flags: HW
LayerCount: 2
Fore
SplineSet
154.60546875 -44.7685546875 m 2
 154.60546875 -59.2919921875 156.079101562 -71.083984375 157.89453125 -71.083984375 c 0
 159.709960938 -71.083984375 161.18359375 -59.2919921875 161.18359375 -44.7685546875 c 2
 161.18359375 271.020507812 l 2
 161.18359375 285.544921875 159.709960938 297.336914062 157.89453125 297.336914062 c 0
 156.079101562 297.336914062 154.60546875 285.544921875 154.60546875 271.020507812 c 2
 154.60546875 -44.7685546875 l 2
EndSplineSet
EndChar

StartChar: glyph44
Encoding: 45 59 44
Width: 315
VWidth: 0
Flags: HW
LayerCount: 2
Fore
SplineSet
71.2392578125 447.524414062 m 2
 60.96875 457.793945312 44.29296875 457.793945312 34.0224609375 447.524414062 c 0
 23.7529296875 437.25390625 23.7529296875 420.578125 34.0224609375 410.307617188 c 2
 86.6552734375 357.67578125 l 2
 96.9248046875 347.40625 113.600585938 347.40625 123.87109375 357.67578125 c 0
 134.141601562 367.946289062 134.141601562 384.622070312 123.87109375 394.892578125 c 2
 71.2392578125 447.524414062 l 2
229.134765625 -131.423828125 m 2
 218.865234375 -121.153320312 202.188476562 -121.153320312 191.918945312 -131.423828125 c 0
 181.6484375 -141.693359375 181.6484375 -158.369140625 191.918945312 -168.639648438 c 2
 244.55078125 -221.271484375 l 2
 254.8203125 -231.541992188 271.497070312 -231.541992188 281.766601562 -221.271484375 c 0
 286.90234375 -216.13671875 289.469726562 -209.400390625 289.469726562 -202.663085938 c 2
 289.469726562 376.284179688 l 2
 289.469726562 383.020507812 286.90234375 389.756835938 281.766601562 394.892578125 c 0
 271.497070312 405.162109375 254.8203125 405.162109375 244.55078125 394.892578125 c 0
 239.416015625 389.756835938 236.84765625 383.020507812 236.84765625 376.284179688 c 2
 236.84765625 -139.13671875 l 1
 229.134765625 -131.423828125 l 2
263.159179688 4.939453125 m 0
 270.635742188 4.939453125 276.864257812 6.3291015625 276.280273438 8.08203125 c 2
 223.6484375 165.977539062 l 2
 223.14453125 167.489257812 217.458007812 168.682617188 210.52734375 168.682617188 c 0
 203.049804688 168.682617188 196.821289062 167.29296875 197.405273438 165.540039062 c 2
 250.037109375 7.64453125 l 2
 250.541015625 6.1328125 256.227539062 4.939453125 263.159179688 4.939453125 c 0
EndSplineSet
EndChar

StartChar: :.alt1
Encoding: 46 -1 45
Width: 312
VWidth: 0
Flags: HW
LayerCount: 2
Fore
SplineSet
208.0546875 154.139648438 m 2
 211.689453125 149.29296875 215.790039062 156.372070312 215.790039062 165.7578125 c 0
 215.790039062 170.787109375 214.658203125 175.161132812 212.998046875 177.375 c 2
 73.685546875 363.126953125 l 1
 210.526367188 363.126953125 l 2
 213.431640625 363.126953125 215.790039062 369.022460938 215.790039062 376.284179688 c 0
 215.790039062 383.546875 213.431640625 389.442382812 210.526367188 389.442382812 c 2
 52.6318359375 389.442382812 l 2
 49.7275390625 389.442382812 47.369140625 383.546875 47.369140625 376.284179688 c 0
 47.369140625 371.254882812 48.5 366.880859375 50.1611328125 364.666015625 c 2
 208.0546875 154.139648438 l 2
260.817382812 -204.634765625 m 2
 263.026367188 -207.947265625 267.80859375 -204.157226562 265.499023438 -200.692382812 c 2
 160.235351562 -42.796875 l 2
 159.263671875 -41.3408203125 157.241210938 -41.021484375 155.953125 -42.3095703125 c 2
 103.321289062 -94.9404296875 l 2
 100.530273438 -97.732421875 104.369140625 -102.694335938 107.204101562 -99.859375 c 2
 157.461914062 -49.6015625 l 1
 260.817382812 -204.634765625 l 2
206.083984375 214.508789062 m 0
 212.319335938 209.9375 221.254882812 217.661132812 214.969726562 222.26953125 c 0
 181.227539062 247.009765625 134.563476562 247.010742188 100.819335938 222.26953125 c 0
 59.775390625 192.176757812 42.763671875 153.337890625 42.763671875 115.540039062 c 0
 42.763671875 43.7138671875 104.318359375 -27.0634765625 181.942382812 -27.0634765625 c 0
 210.143554688 -27.0634765625 239.62890625 -17.4755859375 267.709960938 4.064453125 c 0
 273.783203125 8.7236328125 264.766601562 16.3876953125 258.607421875 11.662109375 c 0
 232.451171875 -8.4013671875 206.25390625 -16.537109375 181.942382812 -16.537109375 c 0
 114.934570312 -16.537109375 55.921875 47.13671875 55.921875 115.540039062 c 0
 55.921875 150.805664062 71.6396484375 186.599609375 109.705078125 214.508789062 c 0
 138.62109375 235.709960938 177.169921875 235.708984375 206.083984375 214.508789062 c 0
EndSplineSet
EndChar

StartChar: |.alt2
Encoding: 47 -1 46
Width: 315
VWidth: 0
Flags: HW
LayerCount: 2
Fore
SplineSet
229.134765625 447.524414062 m 0
 214.95703125 461.702148438 188.934570312 455.135742188 184.728515625 434.107421875 c 2
 79.466796875 -92.2099609375 l 2
 77.798828125 -100.551757812 80.1943359375 -109.547851562 86.6552734375 -116.008789062 c 0
 98.5908203125 -127.943359375 120.263671875 -126.255859375 128.803710938 -109.176757812 c 2
 181.43359375 -3.9130859375 l 2
 186.361328125 5.9423828125 184.716796875 18.2568359375 176.501953125 26.4716796875 c 0
 171.499023438 31.474609375 164.974609375 34.041015625 158.412109375 34.1689453125 c 1
 236.32421875 423.725585938 l 2
 237.9921875 432.06640625 235.595703125 441.063476562 229.134765625 447.524414062 c 0
EndSplineSet
EndChar

StartChar: SJ
Encoding: 48 -1 47
Width: 482
VWidth: 0
Flags: HW
LayerCount: 2
Fore
SplineSet
473.8828125 -204.1640625 m 2
 476.690429688 -207.283203125 484.422851562 -204.508789062 481.41015625 -201.162109375 c 2
 7.7255859375 325.153320312 l 2
 4.9189453125 328.272460938 -2.814453125 325.498046875 0.1982421875 322.150390625 c 2
 473.8828125 -204.1640625 l 2
5.58203125 63.212890625 m 0
 0.16015625 64.65234375 -2.80078125 59.142578125 2.3427734375 57.77734375 c 0
 72.3173828125 39.2041015625 146.1328125 39.2041015625 216.107421875 57.77734375 c 0
 310.905273438 82.9375 392.90625 139.83203125 449.336914062 217.618164062 c 1
 262.9140625 -201.83203125 l 2
 261.255859375 -205.561523438 269.749023438 -207.041992188 271.325195312 -203.494140625 c 2
 481.852539062 270.190429688 l 2
 483.479492188 273.8515625 475.278320312 275.384765625 473.502929688 271.981445312 c 0
 419.524414062 168.48828125 324.669921875 92.88671875 212.868164062 63.212890625 c 0
 144.880859375 45.1669921875 73.568359375 45.1669921875 5.58203125 63.212890625 c 0
161.056640625 424.661132812 m 0
 165.293945312 423.24609375 166.705078125 431.819335938 162.658203125 433.170898438 c 0
 87.6845703125 458.206054688 6.6767578125 406.5234375 0.6884765625 324.081054688 c 0
 -9.94140625 177.74609375 89.361328125 114.590820312 187.8671875 114.590820312 c 0
 287.022460938 114.590820312 391.456054688 178.534179688 391.456054688 295.252929688 c 0
 391.456054688 320.75390625 386.405273438 348.479492188 375.33203125 378.229492188 c 0
 373.513671875 383.114257812 367.482421875 379.583984375 369.435546875 374.338867188 c 0
 380.142578125 345.571289062 384.876953125 319.170898438 384.876953125 295.252929688 c 0
 384.876953125 186.866210938 286.26171875 123.362304688 187.8671875 123.362304688 c 0
 94.88671875 123.362304688 6.4931640625 179.864257812 6.4931640625 303.17578125 c 0
 6.4931640625 309.661132812 6.736328125 316.344726562 7.236328125 323.2265625 c 0
 12.7021484375 398.4765625 89.2021484375 448.654296875 161.056640625 424.661132812 c 0
EndSplineSet
Ligature2: "liga-1" S J
EndChar

StartChar: glyph48
Encoding: 49 52 48
Width: 420
VWidth: 0
Flags: HW
LayerCount: 2
Fore
SplineSet
94.451171875 220.188476562 m 0
 90.6845703125 216.594726562 99.5673828125 213.063476562 103.263671875 216.590820312 c 0
 138.450195312 250.170898438 177.591796875 263.825195312 214.61328125 263.825195312 c 0
 300.026367188 263.825195312 382.719726562 189.557617188 382.719726562 97.0009765625 c 0
 382.719726562 68.625 374.91015625 38.7060546875 357.084960938 9.017578125 c 0
 316.833007812 -58.0234375 260.084960938 -84.1923828125 205.534179688 -84.1923828125 c 0
 109.211914062 -84.1923828125 10.373046875 -1.564453125 10.373046875 102.84765625 c 0
 10.373046875 139.30859375 22.4677734375 178.229492188 50.869140625 216.827148438 c 1
 208.586914062 374.543945312 l 2
 212.233398438 378.190429688 203.23046875 381.600585938 199.654296875 378.0234375 c 2
 41.7587890625 220.129882812 l 2
 41.6416015625 220.012695312 41.5361328125 219.890625 41.4423828125 219.763671875 c 0
 12.291015625 180.221679688 -0.15234375 140.293945312 -0.15234375 102.84765625 c 0
 -0.15234375 -3.0849609375 99.7666015625 -90.771484375 205.534179688 -90.771484375 c 0
 266.33203125 -90.771484375 326.018554688 -61.453125 366.944335938 6.708984375 c 0
 385.229492188 37.1630859375 393.24609375 67.8583984375 393.24609375 97.0009765625 c 0
 393.24609375 190.809570312 309.793945312 270.403320312 214.61328125 270.403320312 c 0
 173.032226562 270.403320312 130.833984375 254.91015625 94.451171875 220.188476562 c 0
305.543945312 220.638671875 m 2
 310.146484375 223.70703125 317.893554688 219.25390625 313.223632812 216.141601562 c 2
 221.751953125 155.16015625 l 1
 416.25 116.260742188 l 2
 422.436523438 115.0234375 419.796875 108.642578125 413.04296875 109.993164062 c 2
 213.779296875 149.844726562 l 1
 155.329101562 110.877929688 l 2
 152.17578125 108.776367188 146.225585938 110.172851562 146.225585938 113.126953125 c 2
 146.225585938 165.7578125 l 2
 146.225585938 167.852539062 149.48046875 169.614257812 153.092773438 168.891601562 c 2
 210.654296875 157.37890625 l 1
 305.543945312 220.638671875 l 2
156.751953125 121.444335938 m 1
 202.682617188 152.064453125 l 1
 156.751953125 161.250976562 l 1
 156.751953125 121.444335938 l 1
261.981445312 376.659179688 m 2
 261.235351562 380.764648438 250.735351562 380.243164062 251.5234375 375.909179688 c 2
 356.78515625 -203.038085938 l 2
 357.532226562 -207.14453125 368.032226562 -206.623046875 367.244140625 -202.2890625 c 2
 261.981445312 376.659179688 l 2
EndSplineSet
EndChar

StartChar: \.alt2
Encoding: 50 -1 49
Width: 736
VWidth: 0
Flags: HW
LayerCount: 2
Fore
SplineSet
421.052734375 -100.03125 m 0
 435.716796875 -100.03125 447.734375 -98.830078125 447.360351562 -97.33203125 c 2
 342.096679688 323.719726562 l 2
 341.741210938 325.141601562 330.08984375 326.28515625 315.7890625 326.28515625 c 0
 301.125 326.28515625 289.107421875 325.083984375 289.481445312 323.5859375 c 2
 394.745117188 -97.4658203125 l 2
 395.100585938 -98.8876953125 406.751953125 -100.03125 421.052734375 -100.03125 c 0
EndSplineSet
EndChar

StartChar: glyph50
Encoding: 51 78 50
Width: 208
VWidth: 0
Flags: HW
LayerCount: 2
Fore
SplineSet
160.412109375 152.225585938 m 2
 169.7890625 136.59765625 190.153320312 135.70703125 201.595703125 147.150390625 c 0
 210.306640625 155.861328125 211.62890625 169.180664062 205.563476562 179.291015625 c 2
 47.6689453125 442.448242188 l 2
 38.29296875 458.076171875 17.9287109375 458.966796875 6.4853515625 447.524414062 c 0
 -2.2255859375 438.813476562 -3.5478515625 425.493164062 2.5185546875 415.383789062 c 2
 160.412109375 152.225585938 l 2
156.155273438 223.581054688 m 2
 151.956054688 244.577148438 125.939453125 251.1875 111.75 236.998046875 c 0
 105.2890625 230.537109375 102.892578125 221.541015625 104.560546875 213.19921875 c 2
 157.19140625 -49.958984375 l 2
 161.390625 -70.955078125 187.407226562 -77.56640625 201.596679688 -63.376953125 c 0
 208.057617188 -56.916015625 210.454101562 -47.9189453125 208.786132812 -39.578125 c 2
 156.155273438 223.581054688 l 2
59.1181640625 -221.271484375 m 0
 69.3876953125 -231.541992188 86.0634765625 -231.541992188 96.333984375 -221.271484375 c 0
 102.579101562 -215.026367188 105.026367188 -206.412109375 103.676757812 -198.309570312 c 2
 51.044921875 117.479492188 l 2
 50.173828125 122.701171875 47.7265625 127.709960938 43.7021484375 131.734375 c 0
 33.431640625 142.004882812 16.755859375 142.004882812 6.4853515625 131.734375 c 0
 0.240234375 125.489257812 -2.20703125 116.875 -0.8564453125 108.772460938 c 2
 51.775390625 -207.016601562 l 2
 52.6455078125 -212.23828125 55.0927734375 -217.247070312 59.1181640625 -221.271484375 c 0
EndSplineSet
EndChar

StartChar: glyph51
Encoding: 52 83 51
Width: 577
VWidth: 0
Flags: HW
LayerCount: 2
Fore
SplineSet
400.775390625 403.620117188 m 2
 420.717773438 409.317382812 425.548828125 434.096679688 412.123046875 447.5234375 c 0
 405.123046875 454.522460938 395.1484375 456.751953125 386.25390625 454.2109375 c 2
 17.8330078125 348.94921875 l 2
 -2.3369140625 343.186523438 -7.455078125 317.54296875 7.50390625 304.080078125 c 2
 533.819335938 -169.60546875 l 2
 544.145507812 -178.8984375 560.080078125 -178.577148438 570.017578125 -168.639648438 c 0
 580.500976562 -158.15625 580.493164062 -140.801757812 569 -130.45703125 c 2
 78.037109375 311.41015625 l 1
 400.775390625 403.620117188 l 2
77.7255859375 -88.6259765625 m 0
 57.673828125 -88.6259765625 43.9189453125 -96.3076171875 55.8134765625 -102.254882812 c 2
 266.340820312 -207.518554688 l 2
 271.059570312 -209.877929688 279.115234375 -211.43359375 288.252929688 -211.43359375 c 0
 298.98046875 -211.43359375 308.217773438 -209.2890625 312.313476562 -206.216796875 c 2
 522.838867188 -48.322265625 l 2
 525.9765625 -45.96875 525.69140625 -43.0927734375 522.331054688 -40.8525390625 c 2
 48.646484375 274.935546875 l 2
 44.328125 277.814453125 35.3984375 279.79296875 25.09375 279.79296875 c 0
 6.671875 279.79296875 -7.6044921875 273.203125 1.541015625 267.106445312 c 2
 469.68359375 -44.986328125 l 1
 283.622070312 -184.533203125 l 1
 99.6376953125 -92.541015625 l 2
 94.9189453125 -90.181640625 86.8623046875 -88.6259765625 77.7255859375 -88.6259765625 c 0
EndSplineSet
EndChar

StartChar: "Ga+ALsA"
Encoding: 53 -1 52
Width: 210
VWidth: 0
Flags: HW
LayerCount: 2
Fore
SplineSet
176.501953125 41.8876953125 m 0
 186.772460938 52.1572265625 186.772460938 68.8330078125 176.501953125 79.103515625 c 0
 171.3671875 84.23828125 164.630859375 86.8056640625 157.893554688 86.8056640625 c 2
 52.6318359375 86.8056640625 l 2
 45.8955078125 86.8056640625 39.1591796875 84.23828125 34.0234375 79.103515625 c 0
 23.75390625 68.8330078125 23.75390625 52.1572265625 34.0234375 41.8876953125 c 0
 39.1591796875 36.751953125 45.8955078125 34.1845703125 52.6318359375 34.1845703125 c 2
 157.893554688 34.1845703125 l 2
 164.630859375 34.1845703125 171.3671875 36.751953125 176.501953125 41.8876953125 c 0
EndSplineSet
Ligature2: "liga-1" G a 
EndChar

StartChar: G.alt1
Encoding: 54 -1 53
Width: 402
VWidth: 0
Flags: HW
LayerCount: 2
Fore
SplineSet
379.55078125 233.090820312 m 0
 369.73046875 247.6484375 350.25390625 248.139648438 339.112304688 236.997070312 c 0
 330.060546875 227.946289062 328.986328125 213.919921875 335.889648438 203.6875 c 0
 357.861328125 171.1171875 351.900390625 129.541992188 326.310546875 103.952148438 c 0
 318.310546875 95.9521484375 308.314453125 89.4697265625 296.4375 85.3515625 c 0
 197.9921875 51.2109375 137.708007812 69.7744140625 101.405273438 106.077148438 c 0
 70.255859375 137.2265625 53.4140625 186.392578125 52.5185546875 239.768554688 c 0
 51.3984375 306.5390625 75.5439453125 376.200195312 116.768554688 417.424804688 c 0
 144.045898438 444.702148438 178.047851562 460.146484375 220.103515625 457.546875 c 0
 254.052734375 455.448242188 295.063476562 441.137695312 342.498046875 407.4453125 c 0
 352.770507812 400.1484375 367.122070312 401.102539062 376.327148438 410.307617188 c 0
 387.344726562 421.325195312 386.98828125 440.409179688 372.940429688 450.387695312 c 0
 319.764648438 488.158203125 269.66015625 507.206054688 223.375 510.067382812 c 0
 165.138671875 513.666992188 115.8515625 490.940429688 79.5517578125 454.640625 c 0
 25.4462890625 400.53515625 -1.4189453125 317.744140625 -0.095703125 238.87890625 c 0
 0.9638671875 175.745117188 20.2861328125 112.762695312 64.1884765625 68.8603515625 c 0
 117.708007812 15.341796875 202.946289062 -2.783203125 313.73828125 35.638671875 c 0
 333.165039062 42.3759765625 349.958984375 53.16796875 363.526367188 66.736328125 c 0
 406.116210938 109.326171875 416.15234375 178.834960938 379.55078125 233.090820312 c 0
EndSplineSet
EndChar

StartChar: Ss
Encoding: 55 -1 54
Width: 556
VWidth: 0
Flags: HW
LayerCount: 2
Fore
SplineSet
526.625 -154.888671875 m 2
 528.884765625 -161.666992188 534.663085938 -158.809570312 534.663085938 -150.032226562 c 0
 534.663085938 -148.236328125 534.392578125 -146.565429688 533.928710938 -145.174804688 c 2
 428.666992188 170.614257812 l 2
 426.407226562 177.393554688 420.62890625 174.53515625 420.62890625 165.7578125 c 0
 420.62890625 163.961914062 420.899414062 162.291015625 421.362304688 160.900390625 c 2
 526.625 -154.888671875 l 2
7.9052734375 -42.4619140625 m 0
 5.5107421875 -36.5830078125 -2.552734375 -40.7607421875 0.0185546875 -47.07421875 c 0
 97.7939453125 -287.154296875 436.44921875 -287.14453125 534.220703125 -47.07421875 c 0
 549.346679688 -9.9345703125 556.307617188 27.314453125 556.307617188 63.3134765625 c 0
 556.307617188 220.220703125 424.846679688 350.560546875 269.938476562 350.560546875 c 0
 234.291992188 350.560546875 197.368164062 343.674804688 160.44921875 328.639648438 c 0
 155.329101562 326.553710938 157.665039062 316.387695312 163.266601562 318.668945312 c 0
 199.278320312 333.334960938 235.250976562 340.034179688 269.938476562 340.034179688 c 0
 421.331054688 340.034179688 547.536132812 212.708007812 547.536132812 63.3134765625 c 0
 547.536132812 28.9775390625 540.911132812 -6.6708984375 526.334960938 -42.4619140625 c 0
 431.9140625 -274.305664062 102.329101562 -274.314453125 7.9052734375 -42.4619140625 c 0
EndSplineSet
Ligature2: "liga-1" S s
EndChar

StartChar: glyph55
Encoding: 56 89 55
Width: 238
VWidth: 0
Flags: HW
LayerCount: 2
Fore
SplineSet
43.701171875 -26.16015625 m 0
 33.4306640625 -15.890625 16.7548828125 -15.890625 6.4853515625 -26.16015625 c 0
 -3.78515625 -36.4306640625 -3.78515625 -53.1064453125 6.4853515625 -63.376953125 c 2
 111.749023438 -168.640625 l 2
 122.018554688 -178.91015625 138.6953125 -178.909179688 148.965820312 -168.639648438 c 0
 154.100585938 -163.504882812 156.66796875 -156.767578125 156.66796875 -150.03125 c 2
 156.666992188 7.86328125 l 2
 156.666992188 14.599609375 154.099609375 21.3369140625 148.96484375 26.4716796875 c 0
 138.6953125 36.7412109375 122.018554688 36.7412109375 111.749023438 26.4716796875 c 0
 106.61328125 21.3359375 104.045898438 14.599609375 104.045898438 7.86328125 c 2
 104.046875 -86.5048828125 l 1
 83.931640625 -66.3896484375 63.81640625 -46.275390625 43.701171875 -26.16015625 c 0
239.379882812 271.020507812 m 0
 239.379882812 280.587890625 236.346679688 287.62890625 233.758789062 282.453125 c 2
 23.232421875 -138.599609375 l 2
 22.0986328125 -140.866210938 21.333984375 -145.138671875 21.333984375 -150.032226562 c 0
 21.333984375 -159.598632812 24.3671875 -166.640625 26.955078125 -161.463867188 c 2
 237.481445312 259.587890625 l 2
 238.615234375 261.85546875 239.379882812 266.127929688 239.379882812 271.020507812 c 0
28.853515625 428.916015625 m 2
 28.853515625 436.177734375 27.1689453125 442.07421875 25.09375 442.07421875 c 0
 23.0185546875 442.07421875 21.333984375 436.177734375 21.333984375 428.916015625 c 2
 21.333984375 323.654296875 l 2
 21.333984375 321.243164062 21.5205078125 318.982421875 21.84375 317.038085938 c 2
 74.4755859375 1.248046875 l 2
 75.1279296875 -2.6640625 76.33984375 -5.2939453125 77.7255859375 -5.2939453125 c 0
 80.4755859375 -5.2939453125 82.482421875 5.435546875 80.9755859375 14.4794921875 c 2
 28.853515625 327.2109375 l 1
 28.853515625 428.916015625 l 2
EndSplineSet
EndChar

StartChar: |.alt3
Encoding: 57 -1 56
Width: 156
VWidth: 0
Flags: HW
LayerCount: 2
Fore
SplineSet
96.333984375 447.524414062 m 0
 86.0634765625 457.793945312 69.3876953125 457.793945312 59.1181640625 447.524414062 c 0
 53.23828125 441.64453125 50.724609375 433.665039062 51.5771484375 425.990234375 c 2
 73.6796875 227.069335938 l 1
 51.9287109375 118.317382812 l 2
 51.0302734375 113.827148438 51.310546875 109.147460938 52.767578125 104.775390625 c 2
 105.3984375 -53.119140625 l 2
 111.857421875 -72.4951171875 135.93359375 -76.408203125 148.96484375 -63.376953125 c 0
 154.844726562 -57.4970703125 157.358398438 -49.517578125 156.505859375 -41.8427734375 c 2
 126.884765625 224.745117188 l 1
 156.155273438 371.092773438 l 2
 157.823242188 379.434570312 155.426757812 388.431640625 148.965820312 394.892578125 c 0
 137.78515625 406.073242188 118.19921875 405.533203125 108.4296875 390.841796875 c 1
 103.874023438 431.841796875 l 2
 103.237304688 437.573242188 100.724609375 443.133789062 96.333984375 447.524414062 c 0
148.965820312 447.524414062 m 0
 134.787109375 461.703125 108.766601562 455.134765625 104.560546875 434.107421875 c 2
 -0.7041015625 -92.2099609375 l 2
 -2.3720703125 -100.55078125 0.0234375 -109.547851562 6.4853515625 -116.008789062 c 0
 20.6630859375 -130.1875 46.6845703125 -123.619140625 50.8896484375 -102.591796875 c 2
 156.155273438 423.725585938 l 2
 157.823242188 432.06640625 155.426757812 441.063476562 148.965820312 447.524414062 c 0
148.965820312 236.998046875 m 0
 135.240234375 250.723632812 109.939453125 245.220703125 104.8359375 224.8046875 c 2
 -0.427734375 -196.249023438 l 2
 -2.5966796875 -204.924804688 -0.2919921875 -214.493164062 6.4853515625 -221.271484375 c 0
 20.2119140625 -234.997070312 45.51171875 -229.494140625 50.6162109375 -209.078125 c 2
 155.879882812 211.975585938 l 2
 158.048828125 220.651367188 155.744140625 230.219726562 148.965820312 236.998046875 c 0
EndSplineSet
EndChar

StartChar: |.alt4
Encoding: 58 -1 57
Width: 58
VWidth: 0
Flags: HW
LayerCount: 2
Fore
SplineSet
-0.2822265625 -202.663085938 m 2
 -0.2822265625 -206.427734375 5.5654296875 -206.447265625 5.5654296875 -202.663085938 c 2
 5.5654296875 320.729492188 l 1
 55.2734375 320.729492188 l 2
 59.0380859375 320.729492188 59.0576171875 326.578125 55.2734375 326.578125 c 2
 2.6416015625 326.578125 l 2
 1.02734375 326.578125 -0.2822265625 325.267578125 -0.2822265625 323.654296875 c 2
 -0.2822265625 -202.663085938 l 2
EndSplineSet
EndChar

StartChar: ".alt10"
Encoding: 59 -1 58
Width: 420
VWidth: 0
Flags: HW
LayerCount: 2
Fore
SplineSet
207.602539062 -202.663085938 m 2
 207.602539062 -206.427734375 213.451171875 -206.447265625 213.451171875 -202.663085938 c 2
 213.451171875 323.654296875 l 2
 213.451171875 327.418945312 207.602539062 327.438476562 207.602539062 323.654296875 c 2
 207.602539062 -202.663085938 l 2
EndSplineSet
EndChar

StartChar: Y.alt1
Encoding: 61 -1 59
Width: 403
VWidth: 0
Flags: HW
LayerCount: 2
Fore
SplineSet
334.397460938 199.78125 m 0
 348.124023438 213.506835938 342.620117188 238.807617188 322.204101562 243.911132812 c 2
 111.677734375 296.54296875 l 2
 97.46484375 300.096679688 81.1787109375 290.475585938 79.158203125 274.307617188 c 2
 26.525390625 -146.744140625 l 2
 25.552734375 -154.529296875 28.0517578125 -162.666992188 34.0234375 -168.638671875 c 0
 44.9111328125 -179.526367188 63.5830078125 -179.29296875 73.703125 -165.80078125 c 2
 231.596679688 44.7255859375 l 2
 239.325195312 55.0302734375 238.50390625 69.7333984375 229.133789062 79.103515625 c 0
 218.24609375 89.9912109375 199.57421875 89.7578125 189.455078125 76.265625 c 2
 91.0322265625 -54.9658203125 l 1
 127.689453125 238.2890625 l 1
 309.375 192.8671875 l 2
 318.05078125 190.698242188 327.620117188 193.002929688 334.397460938 199.78125 c 0
377.16796875 60.24609375 m 2
 377.16796875 62.220703125 373.706054688 63.7841796875 368.420898438 63.7841796875 c 0
 363.802734375 63.7841796875 360.013671875 62.443359375 359.673828125 60.744140625 c 2
 312.399414062 -175.626953125 l 1
 61.2783203125 376.83984375 l 2
 60.5732421875 378.390625 56.9677734375 379.573242188 52.6318359375 379.573242188 c 0
 47.4833984375 379.573242188 43.1181640625 377.889648438 43.95703125 375.79296875 c 2
 254.484375 -150.522460938 l 2
 255.1171875 -152.10546875 258.762695312 -153.3203125 263.159179688 -153.3203125 c 0
 268.307617188 -153.3203125 272.671875 -151.63671875 271.833007812 -149.540039062 c 2
 191.827148438 50.4736328125 l 1
 307.142578125 -203.21875 l 2
 308.798828125 -206.864257812 323.7734375 -206.727539062 324.536132812 -202.912109375 c 2
 377.16796875 60.24609375 l 2
EndSplineSet
EndChar

StartChar: ".alt11"
Encoding: 62 -1 60
Width: 631
VWidth: 0
Flags: HW
LayerCount: 2
Fore
SplineSet
460.657226562 410.307617188 m 0
 473.974609375 423.625976562 469.401367188 448.22265625 449.599609375 454.126953125 c 0
 301.017578125 498.4296875 182.517578125 462.104492188 105.076171875 384.663085938 c 0
 29.3173828125 308.904296875 -5.998046875 197.25 -0.1904296875 89.9560546875 c 0
 4.4599609375 4.0234375 35.6845703125 -80.5341796875 97.21484375 -142.064453125 c 0
 163.380859375 -208.23046875 262.924804688 -244.877929688 392.680664062 -228.772460938 c 0
 458.333984375 -220.623046875 512.041015625 -192.723632812 551.513671875 -153.251953125 c 0
 653.368164062 -51.396484375 660.08203125 125.357421875 553.901367188 231.538085938 c 0
 526.692382812 258.747070312 492.301757812 280.938476562 450.970703125 295.782226562 c 0
 441.678710938 299.120117188 430.879882812 297.069335938 423.440429688 289.629882812 c 0
 410.606445312 276.795898438 414.081054688 253.102539062 433.126953125 246.26171875 c 0
 467.526367188 233.907226562 495.1328125 215.875 516.685546875 194.321289062 c 0
 601.012695312 109.995117188 596.229492188 -34.1025390625 514.296875 -116.03515625 c 0
 483.053710938 -147.279296875 440.537109375 -169.803710938 386.153320312 -176.5546875 c 0
 269.708007812 -191.008789062 188.208007812 -158.625976562 134.430664062 -104.848632812 c 0
 83.9287109375 -54.3466796875 56.4267578125 17.546875 52.3525390625 92.8212890625 c 0
 47.25390625 187.033203125 79.1591796875 284.314453125 142.29296875 347.447265625 c 0
 205.66796875 410.822265625 301.65234375 443.315429688 434.498046875 403.705078125 c 0
 443.465820312 401.03125 453.581054688 403.232421875 460.657226562 410.307617188 c 0
439.416992188 -150.032226562 m 2
 439.416992188 -157.293945312 440.596679688 -163.189453125 442.048828125 -163.189453125 c 0
 443.500976562 -163.189453125 444.680664062 -157.293945312 444.680664062 -150.032226562 c 2
 444.680664062 323.654296875 l 2
 444.680664062 330.916015625 443.500976562 336.811523438 442.048828125 336.811523438 c 0
 440.596679688 336.811523438 439.416992188 330.916015625 439.416992188 323.654296875 c 2
 439.416992188 -150.032226562 l 2
EndSplineSet
EndChar

StartChar: glyph61
Encoding: 63 75 61
Width: 322
VWidth: 0
Flags: HW
LayerCount: 2
Fore
SplineSet
105.333984375 169.041992188 m 2
 102.666015625 163.705078125 107.840820312 157.206054688 110.473632812 162.473632812 c 2
 215.73828125 373 l 2
 218.295898438 378.116210938 213.536132812 384.727539062 210.740234375 379.833984375 c 2
 8.626953125 26.1357421875 l 1
 58.48046875 375.108398438 l 2
 59.45703125 381.944335938 52.9912109375 383.93359375 52.06640625 377.459960938 c 2
 -0.5654296875 9.0390625 l 2
 -1.3212890625 3.7470703125 2.857421875 0.4423828125 5.0693359375 4.314453125 c 2
 148.276367188 254.92578125 l 1
 105.333984375 169.041992188 l 2
317.630859375 -209.046875 m 2
 321.869140625 -211.165039062 323.27734375 -198.303710938 319.229492188 -196.280273438 c 2
 215.364257812 -144.34765625 l 1
 58.1630859375 432.059570312 l 2
 56.2041015625 439.241210938 50.2802734375 433.483398438 52.3837890625 425.772460938 c 2
 210.278320312 -153.174804688 l 2
 210.712890625 -154.768554688 211.466796875 -155.963867188 212.368164062 -156.415039062 c 2
 317.630859375 -209.046875 l 2
160.536132812 326.943359375 m 2
 157.1484375 326.943359375 157.130859375 320.364257812 160.536132812 320.364257812 c 2
 213.16796875 320.364257812 l 2
 215.94140625 320.364257812 216.665039062 325.05078125 214.404296875 326.55859375 c 2
 56.5087890625 431.8203125 l 2
 53.447265625 433.861328125 51.0869140625 427.978515625 54.0380859375 426.01171875 c 2
 202.641601562 326.943359375 l 1
 160.536132812 326.943359375 l 2
EndSplineSet
EndChar

StartChar: GD
Encoding: 64 -1 62
Width: 103
VWidth: 0
Flags: HW
LayerCount: 2
Fore
SplineSet
6.4853515625 -26.16015625 m 0
 -3.78515625 -36.4306640625 -3.78515625 -53.1064453125 6.4853515625 -63.376953125 c 0
 11.6201171875 -68.51171875 18.3564453125 -71.0791015625 25.0927734375 -71.0791015625 c 2
 77.724609375 -71.0791015625 l 2
 84.4609375 -71.0791015625 91.1982421875 -68.51171875 96.3330078125 -63.376953125 c 0
 106.603515625 -53.1064453125 106.603515625 -36.4306640625 96.3330078125 -26.16015625 c 0
 91.1982421875 -21.025390625 84.4609375 -18.4580078125 77.724609375 -18.4580078125 c 2
 25.0927734375 -18.4580078125 l 2
 18.3564453125 -18.4580078125 11.6201171875 -21.025390625 6.4853515625 -26.16015625 c 0
EndSplineSet
Ligature2: "liga-1" G D
EndChar

StartChar: \.alt3
Encoding: 65 -1 63
Width: 166
VWidth: 0
Flags: HW
LayerCount: 2
Fore
SplineSet
6.0869140625 229.899414062 m 2
 3.0654296875 234.935546875 -0.423828125 227.8828125 -0.423828125 218.388671875 c 0
 -0.423828125 213.439453125 0.48828125 209.125 1.8359375 206.87890625 c 2
 159.731445312 -56.2783203125 l 2
 162.752929688 -61.314453125 166.2421875 -54.26171875 166.2421875 -44.7685546875 c 0
 166.2421875 -39.8193359375 165.329101562 -35.50390625 163.981445312 -33.2578125 c 2
 6.0869140625 229.899414062 l 2
EndSplineSet
EndChar

StartChar: glyph64
Encoding: 66 45 64
Width: 201
VWidth: 0
Flags: HW
LayerCount: 2
Fore
SplineSet
120.829101562 -150.032226562 m 2
 120.829101562 -154.873046875 122.139648438 -158.803710938 123.752929688 -158.803710938 c 0
 125.3671875 -158.803710938 126.676757812 -154.873046875 126.676757812 -150.032226562 c 2
 126.676757812 113.126953125 l 2
 126.676757812 117.96875 125.3671875 121.8984375 123.752929688 121.8984375 c 0
 122.139648438 121.8984375 120.829101562 117.96875 120.829101562 113.126953125 c 2
 120.829101562 -150.032226562 l 2
179.30859375 7.86328125 m 0
 179.30859375 12.689453125 178.006835938 16.6103515625 176.400390625 16.6357421875 c 0
 117.403320312 17.5458984375 70.6171875 44.8154296875 40.9931640625 83.494140625 c 0
 17.0283203125 114.787109375 5.3427734375 152.391601562 5.3427734375 185.862304688 c 0
 5.3427734375 199.982421875 7.306640625 214.702148438 11.859375 229.854492188 c 0
 13.4443359375 235.129882812 15.33984375 240.41015625 17.5546875 245.663085938 c 1
 19.771484375 232.297851562 23.701171875 221.193359375 28.6357421875 212.295898438 c 0
 44.1552734375 184.318359375 71.0634765625 173.30078125 99.046875 173.30078125 c 0
 125.928710938 173.30078125 153.846679688 183.790039062 173.651367188 201.983398438 c 0
 182.458984375 210.07421875 189.708007812 219.623046875 194.680664062 231.280273438 c 0
 198.616210938 240.5078125 201.412109375 251.922851562 201.412109375 265.595703125 c 0
 201.412109375 289.999023438 193.094726562 310.952148438 177.571289062 331.672851562 c 0
 165.603515625 347.64453125 148.55859375 354.25390625 130.205078125 354.25390625 c 0
 110.143554688 354.25390625 88.5087890625 346.178710938 70.390625 332.1484375 c 0
 48.9931640625 315.578125 32.71484375 296.180664062 21.15234375 274.653320312 c 1
 19.9443359375 282.59765625 15.56640625 280.6328125 15.56640625 271.0078125 c 0
 15.5673828125 268.493164062 15.62109375 266.03515625 15.724609375 263.6328125 c 0
 12.51171875 256.487304688 9.779296875 249.1328125 7.5146484375 241.592773438 c 0
 2.25390625 224.083984375 -0.505859375 205.197265625 -0.505859375 185.862304688 c 0
 -0.505859375 151.40625 8.017578125 119.767578125 22.25390625 92.9755859375 c 0
 50.869140625 39.123046875 104.888671875 0.1953125 176.384765625 -0.908203125 c 0
 177.999023438 -0.908203125 179.30859375 3.0224609375 179.30859375 7.86328125 c 0
EndSplineSet
EndChar

StartChar: d.alt1
Encoding: 67 -1 65
Width: 287
VWidth: 0
Flags: HW
LayerCount: 2
Fore
SplineSet
106.559570312 167.98828125 m 0
 100.11328125 165.494140625 106.75390625 161.999023438 117.150390625 161.999023438 c 0
 121.490234375 161.999023438 125.34375 162.600585938 127.740234375 163.52734375 c 0
 135.036132812 166.349609375 140.600585938 166.911132812 143.465820312 166.911132812 c 0
 146.330078125 166.911132812 151.895507812 166.349609375 159.192382812 163.52734375 c 0
 222.48046875 139.049804688 249.1484375 94.05859375 249.1484375 47.75 c 0
 249.1484375 6.28125 228.202148438 -36.068359375 197.047851562 -65.177734375 c 0
 183.212890625 -78.10546875 167.254882812 -88.384765625 151.337890625 -94.619140625 c 0
 138.329101562 -99.71484375 126.772460938 -101.555664062 118.385742188 -101.555664062 c 0
 109.6953125 -101.555664062 96.6611328125 -99.580078125 81.3603515625 -92.3447265625 c 0
 62.982421875 -83.6533203125 43.7138671875 -68.373046875 25.8291015625 -45.3740234375 c 1
 128.583007812 6.001953125 l 2
 133.752929688 8.5869140625 126.721679688 11.623046875 117.150390625 11.623046875 c 0
 112.256835938 11.623046875 107.984375 10.8583984375 105.717773438 9.724609375 c 2
 0.4541015625 -42.9072265625 l 2
 -1.0439453125 -43.65625 -1.72265625 -44.5869140625 -0.96875 -45.5732421875 c 0
 17.53515625 -69.771484375 37.384765625 -86.087890625 58.8193359375 -96.224609375 c 0
 75.666015625 -104.19140625 95.201171875 -109.075195312 118.385742188 -109.075195312 c 0
 139.981445312 -109.075195312 157.791992188 -104.848632812 172.611328125 -99.0439453125 c 0
 191.478515625 -91.6533203125 207.897460938 -80.7578125 222.21875 -67.376953125 c 0
 254.41796875 -37.291015625 275.46484375 5.5478515625 275.46484375 47.75 c 0
 275.46484375 94.693359375 249.970703125 141.069335938 180.372070312 167.98828125 c 0
 170.734375 171.715820312 158.450195312 174.4296875 143.465820312 174.4296875 c 0
 128.48046875 174.4296875 116.196289062 171.715820312 106.559570312 167.98828125 c 0
275.044921875 380.043945312 m 0
 268.26171875 380.043945312 262.669921875 378.573242188 261.962890625 376.688476562 c 2
 104.067382812 -44.3642578125 l 2
 103.196289062 -46.685546875 109.5703125 -48.5283203125 117.150390625 -48.5283203125 c 0
 123.93359375 -48.5283203125 129.525390625 -47.0576171875 130.232421875 -45.1728515625 c 2
 261.887695312 305.905273438 l 1
 261.887695312 218.389648438 l 2
 261.887695312 216.314453125 267.783203125 214.630859375 275.044921875 214.630859375 c 0
 282.307617188 214.630859375 288.203125 216.314453125 288.203125 218.389648438 c 2
 288.203125 376.284179688 l 2
 288.203125 378.359375 282.307617188 380.043945312 275.044921875 380.043945312 c 0
EndSplineSet
EndChar

StartChar: 7.alt3
Encoding: 68 -1 66
Width: 319
VWidth: 0
Flags: HW
LayerCount: 2
Fore
SplineSet
103.952148438 113.126953125 m 0
 103.952148438 105.672851562 105.1953125 99.4765625 106.76171875 99.998046875 c 2
 264.655273438 152.62890625 l 2
 266.025390625 153.0859375 267.110351562 158.79296875 267.110351562 165.7578125 c 0
 267.110351562 173.211914062 265.8671875 179.408203125 264.30078125 178.885742188 c 2
 106.40625 126.255859375 l 2
 105.037109375 125.798828125 103.952148438 120.090820312 103.952148438 113.126953125 c 0
-1.3115234375 -150.032226562 m 0
 -1.3115234375 -158.470703125 0.3408203125 -165.537109375 2.15234375 -162.517578125 c 2
 317.942382812 363.797851562 l 2
 318.987304688 365.540039062 319.7421875 370.475585938 319.7421875 376.284179688 c 0
 319.7421875 384.724609375 318.08984375 391.788085938 316.278320312 388.76953125 c 2
 0.48828125 -137.545898438 l 2
 -0.556640625 -139.288085938 -1.3115234375 -144.22265625 -1.3115234375 -150.032226562 c 0
EndSplineSet
EndChar

StartChar: ".alt12"
Encoding: 69 -1 67
Width: 332
VWidth: 0
Flags: HW
LayerCount: 2
Fore
SplineSet
109.833984375 -180.315429688 m 0
 94.1044921875 -164.586914062 82.2060546875 -144.668945312 77.0888671875 -121.795898438 c 0
 70.642578125 -92.9814453125 75.7548828125 -60.6611328125 94.962890625 -30.6083984375 c 0
 100.822265625 -21.439453125 107.331054688 -13.3017578125 114.431640625 -6.201171875 c 0
 168.373046875 47.740234375 244.168945312 31.548828125 286.095703125 -10.3779296875 c 0
 331.4140625 -55.6962890625 332.180664062 -117.607421875 296.3828125 -165.4453125 c 0
 291.586914062 -172.296875 286.385742188 -178.513671875 280.810546875 -184.088867188 c 0
 227.528320312 -237.37109375 151.85546875 -222.337890625 109.833984375 -180.315429688 c 0
188.388671875 -131.422851562 m 0
 190.587890625 -133.62109375 192.399414062 -136.361328125 194.53515625 -138.497070312 c 0
 210.78515625 -154.748046875 238.899414062 -154.254882812 254.016601562 -134.204101562 c 0
 268.645507812 -114.793945312 271.16015625 -97.5078125 268.10546875 -82.1806640625 c 0
 265.612304688 -69.6728515625 258.778320312 -57.4931640625 248.879882812 -47.59375 c 0
 222.204101562 -20.9189453125 180.735351562 -14.330078125 151.647460938 -43.41796875 c 0
 147.451171875 -47.6142578125 143.295898438 -52.732421875 139.3359375 -58.9287109375 c 0
 126.897460938 -78.3896484375 125.10546875 -95.3603515625 128.434570312 -110.243164062 c 0
 130.940429688 -121.443359375 136.791992188 -132.106445312 145.051757812 -141.0234375 c 1
 151.940429688 -122.049804688 175.580078125 -118.61328125 188.388671875 -131.422851562 c 0
69.7177734375 376.794921875 m 2
 68.7041015625 380.850585938 58.234375 380.110351562 59.318359375 375.772460938 c 2
 164.58203125 -45.279296875 l 2
 165.404296875 -48.5703125 172.889648438 -48.958984375 174.711914062 -45.921875 c 2
 332.60546875 217.236328125 l 2
 335.06640625 221.337890625 325.079101562 223.432617188 322.74609375 219.543945312 c 2
 171.888671875 -31.88671875 l 1
 69.7177734375 376.794921875 l 2
11.88671875 275.407226562 m 0
 1.8603515625 275.407226562 -5.0166015625 271.56640625 0.9306640625 268.592773438 c 2
 211.458007812 163.330078125 l 2
 213.817382812 162.150390625 217.844726562 161.373046875 222.413085938 161.373046875 c 0
 232.439453125 161.373046875 239.317382812 165.213867188 233.369140625 168.1875 c 2
 22.8427734375 273.450195312 l 2
 20.4833984375 274.629882812 16.455078125 275.407226562 11.88671875 275.407226562 c 0
EndSplineSet
EndChar

StartChar: glyph68
Encoding: 70 85 68
Width: 330
VWidth: 0
Flags: HW
LayerCount: 2
Fore
SplineSet
11.640625 114.2578125 m 2
 9.541015625 119.5078125 -3.3515625 117.686523438 -1.07421875 111.995117188 c 2
 104.188476562 -151.163085938 l 2
 106.2890625 -156.412109375 119.180664062 -154.590820312 116.904296875 -148.899414062 c 2
 11.640625 114.2578125 l 2
11.8583984375 -44.625 m 0
 11.587890625 -39.025390625 -1.568359375 -39.1923828125 -1.29296875 -44.9111328125 c 0
 1.501953125 -102.80078125 47.8251953125 -151.400390625 110.065429688 -154.405273438 c 0
 115.82421875 -154.68359375 121.467773438 -154.821289062 126.997070312 -154.821289062 c 0
 272.802734375 -154.821289062 331.46875 -60.3544921875 331.46875 36.7001953125 c 0
 331.46875 110.866210938 297.9765625 188.533203125 240.138671875 232.776367188 c 0
 211.182617188 254.92578125 175.614257812 268.88671875 134.985351562 268.88671875 c 0
 93.43359375 268.88671875 48.1435546875 254.3359375 0.5478515625 221.43359375 c 0
 -0.75390625 220.534179688 -1.53515625 219.29296875 -1.23828125 217.805664062 c 2
 51.3935546875 -45.3525390625 l 2
 52.482421875 -50.7958984375 65.591796875 -49.966796875 64.435546875 -44.18359375 c 2
 12.2265625 216.860351562 l 1
 57.51171875 247.65625 98.880859375 260.115234375 134.985351562 260.115234375 c 0
 170.79296875 260.115234375 202.904296875 247.909179688 230.216796875 227.017578125 c 0
 284.9140625 185.177734375 318.310546875 109.264648438 318.310546875 36.7001953125 c 0
 318.310546875 -59.30859375 261.176757812 -146.048828125 126.997070312 -146.048828125 c 0
 121.80078125 -146.048828125 116.477539062 -145.919921875 111.02734375 -145.657226562 c 0
 59.3525390625 -143.161132812 14.5634765625 -100.647460938 11.8583984375 -44.625 c 0
EndSplineSet
EndChar

StartChar: YO
Encoding: 71 -1 69
Width: 340
VWidth: 0
Flags: HW
LayerCount: 2
Fore
SplineSet
339.452148438 426.958984375 m 2
 344.01953125 430.00390625 336.890625 433.301757812 327.67578125 433.301757812 c 0
 322.5234375 433.301757812 318.05859375 432.3125 315.899414062 430.873046875 c 2
 0.1103515625 220.346679688 l 2
 -4.45703125 217.301757812 2.671875 214.00390625 11.88671875 214.00390625 c 0
 17.0390625 214.00390625 21.50390625 214.993164062 23.6630859375 216.432617188 c 2
 339.452148438 426.958984375 l 2
EndSplineSet
Ligature2: "liga-1" Y O
EndChar

StartChar: (.alt1
Encoding: 72 -1 70
Width: 414
VWidth: 0
Flags: HW
LayerCount: 2
Fore
SplineSet
248.01953125 -63.376953125 m 0
 258.290039062 -53.1064453125 258.290039062 -36.4306640625 248.01953125 -26.16015625 c 0
 243.274414062 -21.4150390625 237.162109375 -18.8623046875 230.9453125 -18.501953125 c 0
 177.997070312 -15.4345703125 137.259765625 4.8671875 107.866210938 34.259765625 c 0
 36.9365234375 105.190429688 32.1904296875 231.155273438 105.067382812 304.032226562 c 0
 125.139648438 324.104492188 151.376953125 340.637695312 184.752929688 351.203125 c 0
 237.135742188 367.786132812 292.233398438 352.565429688 328.801757812 315.99609375 c 0
 343.43359375 301.364257812 355.138671875 283.247070312 362.477539062 262.294921875 c 0
 369.18359375 243.147460938 393.01171875 239.510742188 405.915039062 252.4140625 c 0
 413.301757812 259.80078125 415.375 270.501953125 412.135742188 279.749023438 c 0
 402.15625 308.240234375 386.17578125 333.0546875 366.018554688 353.211914062 c 0
 316.052734375 403.177734375 240.661132812 424.112304688 168.80859375 401.365234375 c 0
 127.8671875 388.404296875 94.1005859375 367.498046875 67.8515625 341.249023438 c 0
 -27.1357421875 246.26171875 -20.0361328125 87.73046875 70.650390625 -2.9560546875 c 0
 109.065429688 -41.37109375 162.500976562 -67.2470703125 227.877929688 -71.03515625 c 0
 235.116210938 -71.4541015625 242.495117188 -68.9013671875 248.01953125 -63.376953125 c 0
389.166992188 51.193359375 m 2
 390.77734375 59.24609375 389.619140625 73.6533203125 387.306640625 73.6533203125 c 0
 386.580078125 73.6533203125 385.922851562 72.1787109375 385.446289062 69.7978515625 c 2
 333.5859375 -189.505859375 l 1
 126.780273438 -189.505859375 l 1
 126.780273438 376.284179688 l 2
 126.780273438 383.546875 125.600585938 389.442382812 124.1484375 389.442382812 c 0
 122.696289062 389.442382812 121.516601562 383.546875 121.516601562 376.284179688 c 2
 121.516601562 -202.663085938 l 2
 121.516601562 -209.92578125 122.696289062 -215.821289062 124.1484375 -215.821289062 c 2
 334.674804688 -215.821289062 l 2
 335.401367188 -215.821289062 336.05859375 -214.34765625 336.53515625 -211.965820312 c 2
 389.166992188 51.193359375 l 2
EndSplineSet
EndChar

StartChar: glyph71
Encoding: 73 74 71
Width: 346
VWidth: 0
Flags: HW
LayerCount: 2
Fore
SplineSet
339.680664062 447.524414062 m 0
 329.411132812 457.793945312 312.735351562 457.793945312 302.46484375 447.524414062 c 0
 297.330078125 442.388671875 294.762695312 435.65234375 294.762695312 428.916015625 c 2
 294.76171875 165.7578125 l 2
 294.76171875 159.020507812 297.329101562 152.284179688 302.463867188 147.149414062 c 0
 312.734375 136.87890625 329.41015625 136.87890625 339.680664062 147.149414062 c 0
 344.815429688 152.284179688 347.3828125 159.020507812 347.3828125 165.756835938 c 2
 347.383789062 428.916015625 l 2
 347.383789062 435.65234375 344.81640625 442.388671875 339.680664062 447.524414062 c 0
8.6611328125 116.890625 m 2
 1.2353515625 119.860351562 -5.2578125 112.228515625 1.9052734375 109.36328125 c 2
 265.0625 4.099609375 l 2
 269.359375 2.380859375 274.486328125 4.41796875 274.978515625 7.3740234375 c 2
 327.610351562 323.1640625 l 2
 328.383789062 327.805664062 319.216796875 329.704101562 315.59375 326.08203125 c 2
 157.700195312 168.1875 l 2
 152.935546875 163.421875 163.978515625 158.653320312 168.65625 163.330078125 c 2
 311.546875 306.221679688 l 1
 263.033203125 15.140625 l 1
 8.6611328125 116.890625 l 2
EndSplineSet
EndChar

StartChar: \.alt4
Encoding: 74 -1 72
Width: 631
VWidth: 0
Flags: HW
LayerCount: 2
Fore
SplineSet
364.91015625 269.05078125 m 2
 368.22265625 265.73828125 375.396484375 269.52734375 371.931640625 272.9921875 c 2
 266.669921875 378.255859375 l 2
 263.356445312 381.568359375 256.182617188 377.778320312 259.647460938 374.313476562 c 2
 364.91015625 269.05078125 l 2
EndSplineSet
EndChar

StartChar: AY
Encoding: 75 -1 73
Width: 507
VWidth: 0
Flags: HW
LayerCount: 2
Fore
SplineSet
53.5625 275.87890625 m 2
 47.6240234375 269.939453125 54.484375 262.25 64.5185546875 262.25 c 0
 69.0869140625 262.25 73.115234375 263.805664062 75.474609375 266.165039062 c 2
 96.54296875 287.233398438 l 1
 368.376953125 -101.1015625 l 2
 370.47265625 -104.094726562 375.029296875 -106.171875 380.307617188 -106.171875 c 0
 388.208984375 -106.171875 394.938476562 -101.434570312 393.209960938 -95.6728515625 c 2
 235.31640625 430.643554688 l 2
 233.077148438 438.10546875 217.80859375 440.124023438 211.458007812 433.7734375 c 2
 100.60546875 322.920898438 l 1
 23.8173828125 432.618164062 l 2
 21.7216796875 435.611328125 17.1650390625 437.688476562 11.88671875 437.688476562 c 0
 2.833984375 437.688476562 -4.3154296875 431.31640625 -0.0439453125 425.21484375 c 2
 83.5205078125 305.836914062 l 1
 53.5625 275.87890625 l 2
283.487304688 311.481445312 m 0
 366.002929688 311.481445312 447.9375 267.994140625 488.32421875 166.645507812 c 0
 501.9765625 132.384765625 508.118164062 99.951171875 508.118164062 69.8203125 c 0
 508.118164062 -64.0791015625 386.919921875 -151.55859375 268.626953125 -151.55859375 c 0
 181.314453125 -151.55859375 95.7265625 -103.7734375 61.7138671875 7.1162109375 c 0
 51.416015625 36.3984375 46.7216796875 64.35546875 46.7216796875 90.6259765625 c 0
 46.7216796875 222.823242188 165.51171875 311.481445312 283.487304688 311.481445312 c 0
61.13671875 49.8740234375 m 0
 61.13671875 36.1162109375 63.15625 22.203125 67.3369140625 8.564453125 c 0
 100.72265625 -100.342773438 183.909179688 -146.295898438 268.626953125 -146.295898438 c 0
 383.900390625 -146.295898438 502.270507812 -60.982421875 502.270507812 69.8203125 c 0
 502.270507812 99.294921875 496.263671875 131.126953125 482.817382812 164.870117188 c 0
 443.163085938 264.381835938 363.518554688 306.21875 283.487304688 306.21875 c 0
 158.158203125 306.21875 32.0537109375 203.390625 55.388671875 55.2744140625 c 1
 57.0146484375 99.0595703125 78.365234375 140.874023438 115.311523438 167.803710938 c 0
 118.26171875 169.954101562 121.900390625 165.833984375 118.98828125 163.711914062 c 0
 82.0546875 136.791992188 61.13671875 94.1416015625 61.13671875 49.8740234375 c 0
EndSplineSet
Ligature2: "liga-1" A Y
EndChar

StartChar: \.alt5
Encoding: 76 -1 74
Width: 578
VWidth: 0
Flags: HW
LayerCount: 2
Fore
SplineSet
106.6796875 328.2578125 m 2
 103.311523438 331.625976562 100.598632812 322.296875 103.845703125 319.049804688 c 2
 261.741210938 161.153320312 l 2
 265.110351562 157.78515625 267.822265625 167.114257812 264.575195312 170.361328125 c 2
 106.6796875 328.2578125 l 2
525.0234375 -207.385742188 m 2
 528.48828125 -210.465820312 530.938476562 -200.90234375 527.607421875 -197.94140625 c 2
 53.923828125 223.111328125 l 2
 50.458984375 226.19140625 48.0087890625 216.627929688 51.33984375 213.666992188 c 2
 525.0234375 -207.385742188 l 2
78.9462890625 -202.663085938 m 0
 78.9462890625 -218.060546875 92.314453125 -231.098632812 109.010742188 -228.713867188 c 2
 477.432617188 -176.08203125 l 2
 490.18359375 -174.260742188 500 -163.283203125 500 -150.032226562 c 0
 500 -134.634765625 486.631835938 -121.596679688 469.936523438 -123.981445312 c 2
 101.513671875 -176.61328125 l 2
 88.7626953125 -178.434570312 78.9462890625 -189.412109375 78.9462890625 -202.663085938 c 0
EndSplineSet
EndChar

StartChar: glyph75
Encoding: 77 67 75
Width: 304
VWidth: 0
Flags: HW
LayerCount: 2
Fore
SplineSet
106.811523438 139.575195312 m 1
 80.33984375 133.385742188 55.84765625 120.147460938 38.3115234375 102.612304688 c 0
 -14.017578125 50.2822265625 -13.5302734375 -37.0244140625 37.4501953125 -88.0048828125 c 0
 54.544921875 -105.099609375 77.1494140625 -117.670898438 104.130859375 -123.176757812 c 0
 119.704101562 -126.35546875 134.575195312 -127.693359375 148.64453125 -127.381835938 c 1
 132.91015625 -136.706054688 131.970703125 -157.163085938 143.446289062 -168.638671875 c 0
 149.55859375 -174.750976562 157.939453125 -177.225585938 165.889648438 -176.0625 c 0
 205.130859375 -170.3203125 236.7734375 -154.283203125 259.677734375 -131.37890625 c 0
 304.404296875 -86.6513671875 311.03125 -21.4677734375 296.805664062 28.5615234375 c 0
 296.997070312 35.322265625 296.831054688 42.078125 296.31640625 48.78125 c 0
 293.342773438 87.490234375 278.59765625 125.888671875 250.158203125 154.328125 c 0
 216.716796875 187.76953125 165.955078125 204.150390625 104.130859375 191.534179688 c 0
 83.1826171875 187.258789062 76.6630859375 161.30078125 90.814453125 147.149414062 c 0
 95.28515625 142.678710938 100.969726562 140.154296875 106.811523438 139.575195312 c 1
EndSplineSet
EndChar

StartChar: glyph76
Encoding: 78 39 76
Width: 156
VWidth: 0
Flags: HW
LayerCount: 2
Fore
SplineSet
148.965820312 184.366210938 m 0
 138.6953125 194.63671875 122.01953125 194.63671875 111.75 184.366210938 c 0
 107.294921875 179.912109375 104.7734375 174.252929688 104.182617188 168.43359375 c 1
 102.845703125 173.780273438 101.0703125 179.629882812 96.333984375 184.366210938 c 0
 86.0634765625 194.63671875 69.3876953125 194.63671875 59.1181640625 184.366210938 c 0
 52.33984375 177.587890625 50.03515625 168.01953125 52.2041015625 159.34375 c 2
 104.834960938 -51.1826171875 l 2
 109.932617188 -71.57421875 135.231445312 -77.1103515625 148.96484375 -63.376953125 c 0
 154.099609375 -58.2412109375 156.666992188 -51.5048828125 156.666992188 -44.7685546875 c 2
 156.66796875 165.7578125 l 2
 156.66796875 172.495117188 154.100585938 179.231445312 148.965820312 184.366210938 c 0
106.818359375 -214.440429688 m 2
 115.353515625 -231.509765625 137.03125 -233.206054688 148.965820312 -221.271484375 c 0
 156.638671875 -213.598632812 158.579101562 -202.349609375 154.786132812 -192.868164062 c 2
 84.6494140625 -17.525390625 l 1
 104.7734375 -12.064453125 109.880859375 12.923828125 96.3330078125 26.4716796875 c 2
 43.7021484375 79.1025390625 l 2
 33.431640625 89.373046875 16.755859375 89.373046875 6.4853515625 79.1025390625 c 0
 -1.1875 71.4296875 -3.1279296875 60.1806640625 0.6650390625 50.6982421875 c 2
 54.7607421875 -84.5390625 l 1
 50.4990234375 -92.1435546875 50.3076171875 -101.421875 54.185546875 -109.177734375 c 2
 106.818359375 -214.440429688 l 2
50.0517578125 174.108398438 m 2
 43.59375 193.485351562 19.517578125 197.397460938 6.4853515625 184.366210938 c 0
 -0.80078125 177.079101562 -2.91796875 166.568359375 0.1357421875 157.407226562 c 2
 51.4140625 3.5703125 l 1
 51.4140625 -97.400390625 l 2
 51.4140625 -104.13671875 53.9814453125 -110.873046875 59.1171875 -116.008789062 c 0
 69.38671875 -126.278320312 86.0625 -126.278320312 96.3330078125 -116.008789062 c 0
 101.467773438 -110.873046875 104.03515625 -104.13671875 104.03515625 -97.400390625 c 2
 104.03515625 7.86328125 l 2
 104.03515625 10.6865234375 103.584960938 13.5087890625 102.682617188 16.2138671875 c 2
 50.0517578125 174.108398438 l 2
EndSplineSet
EndChar

StartChar: glyph77
Encoding: 79 81 77
Width: 548
VWidth: 0
Flags: HW
LayerCount: 2
Fore
SplineSet
387.7890625 89.5869140625 m 2
 404.858398438 98.1220703125 406.5546875 119.799804688 394.620117188 131.734375 c 0
 386.405273438 139.94921875 374.090820312 141.59375 364.235351562 136.666015625 c 2
 258.97265625 84.0341796875 l 2
 243.0703125 76.083984375 240.615234375 56.810546875 249.678710938 44.7255859375 c 2
 407.572265625 -165.80078125 l 2
 417.6953125 -179.297851562 436.366210938 -179.524414062 447.250976562 -168.638671875 c 0
 456.622070312 -159.268554688 457.442382812 -144.565429688 449.713867188 -134.260742188 c 2
 310.7265625 51.056640625 l 1
 387.7890625 89.5869140625 l 2
407.572265625 149.987304688 m 2
 417.6953125 136.490234375 436.366210938 136.263671875 447.250976562 147.149414062 c 0
 456.622070312 156.51953125 457.442382812 171.22265625 449.713867188 181.52734375 c 2
 291.819335938 392.053710938 l 2
 281.696289062 405.55078125 263.026367188 405.77734375 252.140625 394.892578125 c 0
 247.004882812 389.756835938 244.4375 383.020507812 244.4375 376.284179688 c 2
 244.438476562 218.388671875 l 2
 244.438476562 214.850585938 245.147460938 211.311523438 246.564453125 208.004882812 c 2
 404.458007812 -160.415039062 l 2
 412.201171875 -178.482421875 434.890625 -181 447.250976562 -168.638671875 c 0
 455.083984375 -160.805664062 456.943359375 -149.247070312 452.828125 -139.645507812 c 2
 297.059570312 223.813476562 l 1
 297.059570312 297.337890625 l 1
 407.572265625 149.987304688 l 2
341.989257812 184.365234375 m 0
 331.719726562 194.635742188 315.04296875 194.635742188 304.7734375 184.365234375 c 0
 300.748046875 180.340820312 298.30078125 175.33203125 297.430664062 170.111328125 c 2
 248.881835938 -121.17578125 l 1
 193.579101562 -112.796875 150.928710938 -89.55859375 119.45703125 -58.0869140625 c 0
 29.4599609375 31.91015625 29.4599609375 194.342773438 119.45703125 284.33984375 c 0
 155.290039062 320.171875 205.614257812 345.33203125 272.606445312 350.0390625 c 0
 339.748046875 354.755859375 394.34765625 330.758789062 433.145507812 291.959960938 c 0
 509.545898438 215.559570312 522.790039062 83.0986328125 436.684570312 -3.0068359375 c 0
 429.475585938 -10.2158203125 421.525390625 -17.1552734375 412.791015625 -23.759765625 c 0
 399.37890625 -33.900390625 399.168945312 -52.509765625 410.03515625 -63.376953125 c 0
 419.430664062 -72.771484375 434.186523438 -73.572265625 444.495117188 -65.77734375 c 0
 455.119140625 -57.744140625 464.918945312 -49.205078125 473.900390625 -40.22265625 c 0
 582.87109375 68.7470703125 564.931640625 234.607421875 470.362304688 329.17578125 c 0
 421.4140625 378.124023438 351.446289062 408.329101562 268.890625 402.529296875 c 0
 190.15234375 396.998046875 127.2109375 366.525390625 82.2412109375 321.555664062 c 0
 -28.8798828125 210.434570312 -28.8798828125 15.8173828125 82.2412109375 -95.302734375 c 0
 127.2109375 -140.2734375 190.15234375 -170.745117188 268.890625 -176.27734375 c 0
 281.525390625 -177.165039062 294.418945312 -168.063476562 296.69921875 -154.384765625 c 2
 349.33203125 161.403320312 l 2
 350.682617188 169.505859375 348.234375 178.120117188 341.989257812 184.365234375 c 0
EndSplineSet
EndChar

StartChar: \.alt6
Encoding: 80 -1 78
Width: 517
VWidth: 0
Flags: HW
LayerCount: 2
Fore
SplineSet
176.502929688 447.524414062 m 0
 163.506835938 460.520507812 139.4921875 456.701171875 132.966796875 437.35546875 c 0
 119.61328125 397.76953125 119.61328125 354.799804688 132.965820312 315.212890625 c 0
 152.297851562 257.901367188 197.40625 212.79296875 254.717773438 193.4609375 c 0
 263.899414062 190.364257812 274.455078125 192.470703125 281.765625 199.78125 c 0
 294.762695312 212.77734375 290.942382812 236.791992188 271.59765625 243.317382812 c 0
 229.715820312 257.4453125 196.950195312 290.2109375 182.822265625 332.092773438 c 0
 173.142578125 360.791992188 173.142578125 391.778320312 182.823242188 420.4765625 c 0
 185.919921875 429.657226562 183.813476562 440.213867188 176.502929688 447.524414062 c 0
394.731445312 165.7578125 m 2
 394.731445312 176.840820312 387.0546875 188.08984375 375.102539062 191.211914062 c 1
 379.047851562 193.841796875 383.286132812 196.040039062 387.029296875 199.782226562 c 0
 397.298828125 210.051757812 397.298828125 226.728515625 387.029296875 236.998046875 c 0
 378.012695312 246.014648438 364.059570312 247.115234375 353.837890625 240.30078125 c 2
 195.943359375 135.037109375 l 2
 181.2734375 125.256835938 180.747070312 105.689453125 191.918945312 94.5185546875 c 0
 197.053710938 89.3828125 203.790039062 86.8154296875 210.526367188 86.8154296875 c 2
 368.420898438 86.8154296875 l 2
 382.577148438 86.8154296875 394.731445312 98.962890625 394.731445312 113.125976562 c 2
 394.731445312 165.7578125 l 2
197.369140625 60.4951171875 m 2
 197.369140625 59.04296875 203.264648438 57.86328125 210.52734375 57.86328125 c 0
 217.7890625 57.86328125 223.684570312 59.04296875 223.684570312 60.4951171875 c 2
 223.684570312 113.126953125 l 2
 223.684570312 114.579101562 217.7890625 115.758789062 210.52734375 115.758789062 c 0
 203.264648438 115.758789062 197.369140625 114.579101562 197.369140625 113.126953125 c 2
 197.369140625 60.4951171875 l 2
EndSplineSet
EndChar

StartChar: \.alt7
Encoding: 81 -1 79
Width: 368
VWidth: 0
Flags: HW
LayerCount: 2
Fore
SplineSet
259.653320312 -45.8251953125 m 2
 261.330078125 -49.177734375 268.505859375 -47.3916015625 266.6640625 -43.708984375 c 2
 108.767578125 272.080078125 l 2
 107.090820312 275.432617188 99.9150390625 273.645507812 101.756835938 269.962890625 c 2
 259.653320312 -45.8251953125 l 2
EndSplineSet
EndChar

StartChar: ".alt13"
Encoding: 82 -1 80
Width: 210
VWidth: 0
Flags: HW
LayerCount: 2
Fore
SplineSet
86.6552734375 -10.7451171875 m 0
 96.92578125 -21.0146484375 113.6015625 -21.0146484375 123.872070312 -10.7451171875 c 0
 129.006835938 -5.609375 131.57421875 1.126953125 131.57421875 7.86328125 c 2
 131.573242188 428.916015625 l 2
 131.573242188 435.65234375 129.005859375 442.388671875 123.87109375 447.524414062 c 0
 113.600585938 457.793945312 96.9248046875 457.793945312 86.6552734375 447.524414062 c 0
 81.51953125 442.388671875 78.9521484375 435.65234375 78.9521484375 428.916015625 c 2
 78.953125 7.86328125 l 2
 78.953125 1.126953125 81.5205078125 -5.609375 86.6552734375 -10.7451171875 c 0
EndSplineSet
EndChar

StartChar: |.alt5
Encoding: 83 -1 81
Width: 895
VWidth: 0
Flags: HW
LayerCount: 2
Fore
SplineSet
477.443359375 -97.400390625 m 2
 477.443359375 -92.5595703125 469.924804688 -92.53515625 469.924804688 -97.400390625 c 2
 469.924804688 -202.663085938 l 2
 469.924804688 -207.50390625 477.443359375 -207.528320312 477.443359375 -202.663085938 c 2
 477.443359375 -97.400390625 l 2
418.12890625 271.020507812 m 2
 418.12890625 267.255859375 423.9765625 267.236328125 423.9765625 271.020507812 c 2
 423.9765625 322.443359375 l 1
 475.751953125 374.216796875 l 2
 478.397460938 376.86328125 474.298828125 381.033203125 471.6171875 378.3515625 c 2
 418.985351562 325.720703125 l 2
 418.456054688 325.19140625 418.12890625 324.4609375 418.12890625 323.654296875 c 2
 418.12890625 271.020507812 l 2
EndSplineSet
EndChar

StartChar: \.alt8
Encoding: 84 -1 82
Width: 136
VWidth: 0
Flags: HW
LayerCount: 2
Fore
SplineSet
59.1171875 41.8876953125 m 0
 69.38671875 31.6171875 86.0625 31.6171875 96.3330078125 41.8876953125 c 0
 102.578125 48.1328125 105.025390625 56.7470703125 103.67578125 64.8486328125 c 2
 51.044921875 380.637695312 l 2
 50.173828125 385.858398438 47.7265625 390.8671875 43.7021484375 394.892578125 c 0
 33.431640625 405.162109375 16.755859375 405.162109375 6.4853515625 394.892578125 c 0
 0.240234375 388.646484375 -2.20703125 380.033203125 -0.8564453125 371.930664062 c 2
 51.7744140625 56.1416015625 l 2
 52.64453125 50.9208984375 55.091796875 45.912109375 59.1171875 41.8876953125 c 0
124.030273438 269.98828125 m 2
 126.265625 265.517578125 139.114257812 267.194335938 136.684570312 272.0546875 c 2
 84.052734375 377.317382812 l 2
 82.09765625 381.2265625 71.146484375 380.6796875 71.146484375 376.284179688 c 2
 71.146484375 271.021484375 l 2
 71.146484375 266.181640625 84.3046875 266.15625 84.3046875 271.021484375 c 2
 84.3046875 349.439453125 l 1
 124.030273438 269.98828125 l 2
EndSplineSet
EndChar

StartChar: |.alt6
Encoding: 85 -1 83
Width: 103
VWidth: 0
Flags: HW
LayerCount: 2
Fore
SplineSet
96.333984375 447.524414062 m 0
 86.0634765625 457.793945312 69.3876953125 457.793945312 59.1181640625 447.524414062 c 0
 54.5419921875 442.94921875 52.005859375 437.102539062 51.5068359375 431.1171875 c 2
 -1.125 -200.461914062 l 2
 -1.74609375 -207.912109375 0.791015625 -215.577148438 6.4853515625 -221.271484375 c 0
 16.755859375 -231.541992188 33.431640625 -231.541992188 43.7021484375 -221.271484375 c 2
 96.333984375 -168.639648438 l 2
 106.603515625 -158.369140625 106.603515625 -141.693359375 96.333984375 -131.423828125 c 0
 86.0634765625 -121.153320312 69.3876953125 -121.153320312 59.1181640625 -131.423828125 c 2
 57.2802734375 -133.260742188 l 1
 103.9453125 426.71484375 l 2
 104.565429688 434.165039062 102.028320312 441.829101562 96.333984375 447.524414062 c 0
EndSplineSet
EndChar

StartChar: glyph84
Encoding: 86 88 84
Width: 208
VWidth: 0
Flags: HW
LayerCount: 2
Fore
SplineSet
49.2783203125 386.668945312 m 2
 41.5361328125 404.736328125 18.8466796875 407.252929688 6.4853515625 394.892578125 c 0
 -1.3466796875 387.059570312 -3.2060546875 375.500976562 0.9091796875 365.899414062 c 2
 158.803710938 -2.521484375 l 2
 166.546875 -20.5888671875 189.235351562 -23.10546875 201.596679688 -10.7451171875 c 0
 209.4296875 -2.912109375 211.288085938 8.646484375 207.173828125 18.248046875 c 2
 49.2783203125 386.668945312 l 2
64.7470703125 166.301757812 m 2
 63.3330078125 164.180664062 69.9462890625 162.467773438 77.7255859375 162.467773438 c 0
 84.2470703125 162.467773438 89.666015625 163.657226562 90.7041015625 165.213867188 c 2
 195.965820312 323.109375 l 2
 197.379882812 325.23046875 190.766601562 326.942382812 182.987304688 326.942382812 c 0
 176.466796875 326.942382812 171.046875 325.75390625 170.008789062 324.197265625 c 2
 64.7470703125 166.301757812 l 2
EndSplineSet
EndChar

StartChar: ".alt14"
Encoding: 87 -1 85
Width: 210
VWidth: 0
Flags: HW
LayerCount: 2
Fore
SplineSet
123.872070312 342.260742188 m 0
 113.6015625 352.53125 96.92578125 352.53125 86.6552734375 342.260742188 c 0
 81.5205078125 337.125976562 78.953125 330.389648438 78.953125 323.653320312 c 2
 78.953125 218.389648438 l 2
 78.953125 211.65234375 81.5205078125 204.916015625 86.6552734375 199.78125 c 0
 96.92578125 189.510742188 113.6015625 189.510742188 123.872070312 199.78125 c 0
 129.006835938 204.916015625 131.57421875 211.65234375 131.57421875 218.389648438 c 2
 131.57421875 323.653320312 l 2
 131.57421875 330.389648438 129.006835938 337.125976562 123.872070312 342.260742188 c 0
EndSplineSet
EndChar

StartChar: J.alt1
Encoding: 88 -1 86
Width: 471
VWidth: 0
Flags: HW
LayerCount: 2
Fore
SplineSet
117.19921875 165.7578125 m 2
 117.19921875 162.126953125 123.095703125 159.178710938 130.357421875 159.178710938 c 0
 137.619140625 159.178710938 143.515625 162.126953125 143.515625 165.7578125 c 2
 143.515625 218.389648438 l 2
 143.515625 222.020507812 137.619140625 224.96875 130.357421875 224.96875 c 0
 123.095703125 224.96875 117.19921875 222.020507812 117.19921875 218.389648438 c 2
 117.19921875 165.7578125 l 2
25.09375 65.7587890625 m 0
 8.2158203125 65.7587890625 -5.9169921875 62.455078125 0.1220703125 58.83203125 c 2
 263.280273438 -99.0625 l 2
 266.764648438 -101.153320312 276.634765625 -102.663085938 288.252929688 -102.663085938 c 0
 302.240234375 -102.663085938 313.693359375 -100.475585938 314.520507812 -97.71875 c 2
 472.4140625 428.596679688 l 2
 473.348632812 431.708984375 461.014648438 434.1796875 446.146484375 434.1796875 c 0
 432.159179688 434.1796875 420.705078125 431.9921875 419.87890625 429.235351562 c 2
 270.142578125 -69.88671875 l 1
 50.06640625 62.1591796875 l 2
 46.5810546875 64.2490234375 36.7119140625 65.7587890625 25.09375 65.7587890625 c 0
EndSplineSet
EndChar

StartChar: \.alt9
Encoding: 89 -1 87
Width: 368
VWidth: 0
Flags: HW
LayerCount: 2
Fore
SplineSet
266.922851562 -96.048828125 m 2
 269.892578125 -99.0185546875 262.260742188 -101.616210938 259.39453125 -98.7509765625 c 2
 191.212890625 -30.5693359375 l 1
 267.397460938 -201.983398438 l 2
 268.8984375 -205.362304688 260.352539062 -206.563476562 258.919921875 -203.340820312 c 2
 174.868164062 -14.2255859375 l 1
 101.498046875 59.1435546875 l 2
 101.209960938 59.431640625 101.01171875 59.755859375 100.924804688 60.1015625 c 2
 48.294921875 270.62890625 l 2
 47.4677734375 273.93359375 55.529296875 274.716796875 56.8701171875 271.700195312 c 2
 183.029296875 -12.15625 l 1
 266.922851562 -96.048828125 l 2
109.471679688 61.400390625 m 1
 166.684570312 4.1875 l 1
 68.6064453125 224.86328125 l 1
 109.471679688 61.400390625 l 1
109.52734375 429.53125 m 2
 108.256835938 432.708007812 99.625 431.73046875 100.997070312 428.30078125 c 2
 206.140625 165.4453125 l 1
 206.140625 113.126953125 l 2
 206.140625 110.078125 213.37109375 109.655273438 214.728515625 112.370117188 c 2
 319.991210938 322.897460938 l 2
 321.66796875 326.25 313.182617188 327.599609375 311.586914062 324.41015625 c 2
 214.913085938 131.05859375 l 1
 214.913085938 165.758789062 l 2
 214.913085938 165.970703125 214.87109375 166.176757812 214.791992188 166.374023438 c 2
 109.52734375 429.53125 l 2
EndSplineSet
EndChar

StartChar: C.alt1
Encoding: 90 -1 88
Width: 745
VWidth: 0
Flags: HW
LayerCount: 2
Fore
SplineSet
154.826171875 123.110351562 m 0
 152.3125 138.198242188 133.54296875 143.526367188 123.234375 133.217773438 c 0
 118.807617188 128.790039062 117.072265625 122.68359375 118.029296875 116.940429688 c 0
 151.872070312 -86.212890625 199.284179688 -205.905273438 258.325195312 -264.947265625 c 0
 296.311523438 -302.932617188 340.55859375 -314.73828125 384.196289062 -303.026367188 c 0
 418.416015625 -293.842773438 450.751953125 -271.518554688 481.431640625 -240.838867188 c 0
 589.081054688 -133.189453125 683.297851562 85.365234375 724.252929688 282.921875 c 0
 742.481445312 370.850585938 750.140625 454.827148438 742.579101562 524.106445312 c 0
 736.555664062 579.287109375 720.954101562 626.4765625 689.86328125 657.568359375 c 0
 664.176757812 683.254882812 628.78125 695.694335938 586.353515625 691.805664062 c 0
 548.854492188 688.368164062 506.09375 672.859375 456.55078125 644.205078125 c 0
 394.573242188 608.358398438 321.620117188 551.579101562 235.4921875 469.354492188 c 0
 205.362304688 440.588867188 202.192382812 400.991210938 198.370117188 368.40625 c 0
 194.483398438 335.27734375 190.165039062 308.946289062 174.584960938 293.366210938 c 0
 171.666015625 290.447265625 168.267578125 287.75390625 164.163085938 285.296875 c 0
 140.143554688 270.916992188 119.666992188 268.497070312 102.4921875 272.190429688 c 0
 88.626953125 275.170898438 76.1064453125 282.474609375 65.7255859375 292.85546875 c 0
 32.9951171875 325.5859375 26.201171875 382.954101562 57.63671875 414.389648438 c 0
 67.7060546875 424.458984375 82.3154296875 432.946289062 103.236328125 437.659179688 c 0
 117.907226562 440.963867188 122.200195312 459.153320312 112.306640625 469.047851562 c 0
 107.611328125 473.7421875 101.028320312 475.41015625 94.9921875 474.049804688 c 0
 68.2451171875 468.025390625 46.9033203125 456.42578125 31.251953125 440.774414062 c 0
 -18.7451171875 390.778320312 -4.4287109375 310.239257812 39.3408203125 266.469726562 c 0
 54.1796875 251.630859375 72.8994140625 240.387695312 94.6044921875 235.720703125 c 0
 121.891601562 229.853515625 152.64453125 234.90234375 183.3203125 253.267578125 c 0
 227.479492188 279.705078125 231.102539062 327.21484375 235.420898438 364.029296875 c 0
 239.408203125 398.0234375 243.436523438 425.348632812 261.249023438 442.35546875 c 0
 345.940429688 523.208984375 416.995117188 578.211914062 475.227539062 611.892578125 c 0
 521.852539062 638.859375 560.03125 651.927734375 589.783203125 654.655273438 c 0
 623.013671875 657.701171875 645.954101562 648.70703125 663.477539062 631.182617188 c 0
 685.301757812 609.358398438 699.932617188 570.974609375 705.494140625 520.029296875 c 0
 712.412109375 456.650390625 705.413085938 375.854492188 687.7265625 290.5390625 c 0
 647.873046875 98.296875 553.666992188 -115.833007812 455.046875 -214.453125 c 0
 427.212890625 -242.288085938 399.59765625 -260.2578125 374.479492188 -266.999023438 c 0
 343.9453125 -275.194335938 314.978515625 -268.829101562 284.7109375 -238.561523438 c 0
 236.125976562 -189.977539062 188.24609375 -77.509765625 154.826171875 123.110351562 c 0
EndSplineSet
EndChar

StartChar: i.alt1
Encoding: 91 -1 89
Width: 241
VWidth: 0
Flags: HW
LayerCount: 2
Fore
SplineSet
31.595703125 -202.663085938 m 2
 31.595703125 -204.115234375 43.390625 -205.294921875 57.9150390625 -205.294921875 c 0
 72.310546875 -205.294921875 84.0224609375 -204.135742188 84.2275390625 -202.701171875 c 2
 136.852539062 165.671875 l 1
 242.092773438 376.151367188 l 2
 242.862304688 377.69140625 230.618164062 378.916015625 215.809570312 378.916015625 c 0
 201.732421875 378.916015625 190.22265625 377.80859375 189.52734375 376.41796875 c 2
 84.263671875 165.891601562 l 2
 84.248046875 165.859375 84.23828125 165.828125 84.2333984375 165.795898438 c 2
 31.595703125 -202.663085938 l 2
107.137695312 163.536132812 m 2
 109.106445312 157.627929688 116.083984375 161.592773438 113.955078125 167.978515625 c 2
 61.3232421875 325.875 l 2
 59.7490234375 330.59765625 54.1552734375 329.397460938 54.1552734375 323.654296875 c 2
 54.1552734375 60.4951171875 l 2
 54.1552734375 53.71875 61.673828125 53.68359375 61.673828125 60.4951171875 c 2
 61.673828125 299.928710938 l 1
 107.137695312 163.536132812 l 2
63.1806640625 115.09765625 m 2
 58.2119140625 118.411132812 47.451171875 114.62109375 52.6484375 111.15625 c 2
 210.543945312 5.892578125 l 2
 214.421875 3.306640625 224.03125 4.986328125 222.193359375 8.6630859375 c 2
 11.666015625 429.715820312 l 2
 9.6865234375 433.673828125 -3.240234375 432.397460938 -1.1005859375 428.1171875 c 2
 201.524414062 22.869140625 l 1
 63.1806640625 115.09765625 l 2
EndSplineSet
EndChar

StartChar: \.alt10
Encoding: 92 -1 90
Width: 103
VWidth: 0
Flags: HW
LayerCount: 2
Fore
SplineSet
52.203125 1.44921875 m 2
 57.30078125 -18.9423828125 82.599609375 -24.478515625 96.3330078125 -10.7451171875 c 0
 103.111328125 -3.966796875 105.416015625 5.6015625 103.247070312 14.27734375 c 2
 50.6162109375 224.8046875 l 2
 45.5185546875 245.1953125 20.2197265625 250.731445312 6.4853515625 236.998046875 c 0
 -0.2919921875 230.219726562 -2.5966796875 220.651367188 -0.427734375 211.975585938 c 2
 52.203125 1.44921875 l 2
EndSplineSet
EndChar

StartChar: /.alt4
Encoding: 93 -1 91
Width: 208
VWidth: 0
Flags: HW
LayerCount: 2
Fore
SplineSet
50.890625 -39.58203125 m 1
 46.6943359375 -18.583984375 20.67578125 -11.9697265625 6.4853515625 -26.16015625 c 0
 1.349609375 -31.2958984375 -1.2177734375 -38.0322265625 -1.2177734375 -44.7685546875 c 2
 -1.216796875 -150.03125 l 2
 -1.216796875 -156.768554688 1.3505859375 -163.504882812 6.4853515625 -168.639648438 c 0
 18.4208984375 -180.57421875 40.09375 -178.88671875 48.6328125 -161.80859375 c 2
 206.52734375 153.981445312 l 2
 211.455078125 163.836914062 209.811523438 176.151367188 201.595703125 184.366210938 c 0
 189.661132812 196.30078125 167.98828125 194.61328125 159.448242188 177.53515625 c 2
 50.890625 -39.58203125 l 1
180.478515625 -98.751953125 m 2
 182.349609375 -101.559570312 187.504882812 -99.0625 185.497070312 -96.0498046875 c 2
 80.234375 61.8466796875 l 2
 78.36328125 64.6533203125 73.2080078125 62.1572265625 75.216796875 59.14453125 c 2
 180.478515625 -98.751953125 l 2
EndSplineSet
EndChar

StartChar: Z.alt1
Encoding: 94 -1 92
Width: 571
VWidth: 0
Flags: HW
LayerCount: 2
Fore
SplineSet
439.661132812 -168.639648438 m 0
 449.930664062 -158.369140625 449.930664062 -141.693359375 439.661132812 -131.423828125 c 0
 434.525390625 -126.288085938 427.7890625 -123.720703125 421.052734375 -123.720703125 c 2
 157.89453125 -123.720703125 l 2
 151.158203125 -123.720703125 144.421875 -126.288085938 139.287109375 -131.423828125 c 0
 129.016601562 -141.693359375 129.016601562 -158.369140625 139.287109375 -168.639648438 c 0
 144.421875 -173.774414062 151.158203125 -176.341796875 157.89453125 -176.341796875 c 2
 421.052734375 -176.341796875 l 2
 427.7890625 -176.341796875 434.525390625 -173.774414062 439.661132812 -168.639648438 c 0
439.661132812 252.4140625 m 0
 449.958984375 262.711914062 449.961914062 279.475585938 439.525390625 289.764648438 c 0
 355.858398438 372.25 221.572265625 371.924804688 137.928710938 288.282226562 c 0
 26.4453125 176.798828125 49.4140625 21.58203125 136.891601562 -65.8955078125 c 0
 194.81640625 -123.8203125 282.434570312 -153.274414062 376.646484375 -122.400390625 c 0
 406.170898438 -112.724609375 431.8203125 -96.5283203125 452.485351562 -75.8623046875 c 0
 502.435546875 -25.9130859375 522.884765625 49.95703125 498.600585938 121.602539062 c 0
 492.05859375 140.903320312 468.065429688 144.72265625 455.076171875 131.734375 c 0
 447.756835938 124.4140625 445.653320312 113.83984375 448.768554688 104.650390625 c 0
 466.361328125 52.748046875 451.600585938 -2.314453125 415.26953125 -38.646484375 c 0
 400.368164062 -53.546875 381.772460938 -65.330078125 360.197265625 -72.400390625 c 0
 285.918945312 -96.7421875 219.688476562 -74.259765625 174.108398438 -28.6796875 c 0
 104.04296875 41.3857421875 86.0283203125 163.213867188 176.3671875 252.279296875 c 0
 239.108398438 314.134765625 339.83984375 314.133789062 402.580078125 252.279296875 c 0
 412.860351562 242.14453125 429.435546875 242.188476562 439.661132812 252.4140625 c 0
86.6552734375 -78.7919921875 m 0
 74.720703125 -90.7275390625 76.408203125 -112.400390625 93.4873046875 -120.939453125 c 2
 198.75 -173.571289062 l 2
 209.497070312 -178.944335938 223.697265625 -176.874023438 231.958007812 -165.309570312 c 2
 495.115234375 203.112304688 l 2
 502.456054688 213.388671875 501.514648438 227.776367188 492.29296875 236.998046875 c 0
 481.2890625 248.001953125 462.247070312 247.659179688 452.25390625 233.66796875 c 2
 202.182617188 -116.431640625 l 1
 117.040039062 -73.861328125 l 2
 107.184570312 -68.93359375 94.87109375 -70.5771484375 86.6552734375 -78.7919921875 c 0
EndSplineSet
EndChar

StartChar: a.alt1
Encoding: 95 -1 93
Width: 701
VWidth: 0
Flags: HW
LayerCount: 2
Fore
SplineSet
536.9921875 165.7578125 m 0
 536.9921875 164.184570312 543.158203125 163.122070312 551.26171875 163.122070312 c 0
 575.9375 163.122070312 594.748046875 166.905273438 609.54296875 171.990234375 c 0
 628.48046875 178.498046875 643.850585938 188.147460938 656.709960938 200.08984375 c 0
 685.623046875 226.942382812 701.073242188 265.470703125 701.073242188 304.081054688 c 0
 701.073242188 354.684570312 675.171875 405.319335938 614.609375 430.0703125 c 0
 599.956054688 436.05859375 582.69140625 440.17578125 559.360351562 440.17578125 c 0
 539.999023438 440.17578125 525.3125 437.259765625 513.614257812 433.51171875 c 0
 498.526367188 428.677734375 485.561523438 421.487304688 474.20703125 412.243164062 c 0
 448.689453125 391.46875 431.987304688 360.229492188 431.729492188 323.684570312 c 1
 379.094726562 -150.03125 l 2
 379.094726562 -151.483398438 384.994140625 -152.663085938 392.255859375 -152.663085938 c 0
 399.418945312 -152.663085938 405.251953125 -151.515625 405.41015625 -150.090820312 c 2
 458.048828125 323.649414062 l 1
 458.295898438 359.872070312 475.017578125 390.837890625 499.764648438 410.985351562 c 0
 510.752929688 419.931640625 523.45703125 426.7265625 535.954101562 430.729492188 c 0
 546.322265625 434.051757812 554.927734375 434.912109375 559.360351562 434.912109375 c 0
 564.670898438 434.912109375 576.775390625 433.557617188 590.95703125 427.76171875 c 0
 647.45703125 404.670898438 674.7578125 354.3203125 674.7578125 304.081054688 c 0
 674.7578125 265.768554688 659.252929688 227.45703125 630.983398438 201.201171875 c 0
 618.428710938 189.541015625 603.204101562 180.275390625 586.78125 174.631835938 c 0
 572.89453125 169.859375 560.989257812 168.389648438 550.149414062 168.389648438 c 0
 542.887695312 168.389648438 536.9921875 167.209960938 536.9921875 165.7578125 c 0
541.990234375 -42.7041015625 m 0
 532.6640625 -44.181640625 537.677734375 -47.400390625 550.149414062 -47.400390625 c 0
 553.23046875 -47.400390625 556.065429688 -47.1875 558.30859375 -46.8330078125 c 0
 566.357421875 -45.5576171875 572.143554688 -43.701171875 577.389648438 -41.4267578125 c 0
 583.984375 -38.5673828125 589.663085938 -34.9189453125 594.66015625 -30.564453125 c 0
 605.889648438 -20.7783203125 613.529296875 -7.4052734375 615.93359375 7.7783203125 c 0
 625.049804688 65.33203125 629.2578125 115.268554688 629.2578125 158.294921875 c 0
 629.2578125 250.688476562 609.938476562 311.1796875 577.842773438 346.952148438 c 0
 563.571289062 362.858398438 546.946289062 373.903320312 527.163085938 380.893554688 c 0
 511.584960938 386.3984375 492.211914062 389.896484375 468.201171875 389.896484375 c 0
 446.313476562 389.896484375 426.940429688 387.043945312 409.08984375 382.81640625 c 0
 386.4375 377.450195312 364.1875 369.315429688 341.663085938 358.793945312 c 0
 291.018554688 335.137695312 239.4375 299.3046875 191.9765625 256.75390625 c 0
 85.2080078125 161.033203125 -0.3037109375 31.4326171875 -0.3037109375 -68.08203125 c 0
 -0.3037109375 -124.955078125 26.951171875 -172.05859375 97.0498046875 -197.799804688 c 0
 132.14453125 -210.6875 180.018554688 -218.611328125 241.823242188 -218.611328125 c 0
 289.201171875 -218.611328125 341.655273438 -214.033203125 400.415039062 -204.7265625 c 0
 409.741210938 -203.25 404.727539062 -200.03125 392.255859375 -200.03125 c 0
 389.174804688 -200.03125 386.33984375 -200.243164062 384.096679688 -200.598632812 c 0
 327.794921875 -209.516601562 280.428710938 -213.348632812 241.823242188 -213.348632812 c 0
 176.919921875 -213.348632812 126.587890625 -202.485351562 90.408203125 -181.4609375 c 0
 45.5791015625 -155.411132812 26.01171875 -115.206054688 26.01171875 -68.08203125 c 0
 26.01171875 30.8486328125 111.331054688 160.276367188 217.662109375 255.604492188 c 0
 264.911132812 297.96484375 316.389648438 333.615234375 365.8671875 356.725585938 c 0
 387.840820312 366.990234375 409.509765625 374.758789062 429.204101562 379.423828125 c 0
 445.231445312 383.219726562 458.73046875 384.633789062 468.201171875 384.633789062 c 0
 477.806640625 384.633789062 490.309570312 383.23046875 504.244140625 378.306640625 c 0
 521.352539062 372.26171875 537.926757812 361.637695312 551.940429688 346.017578125 c 0
 583.48828125 310.857421875 602.94140625 250.522460938 602.94140625 158.294921875 c 0
 602.94140625 115.338867188 598.740234375 65.4560546875 589.631835938 7.9482421875 c 0
 587.268554688 -6.9697265625 579.671875 -20.0927734375 569.009765625 -29.3837890625 c 0
 564.27734375 -33.5078125 558.911132812 -36.8720703125 553.48046875 -39.2265625 c 0
 549.107421875 -41.1220703125 544.645507812 -42.2841796875 541.990234375 -42.7041015625 c 0
EndSplineSet
EndChar

StartChar: glyph94
Encoding: 96 62 94
Width: 537
VWidth: 0
Flags: HW
LayerCount: 2
Fore
SplineSet
287.047851562 79.103515625 m 0
 276.161132812 89.9912109375 257.48828125 89.7578125 247.369140625 76.265625 c 2
 89.474609375 -134.26171875 l 2
 81.74609375 -144.56640625 82.56640625 -159.26953125 91.9375 -168.639648438 c 0
 102.825195312 -179.52734375 121.497070312 -179.293945312 131.616210938 -165.801757812 c 2
 289.510742188 44.7255859375 l 2
 297.239257812 55.0302734375 296.418945312 69.7333984375 287.047851562 79.103515625 c 0
-0.43359375 269.71875 m 2
 -4.7333984375 272.728515625 6.853515625 275.2265625 10.9990234375 272.32421875 c 2
 123.580078125 193.517578125 l 1
 103.963867188 428.916015625 l 2
 103.963867188 432.266601562 116.84375 432.334960938 117.122070312 429.004882812 c 2
 137.561523438 183.73046875 l 1
 537.315429688 -96.0966796875 l 2
 539.08984375 -97.3388671875 537.920898438 -98.8271484375 535.416992188 -99.5419921875 c 2
 166.99609375 -204.805664062 l 2
 162.662109375 -206.043945312 156.76953125 -204.754882812 156.602539062 -202.751953125 c 2
 124.51953125 182.251953125 l 1
 -0.43359375 269.71875 l 2
522.9375 -96.640625 m 1
 138.5 172.46484375 l 1
 169.344726562 -197.66796875 l 1
 522.9375 -96.640625 l 1
213.9765625 -47.4248046875 m 0
 219.243164062 -49.044921875 222.706054688 -43.6689453125 217.643554688 -42.111328125 c 0
 208.59375 -39.328125 199.509765625 -38.0009765625 190.637695312 -38.0009765625 c 0
 140.911132812 -38.0009765625 102.31640625 -78.44140625 102.31640625 -124.858398438 c 0
 102.31640625 -133.258789062 103.568359375 -141.904296875 106.25 -150.620117188 c 0
 129.697265625 -226.854492188 178.747070312 -258.159179688 231.890625 -258.159179688 c 0
 313.83984375 -258.159179688 397.298828125 -184.2265625 397.298828125 -105.135742188 c 0
 397.298828125 -65.6484375 376.48046875 -24.50390625 324.153320312 9.943359375 c 0
 320.158203125 12.5732421875 313.942382812 8.4482421875 317.991210938 5.783203125 c 0
 368.572265625 -27.5146484375 388.526367188 -67.0439453125 388.526367188 -105.135742188 c 0
 388.526367188 -182.430664062 306.307617188 -252.311523438 231.890625 -252.311523438 c 0
 185.1171875 -252.311523438 138.05078125 -224.89453125 114.842773438 -149.44140625 c 0
 112.282226562 -141.1171875 111.088867188 -132.864257812 111.088867188 -124.858398438 c 0
 111.088867188 -79.6669921875 148.752929688 -43.8486328125 190.637695312 -43.8486328125 c 0
 198.170898438 -43.8486328125 205.985351562 -44.966796875 213.9765625 -47.4248046875 c 0
EndSplineSet
EndChar

StartChar: tb
Encoding: 97 -1 95
Width: 536
VWidth: 0
Flags: HW
LayerCount: 2
Fore
SplineSet
108.512695312 -106.021484375 m 2
 112.55078125 -104.002929688 111.60546875 -86.623046875 107.294921875 -88.7783203125 c 2
 2.033203125 -141.41015625 l 2
 0.5078125 -142.172851562 -0.6474609375 -145.745117188 -0.6474609375 -150.032226562 c 2
 -0.6474609375 -202.663085938 l 2
 -0.6474609375 -207.504882812 0.826171875 -211.435546875 2.6416015625 -211.435546875 c 0
 4.45703125 -211.435546875 5.931640625 -207.504882812 5.931640625 -202.663085938 c 2
 5.931640625 -157.313476562 l 1
 108.512695312 -106.021484375 l 2
158.794921875 210.947265625 m 0
 161.038085938 207.204101562 163.825195312 211.83203125 163.825195312 218.388671875 c 0
 163.825195312 221.525390625 163.20703125 224.280273438 162.27734375 225.831054688 c 0
 150.788085938 245.001953125 146.721679688 263.081054688 146.721679688 277.947265625 c 0
 146.721679688 299.265625 155.447265625 323.549804688 172.462890625 343.604492188 c 0
 193.3359375 368.206054688 224.783203125 384.616210938 258.873046875 384.616210938 c 0
 278.103515625 384.616210938 298.181640625 379.427734375 317.70703125 367.725585938 c 0
 358.653320312 343.185546875 370.838867188 312.143554688 370.838867188 283.836914062 c 0
 370.838867188 265.384765625 365.829101562 242.884765625 357.01953125 218.26953125 c 0
 334.670898438 155.825195312 292.161132812 87.25390625 269.610351562 24.2001953125 c 0
 260.456054688 -1.39453125 253.920898438 -27.251953125 253.920898438 -53.8154296875 c 0
 253.920898438 -99.923828125 273.186523438 -133.76171875 317.754882812 -158.618164062 c 0
 344.826171875 -173.715820312 370.623046875 -180.291992188 394.375 -180.291992188 c 0
 449.115234375 -180.291992188 493.026367188 -145.642578125 516.749023438 -98.4638671875 c 0
 528.573242188 -74.94921875 535.809570312 -47.392578125 535.809570312 -18.1474609375 c 0
 535.809570312 3.806640625 531.625976562 24.8359375 523.563476562 43.2177734375 c 0
 507.499023438 79.8466796875 475.646484375 108.548828125 424.014648438 121.857421875 c 0
 422.000976562 122.376953125 420.405273438 118.158203125 420.405273438 113.126953125 c 0
 420.405273438 108.573242188 421.708984375 104.825195312 423.375 104.396484375 c 0
 474.469726562 91.224609375 505.109375 62.2158203125 519.291992188 29.8798828125 c 0
 526.352539062 13.779296875 529.231445312 -2.48828125 529.231445312 -18.1474609375 c 0
 529.231445312 -39.177734375 523.848632812 -62.4619140625 512.822265625 -84.3916015625 c 0
 490.842773438 -128.1015625 448.119140625 -162.748046875 394.375 -162.748046875 c 0
 371.086914062 -162.748046875 345.735351562 -156.295898438 319.106445312 -141.4453125 c 0
 273.90625 -116.237304688 260.499023438 -83.580078125 260.499023438 -53.8154296875 c 0
 260.499023438 -35.228515625 265.533203125 -12.6142578125 274.37109375 12.0966796875 c 0
 296.711914062 74.5634765625 339.22265625 143.135742188 361.778320312 206.162109375 c 0
 370.90234375 231.65625 377.41796875 257.395507812 377.41796875 283.836914062 c 0
 377.41796875 327.930664062 359.626953125 360.586914062 319.154296875 384.842773438 c 0
 299.09765625 396.86328125 278.553710938 402.16015625 258.873046875 402.16015625 c 0
 217.0390625 402.16015625 179.083007812 378.530273438 157.8203125 342.897460938 c 0
 147.278320312 325.231445312 140.142578125 303.413085938 140.142578125 277.947265625 c 0
 140.142578125 253.90234375 146.561523438 231.358398438 158.794921875 210.947265625 c 0
376.950195312 107.254882812 m 2
 379.234375 116.389648438 375.669921875 126.28515625 371.0625 126.28515625 c 0
 368.486328125 126.28515625 366.25390625 123.31640625 365.173828125 118.999023438 c 2
 312.541992188 -91.5283203125 l 2
 310.258789062 -100.662109375 313.823242188 -110.557617188 318.430664062 -110.557617188 c 0
 321.006835938 -110.557617188 323.239257812 -107.58984375 324.318359375 -103.271484375 c 2
 376.950195312 107.254882812 l 2
EndSplineSet
Ligature2: "liga-1" t b
EndChar

StartChar: Cc
Encoding: 98 -1 96
Width: 557
VWidth: 0
Flags: HW
LayerCount: 2
Fore
SplineSet
511.868164062 26.4716796875 m 0
 506.477539062 21.0810546875 501.6953125 15.068359375 496.412109375 9.78515625 c 0
 392.439453125 -94.1875 225.663085938 -89.4169921875 126.53515625 9.7109375 c 0
 108.642578125 27.603515625 92.876953125 48.646484375 80.0400390625 72.8349609375 c 0
 33.0947265625 161.29296875 47.0166015625 268.86328125 112.944335938 342.303710938 c 1
 410.629882812 143.84765625 l 2
 420.8515625 137.033203125 434.805664062 138.133789062 443.821289062 147.150390625 c 0
 454.995117188 158.32421875 454.462890625 177.890625 439.796875 187.668945312 c 2
 124.006835938 398.194335938 l 2
 114.020507812 404.852539062 100.47265625 403.955078125 91.4462890625 395.502929688 c 0
 89.1044921875 393.310546875 86.8056640625 391.084960938 84.5478515625 388.827148438 c 0
 -5.162109375 299.1171875 -26.28125 160.877929688 33.5419921875 48.1552734375 c 0
 48.8017578125 19.4013671875 67.693359375 -5.8798828125 89.318359375 -27.505859375 c 0
 208.54296875 -146.729492188 408.55078125 -152.5078125 533.627929688 -27.4306640625 c 0
 539.415039062 -21.6435546875 545.03125 -15.5859375 550.462890625 -9.2568359375 c 0
 559.33203125 1.0771484375 558.872070312 16.68359375 549.083984375 26.4716796875 c 0
 538.814453125 36.7412109375 522.138671875 36.7412109375 511.868164062 26.4716796875 c 0
EndSplineSet
Ligature2: "liga-1" C c
EndChar

StartChar: (.alt2
Encoding: 99 -1 97
Width: 726
VWidth: 0
Flags: HW
LayerCount: 2
Fore
SplineSet
273.69140625 372.950195312 m 0
 256.9609375 369.228515625 252.024414062 348.489257812 263.309570312 337.204101562 c 0
 268.639648438 331.874023438 276.108398438 329.971679688 282.96484375 331.49609375 c 0
 402.997070312 358.1953125 492.092773438 364.25390625 554.534179688 356.103515625 c 0
 604.586914062 349.5703125 636.7265625 334.126953125 655.977539062 314.876953125 c 0
 679.889648438 290.963867188 687.965820312 257.864257812 681.548828125 215.193359375 c 0
 667.884765625 124.34765625 590.454101562 10.4140625 499.09765625 -80.9423828125 c 0
 407.700195312 -172.33984375 293.866210938 -249.721679688 202.9609375 -263.393554688 c 0
 160.291015625 -269.811523438 127.190429688 -261.735351562 103.278320312 -237.822265625 c 0
 84.02734375 -218.572265625 68.583984375 -186.431640625 62.05078125 -136.37890625 c 0
 53.900390625 -73.9384765625 59.958984375 15.1572265625 86.6572265625 135.189453125 c 0
 89.181640625 146.53515625 98.302734375 160.734375 109.365234375 176.561523438 c 0
 125.827148438 200.112304688 155.021484375 238.88671875 125.66015625 279.661132812 c 0
 96.62109375 319.990234375 46.107421875 314.200195312 19.59375 287.686523438 c 0
 3.166015625 271.258789062 -5.3203125 245.609375 3.1865234375 218.418945312 c 0
 8.1484375 202.559570312 27.8232421875 199.120117188 38.4697265625 209.766601562 c 0
 44.251953125 215.548828125 46.0009765625 223.84765625 43.7158203125 231.151367188 c 0
 40.0458984375 242.8828125 43.2744140625 251.291992188 49.6318359375 257.649414062 c 0
 61.3876953125 269.405273438 80.2763671875 269.983398438 91.1591796875 254.868164062 c 0
 100.80859375 241.46875 94.8134765625 229.900390625 74.521484375 200.87109375 c 0
 63.6591796875 185.330078125 50.2978515625 167.364257812 45.2041015625 144.461914062 c 0
 17.859375 21.5234375 10.794921875 -71.861328125 19.939453125 -141.9140625 c 0
 27.2412109375 -197.856445312 45.099609375 -239.719726562 73.240234375 -267.860351562 c 0
 109.100585938 -303.720703125 158.185546875 -313.080078125 209.3203125 -305.389648438 c 0
 310.529296875 -290.166992188 429.809570312 -210.305664062 529.135742188 -110.98046875 c 0
 628.45703125 -11.658203125 708.32421875 107.637695312 723.543945312 208.833984375 c 0
 731.235351562 259.96875 721.875 309.053710938 686.014648438 344.9140625 c 0
 657.875 373.0546875 616.010742188 390.913085938 560.069335938 398.21484375 c 0
 490.015625 407.359375 396.630859375 400.294921875 273.69140625 372.950195312 c 0
66.685546875 100.256835938 m 0
 63.2998046875 101.404296875 61.9541015625 95.529296875 65.1748046875 94.4375 c 0
 77.162109375 90.375 89.453125 88.419921875 101.604492188 88.419921875 c 0
 138.283203125 88.419921875 173.725585938 106.225585938 195.4609375 137.958984375 c 0
 209.731445312 158.791992188 216.526367188 182.436523438 216.526367188 205.795898438 c 0
 216.526367188 249.0390625 193.263671875 291.00390625 151.98828125 312.506835938 c 0
 148.79296875 314.170898438 146.719726562 308.581054688 149.790039062 306.981445312 c 0
 189.353515625 286.37109375 211.215820312 246.48828125 211.215820312 205.795898438 c 0
 211.215820312 183.806640625 204.837890625 161.4921875 191.27734375 141.694335938 c 0
 170.6953125 111.64453125 136.8203125 94.48828125 101.604492188 94.48828125 c 0
 89.9609375 94.48828125 78.1728515625 96.36328125 66.685546875 100.256835938 c 0
238.0234375 473.202148438 m 2
 244.021484375 476.801757812 240.157226562 490.012695312 233.673828125 486.122070312 c 2
 21.2763671875 358.68359375 l 2
 15.2783203125 355.084960938 19.142578125 341.874023438 25.6259765625 345.763671875 c 2
 238.0234375 473.202148438 l 2
EndSplineSet
EndChar

StartChar: \.alt11
Encoding: 100 -1 98
Width: 579
VWidth: 0
Flags: HW
LayerCount: 2
Fore
SplineSet
244.55078125 -221.271484375 m 0
 254.8203125 -231.541992188 271.497070312 -231.541992188 281.766601562 -221.271484375 c 0
 287.856445312 -215.181640625 290.334960938 -206.840820312 289.203125 -198.916992188 c 2
 242.596679688 127.326171875 l 1
 360.0703125 88.16796875 l 2
 369.23046875 85.1142578125 379.7421875 87.2314453125 387.029296875 94.5185546875 c 0
 400.055664062 107.544921875 396.170898438 131.618164062 376.771484375 138.083984375 c 2
 218.877929688 190.716796875 l 2
 209.716796875 193.76953125 199.205078125 191.653320312 191.918945312 184.366210938 c 0
 185.829101562 178.276367188 183.350585938 169.935546875 184.482421875 162.01171875 c 2
 237.114257812 -206.409179688 l 2
 237.891601562 -211.848632812 240.370117188 -217.090820312 244.55078125 -221.271484375 c 0
EndSplineSet
EndChar

StartChar: SJ.alt1
Encoding: 101 -1 99
Width: 272
VWidth: 0
Flags: HW
LayerCount: 2
Fore
SplineSet
6.390625 115.865234375 m 2
 1.6259765625 118.248046875 -3.1435546875 112.725585938 1.5341796875 110.387695312 c 2
 212.059570312 5.1240234375 l 2
 214.866210938 3.720703125 218.461914062 5.18359375 218.83984375 7.4521484375 c 2
 262.733398438 270.813476562 l 1
 262.733398438 113.125976562 l 2
 262.733398438 108.890625 271.505859375 108.869140625 271.505859375 113.125976562 c 2
 271.505859375 323.65234375 l 2
 271.505859375 327.71875 263.416015625 327.951171875 262.767578125 324.063476562 c 2
 211.015625 13.552734375 l 1
 6.390625 115.865234375 l 2
EndSplineSet
EndChar

StartChar: /.alt5
Encoding: 102 -1 100
Width: 473
VWidth: 0
Flags: HW
LayerCount: 2
Fore
SplineSet
264.916992188 106.60546875 m 2
 266.643554688 111.784179688 265.552734375 121.8984375 263.158203125 121.8984375 c 0
 262.482421875 121.8984375 261.865234375 121.046875 261.3984375 119.6484375 c 2
 208.767578125 -38.2470703125 l 2
 207.041015625 -43.42578125 208.130859375 -53.5400390625 210.526367188 -53.5400390625 c 0
 211.202148438 -53.5400390625 211.819335938 -52.6884765625 212.286132812 -51.2890625 c 2
 264.916992188 106.60546875 l 2
EndSplineSet
EndChar

StartChar: ~Y
Encoding: 103 -1 101
Width: 678
VWidth: 0
Flags: HW
LayerCount: 2
Fore
SplineSet
296.232421875 403.219726562 m 0
 316.99609375 407.77734375 323.17578125 433.515625 309.166992188 447.524414062 c 0
 302.581054688 454.109375 293.361328125 456.47265625 284.885742188 454.612304688 c 0
 196.598632812 435.232421875 130.078125 399.639648438 83.33203125 352.893554688 c 0
 35.5908203125 305.15234375 9.6552734375 246.75390625 1.5458984375 186.013671875 c 0
 -14.63671875 64.80859375 38.412109375 -64.9765625 126.09765625 -152.663085938 c 0
 178.185546875 -204.750976562 243.372070312 -242.697265625 315.759765625 -253.733398438 c 0
 406.860351562 -267.622070312 505.912109375 -237.46875 596.551757812 -146.829101562 c 0
 606.604492188 -136.776367188 616.5546875 -125.993164062 626.391601562 -114.45703125 c 0
 733.110351562 10.7041015625 670.814453125 207.18359375 506.892578125 244.055664062 c 0
 497.504882812 246.166992188 486.935546875 243.38671875 480.014648438 234.159179688 c 2
 322.12109375 23.6337890625 l 2
 314.392578125 13.3291015625 315.213867188 -1.3740234375 324.583984375 -10.7451171875 c 0
 335.471679688 -21.6318359375 354.143554688 -21.3994140625 364.262695312 -7.90625 c 2
 511.409179688 188.2890625 l 1
 537.421875 179.782226562 559.463867188 165.735351562 577.127929688 148.071289062 c 0
 635.9375 89.26171875 646.556640625 -9.68359375 586.307617188 -80.3447265625 c 0
 577.338867188 -90.8623046875 568.33984375 -100.608398438 559.3359375 -109.61328125 c 0
 478.3203125 -190.627929688 396.877929688 -212.866210938 323.743164062 -201.716796875 c 0
 264.744140625 -192.721679688 208.94921875 -161.08203125 163.313476562 -115.446289062 c 0
 85.857421875 -37.990234375 40.1787109375 77.7197265625 53.701171875 179.001953125 c 0
 60.4443359375 229.504882812 81.4697265625 276.599609375 120.548828125 315.677734375 c 0
 158.860351562 353.990234375 215.65625 385.533203125 296.232421875 403.219726562 c 0
503.891601562 214.344726562 m 2
 508.15234375 218.60546875 502.708984375 226.862304688 498.28125 222.43359375 c 2
 287.754882812 11.908203125 l 2
 283.493164062 7.6474609375 288.936523438 -0.609375 293.365234375 3.818359375 c 2
 503.891601562 214.344726562 l 2
EndSplineSet
Ligature2: "liga-1" ~ Y
EndChar

StartChar: \.alt12
Encoding: 104 -1 102
Width: 238
VWidth: 0
Flags: HW
LayerCount: 2
Fore
SplineSet
50.0517578125 437.266601562 m 2
 43.5927734375 456.643554688 19.517578125 460.555664062 6.4853515625 447.524414062 c 0
 -0.80078125 440.237304688 -2.91796875 429.725585938 0.1357421875 420.565429688 c 2
 158.030273438 -53.119140625 l 2
 164.489257812 -72.49609375 188.565429688 -76.408203125 201.596679688 -63.376953125 c 0
 208.883789062 -56.08984375 211 -45.578125 207.947265625 -36.41796875 c 2
 50.0517578125 437.266601562 l 2
232.880859375 -99.70703125 m 2
 234.14453125 -107.2890625 239.745117188 -103.4140625 238.358398438 -95.0927734375 c 2
 185.7265625 220.696289062 l 2
 185.451171875 222.350585938 184.887695312 223.690429688 184.173828125 224.404296875 c 2
 78.9111328125 329.668945312 l 2
 75.3759765625 333.204101562 73.1435546875 321.036132812 76.5400390625 317.638671875 c 2
 180.680664062 213.497070312 l 1
 232.880859375 -99.70703125 l 2
EndSplineSet
EndChar

StartChar: (.alt3
Encoding: 105 -1 103
Width: 462
VWidth: 0
Flags: HW
LayerCount: 2
Fore
SplineSet
289.474609375 376.284179688 m 0
 289.474609375 390.80859375 277.682617188 402.600585938 263.159179688 402.600585938 c 0
 254.674804688 402.600585938 247.122070312 398.576171875 242.30859375 392.334960938 c 0
 197.420898438 334.130859375 173.873046875 263.45703125 173.873046875 191.513671875 c 0
 173.873046875 163.002929688 177.57421875 134.375 185.107421875 106.299804688 c 0
 196.286132812 64.6298828125 215.778320312 25.6318359375 242.442382812 -8.359375 c 0
 247.26171875 -14.5029296875 254.752929688 -18.4521484375 263.159179688 -18.4521484375 c 0
 277.682617188 -18.4521484375 289.474609375 -6.66015625 289.474609375 7.86328125 c 0
 289.474609375 13.9814453125 287.381835938 19.615234375 283.875 24.0859375 c 0
 261.618164062 52.4580078125 245.305664062 85.0712890625 235.947265625 119.954101562 c 0
 229.608398438 143.579101562 226.504882812 167.647460938 226.504882812 191.513671875 c 0
 226.504882812 251.837890625 246.34765625 311.400390625 284.008789062 360.234375 c 0
 287.435546875 364.677734375 289.474609375 370.244140625 289.474609375 376.284179688 c 0
EndSplineSet
EndChar

StartChar: ".alt15"
Encoding: 106 -1 104
Width: 554
VWidth: 0
Flags: HW
LayerCount: 2
Fore
SplineSet
254.184570312 -216.1953125 m 2
 263.560546875 -231.822265625 283.924804688 -232.713867188 295.3671875 -221.270507812 c 0
 304.078125 -212.559570312 305.401367188 -199.240234375 299.334960938 -189.129882812 c 2
 172.04296875 23.0244140625 l 1
 376.83203125 -17.93359375 l 2
 385.173828125 -19.6015625 394.170898438 -17.2060546875 400.631835938 -10.7451171875 c 0
 414.810546875 3.43359375 408.2421875 29.455078125 387.213867188 33.66015625 c 2
 124.056640625 86.2919921875 l 2
 115.71484375 87.9609375 106.71875 85.564453125 100.2578125 79.103515625 c 0
 91.546875 70.392578125 90.2236328125 57.0732421875 96.2900390625 46.962890625 c 2
 254.184570312 -216.1953125 l 2
176.569335938 61.669921875 m 2
 174.826171875 66.900390625 164.532226562 65 166.42578125 59.3203125 c 2
 217.203125 -93.0146484375 l 1
 171.497070312 -93.0146484375 l 2
 164.720703125 -93.0146484375 164.685546875 -101.786132812 171.497070312 -101.786132812 c 2
 224.12890625 -101.786132812 l 2
 227.41015625 -101.786132812 230.192382812 -99.2021484375 229.201171875 -96.2255859375 c 2
 176.569335938 61.669921875 l 2
369.217773438 -149.423828125 m 0
 367.137695312 -151.182617188 373.984375 -152.663085938 382.022460938 -152.663085938 c 0
 388.240234375 -152.663085938 393.456054688 -151.798828125 394.828125 -150.638671875 c 0
 453.625976562 -100.920898438 478.237304688 -39.9736328125 478.237304688 19.4296875 c 0
 478.237304688 86.3251953125 447.026367188 151.221679688 397.4609375 195.900390625 c 0
 375.420898438 215.767578125 349.890625 231.643554688 320.923828125 242.10546875 c 0
 298.255859375 250.293945312 271.668945312 255.95703125 238.497070312 255.95703125 c 0
 215.64453125 255.95703125 194.837890625 253.157226562 175.922851562 248.396484375 c 0
 152.086914062 242.396484375 129.243164062 232.8828125 106.384765625 219.224609375 c 0
 32.4130859375 175.026367188 -0.2021484375 104.49609375 -0.2021484375 33.4345703125 c 0
 -0.2021484375 -32.2490234375 27.8125 -98.3154296875 78.3056640625 -144.295898438 c 0
 100.756835938 -164.740234375 127.50390625 -181.228515625 159.268554688 -192.131835938 c 0
 184.306640625 -200.727539062 214.283203125 -206.48046875 251.033203125 -206.48046875 c 0
 261.506835938 -206.48046875 271.971679688 -205.9921875 282.205078125 -205.05859375 c 0
 322.297851562 -201.404296875 355.381835938 -192.953125 384.094726562 -181.181640625 c 0
 420.133789062 -166.407226562 449.793945312 -146.012695312 473.942382812 -121.634765625 c 0
 586.338867188 -8.1669921875 579.038085938 193.911132812 464.564453125 303.90625 c 0
 438.241210938 329.19921875 406.415039062 349.5703125 368.016601562 362.975585938 c 0
 337.650390625 373.578125 301.328125 380.439453125 257.19921875 380.439453125 c 0
 244.375976562 380.439453125 231.477539062 379.83984375 218.70703125 378.682617188 c 0
 214.146484375 378.268554688 210.970703125 377.349609375 210.970703125 376.284179688 c 0
 210.970703125 374.486328125 220.397460938 373.055664062 229.55078125 373.885742188 c 0
 239.401367188 374.779296875 248.55078125 375.17578125 257.19921875 375.17578125 c 0
 286.084960938 375.17578125 316.092773438 370.515625 345.166015625 360.365234375 c 0
 381.06640625 347.83203125 412.76953125 327.841796875 438.799804688 302.830078125 c 0
 552.1796875 193.88671875 559.499023438 -8.17578125 448.127929688 -120.607421875 c 0
 424.237304688 -144.725585938 394.822265625 -164.779296875 360.428710938 -178.87890625 c 0
 332.796875 -190.206054688 302.267578125 -197.4453125 271.313476562 -200.266601562 c 0
 264.038085938 -200.9296875 257.348632812 -201.216796875 251.033203125 -201.216796875 c 0
 229.61328125 -201.216796875 205.821289062 -197.657226562 182.0234375 -189.48828125 c 0
 152.743164062 -179.4375 126.15234375 -163.326171875 104.009765625 -143.163085938 c 0
 1.8037109375 -50.09375 -9.890625 133.165039062 131.346679688 217.5546875 c 0
 153.69921875 230.911132812 176.014648438 239.959960938 196.537109375 245.125976562 c 0
 213.108398438 249.296875 227.275390625 250.694335938 238.497070312 250.694335938 c 0
 254.891601562 250.694335938 275.970703125 247.477539062 297.884765625 239.561523438 c 0
 324.647460938 229.895507812 350.02734375 214.35546875 371.76953125 194.756835938 c 0
 420.712890625 150.638671875 451.921875 85.982421875 451.921875 19.4296875 c 0
 451.921875 -39.673828125 427.307617188 -100.305664062 369.217773438 -149.423828125 c 0
EndSplineSet
EndChar

StartChar: glyph105
Encoding: 107 121 105
Width: 269
VWidth: 0
Flags: HW
LayerCount: 2
Fore
SplineSet
212.134765625 140.450195312 m 2
 214.69140625 135.336914062 216.927734375 149.286132812 216.927734375 165.7578125 c 0
 216.927734375 177.7734375 215.774414062 187.918945312 214.201171875 191.064453125 c 2
 108.9375 401.591796875 l 2
 105.491210938 408.484375 102.705078125 380.220703125 104.935546875 360.1484375 c 2
 157.567382812 -113.536132812 l 2
 158.254882812 -119.728515625 159.330078125 -123.715820312 160.536132812 -123.715820312 c 0
 162.611328125 -123.715820312 164.295898438 -111.923828125 164.295898438 -97.400390625 c 0
 164.295898438 -91.3212890625 164 -85.720703125 163.504882812 -81.263671875 c 2
 117.9375 328.84375 l 1
 212.134765625 140.450195312 l 2
3.3486328125 244.240234375 m 2
 0.890625 247.516601562 -1.1181640625 234.118164062 -1.1181640625 218.388671875 c 0
 -1.1181640625 205.555664062 0.197265625 194.85546875 1.935546875 192.538085938 c 2
 159.830078125 -17.9873046875 l 2
 162.287109375 -21.263671875 164.295898438 -7.865234375 164.295898438 7.86328125 c 0
 164.295898438 20.697265625 162.98046875 31.3974609375 161.2421875 33.71484375 c 2
 3.3486328125 244.240234375 l 2
-1.1181640625 -202.663085938 m 0
 -1.1181640625 -219.439453125 1.2109375 -233.530273438 3.7919921875 -227.72265625 c 2
 191.35546875 194.295898438 l 1
 158.354492188 29.2919921875 l 2
 157.399414062 24.517578125 156.776367188 16.6953125 156.776367188 7.86328125 c 0
 156.776367188 -8.6103515625 159.012695312 -22.5576171875 161.569335938 -17.443359375 c 2
 266.833007812 193.08203125 l 2
 268.40625 196.227539062 269.559570312 206.373046875 269.559570312 218.388671875 c 0
 269.559570312 234.86328125 267.323242188 248.810546875 264.766601562 243.696289062 c 2
 180.439453125 75.044921875 l 1
 215.349609375 249.592773438 l 2
 216.3046875 254.3671875 216.927734375 262.188476562 216.927734375 271.020507812 c 0
 216.927734375 287.796875 214.598632812 301.887695312 212.017578125 296.080078125 c 2
 1.4912109375 -177.604492188 l 2
 -0.021484375 -181.008789062 -1.1181640625 -190.947265625 -1.1181640625 -202.663085938 c 0
EndSplineSet
EndChar

StartChar: es
Encoding: 108 -1 106
Width: 503
VWidth: 0
Flags: HW
LayerCount: 2
Fore
SplineSet
321.486328125 166.733398438 m 2
 319.983398438 169.73828125 313.723632812 168.084960938 315.375 164.78125 c 2
 366.5078125 62.5185546875 l 1
 2.060546875 10.4541015625 l 2
 -0.732421875 10.0546875 -1.58203125 7.04296875 0.732421875 5.720703125 c 2
 369.153320312 -204.806640625 l 2
 372.63671875 -206.796875 376.403320312 -202.482421875 372.971679688 -200.520507812 c 2
 10.9111328125 6.37109375 l 1
 371.643554688 57.9052734375 l 2
 373.520507812 58.1728515625 374.955078125 59.796875 374.118164062 61.4716796875 c 2
 321.486328125 166.733398438 l 2
265.799804688 118.389648438 m 0
 246.2890625 118.389648438 232.32421875 113.994140625 243.3203125 110.390625 c 0
 251.655273438 107.659179688 261.528320312 102.178710938 269.622070312 94.8798828125 c 0
 279.748046875 85.748046875 287.704101562 73.7822265625 292.171875 60.146484375 c 0
 297.96484375 42.466796875 300.59765625 25.9033203125 300.59765625 10.564453125 c 0
 300.59765625 -33.6708984375 278.482421875 -67.7841796875 247.979492188 -88.875 c 0
 234.440429688 -98.2353515625 219.036132812 -104.959960938 205.500976562 -108.6015625 c 0
 194.23828125 -111.631835938 186.8515625 -111.916992188 185.668945312 -111.916992188 c 0
 184.754882812 -111.916992188 179.3125 -111.818359375 170.026367188 -109.416992188 c 0
 158.711914062 -106.490234375 145.184570312 -100.75 133.135742188 -92.2099609375 c 0
 106 -72.9765625 85.3427734375 -40.0478515625 81.5859375 7.947265625 c 0
 81.361328125 10.8134765625 69.6572265625 13.1259765625 55.2734375 13.1259765625 c 0
 40.662109375 13.1259765625 28.728515625 10.7412109375 28.9609375 7.779296875 c 0
 32.7607421875 -40.7646484375 53.166015625 -74.296875 82.474609375 -95.0703125 c 0
 98.048828125 -106.109375 115.622070312 -113.827148438 140.064453125 -118.455078125 c 0
 152.41796875 -120.794921875 168.010742188 -122.443359375 185.668945312 -122.443359375 c 0
 212.033203125 -122.443359375 232.333007812 -119.024414062 247.765625 -114.872070312 c 0
 267.599609375 -109.536132812 284.018554688 -101.846679688 298.546875 -91.80078125 c 0
 331.197265625 -69.2265625 353.229492188 -34.3955078125 353.229492188 10.564453125 c 0
 353.229492188 26.1484375 350.555664062 42.9423828125 344.689453125 60.84375 c 0
 340.084960938 74.8974609375 331.944335938 87.302734375 321.0078125 97.1650390625 c 0
 312.251953125 105.061523438 302.096679688 111.334960938 288.280273438 115.86328125 c 0
 283.657226562 117.377929688 275.315429688 118.389648438 265.799804688 118.389648438 c 0
502.641601562 7.86328125 m 0
 502.641601562 10.767578125 490.849609375 13.1259765625 476.326171875 13.1259765625 c 0
 469.063476562 13.1259765625 462.484375 12.537109375 457.721679688 11.583984375 c 2
 194.563476562 -41.0478515625 l 2
 189.80078125 -42 186.852539062 -43.31640625 186.852539062 -44.7685546875 c 0
 186.852539062 -47.673828125 198.64453125 -50.03125 213.16796875 -50.03125 c 0
 220.430664062 -50.03125 227.009765625 -49.4423828125 231.772460938 -48.4892578125 c 2
 494.930664062 4.142578125 l 2
 499.693359375 5.0947265625 502.641601562 6.4111328125 502.641601562 7.86328125 c 0
EndSplineSet
Ligature2: "liga-1" e s
EndChar

StartChar: <
Encoding: 109 -1 107
Width: 122
VWidth: 0
Flags: HW
LayerCount: 2
Fore
SplineSet
120.4921875 6.244140625 m 2
 124.451171875 8.2236328125 119.876953125 10.787109375 113.1875 10.787109375 c 0
 110.142578125 10.787109375 107.45703125 10.2685546875 105.883789062 9.482421875 c 2
 0.6201171875 -43.1494140625 l 2
 -1.28515625 -44.1015625 -1.28515625 -45.4345703125 0.6201171875 -46.3876953125 c 2
 105.883789062 -99.0185546875 l 2
 110.403320312 -101.27734375 121.959960938 -100.325195312 121.959960938 -97.3994140625 c 0
 121.959960938 -96.80078125 121.418945312 -96.244140625 120.4921875 -95.7802734375 c 2
 18.4658203125 -44.7685546875 l 1
 120.4921875 6.244140625 l 2
EndSplineSet
EndChar

StartChar: glyph108
Encoding: 110 98 108
Width: 156
VWidth: 0
Flags: HW
LayerCount: 2
Fore
SplineSet
-1.205078125 8 m 2
 -1.205078125 5.8330078125 9.9580078125 4.103515625 25.09375 4.103515625 c 0
 39.298828125 4.103515625 50.8896484375 5.71484375 51.392578125 7.7265625 c 2
 156.65625 428.779296875 l 2
 157.197265625 430.9453125 145.083007812 432.67578125 130.357421875 432.67578125 c 0
 116.15234375 432.67578125 104.561523438 431.064453125 104.05859375 429.052734375 c 2
 -1.205078125 8 l 2
25.08984375 -41.0087890625 m 2
 10.5654296875 -41.0087890625 -1.2255859375 -42.693359375 -1.2255859375 -44.7685546875 c 0
 -1.2255859375 -46.8427734375 10.5654296875 -48.52734375 25.08984375 -48.52734375 c 2
 77.7255859375 -48.52734375 l 2
 92.25 -48.52734375 104.041015625 -46.8427734375 104.041015625 -44.7685546875 c 2
 104.041015625 165.7578125 l 2
 104.041015625 167.83203125 92.25 169.516601562 77.7255859375 169.516601562 c 0
 63.201171875 169.516601562 51.41015625 167.83203125 51.41015625 165.7578125 c 2
 51.41015625 -41.0087890625 l 1
 25.08984375 -41.0087890625 l 2
86.994140625 227.724609375 m 0
 78.9228515625 235.73828125 64.5673828125 229.922851562 64.5673828125 218.388671875 c 0
 64.5673828125 214.741210938 66.0556640625 211.4375 68.45703125 209.053710938 c 0
 94.9794921875 182.719726562 112.1640625 148.37109375 117.325195312 111.299804688 c 0
 118.442382812 103.275390625 118.991210938 95.248046875 118.991210938 87.2744140625 c 0
 118.991210938 41.6259765625 100.995117188 -2.6611328125 68.3896484375 -35.5 c 0
 60.3759765625 -43.5703125 66.1923828125 -57.92578125 77.7255859375 -57.92578125 c 0
 81.3740234375 -57.92578125 84.6767578125 -56.4384765625 87.0615234375 -54.037109375 c 0
 124.6484375 -16.1806640625 145.306640625 34.681640625 145.306640625 87.2744140625 c 0
 145.306640625 96.4794921875 144.673828125 105.724609375 143.388671875 114.954101562 c 0
 137.440429688 157.68359375 117.646484375 197.291015625 86.994140625 227.724609375 c 0
EndSplineSet
EndChar

StartChar: OO
Encoding: 111 -1 109
Width: 287
VWidth: 0
Flags: HW
LayerCount: 2
Fore
SplineSet
137.16796875 160.84375 m 0
 142.767578125 160.84375 152.110351562 158.16796875 152.110351562 165.7578125 c 0
 152.110351562 168.564453125 150.274414062 170.861328125 147.966796875 171.012695312 c 0
 55.4775390625 177.077148438 -1.0869140625 103.868164062 -1.0869140625 28.68359375 c 0
 -1.0869140625 -26.1220703125 29.107421875 -80.3212890625 93.890625 -102.462890625 c 0
 111.946289062 -108.633789062 129.264648438 -111.463867188 145.619140625 -111.463867188 c 0
 230.11328125 -111.463867188 288.188476562 -35.810546875 288.188476562 40.8212890625 c 0
 288.188476562 92.2060546875 261.826171875 143.079101562 201.924804688 170.672851562 c 0
 196.47265625 173.184570312 193.6171875 163.22265625 198.78515625 160.841796875 c 0
 255.990234375 134.490234375 279.416015625 87.4619140625 279.416015625 40.8212890625 c 0
 279.416015625 -29.427734375 225.709960938 -100.9375 145.619140625 -100.9375 c 0
 130.125 -100.9375 113.615234375 -98.2568359375 96.294921875 -92.3369140625 c 0
 34.6220703125 -71.259765625 7.685546875 -21.0791015625 7.685546875 28.68359375 c 0
 7.685546875 94.1533203125 54.625 160.84375 137.16796875 160.84375 c 0
EndSplineSet
Ligature2: "liga-1" O O
EndChar

StartChar: ".alt16"
Encoding: 112 -1 110
Width: 156
VWidth: 0
Flags: HW
LayerCount: 2
Fore
SplineSet
96.333984375 447.524414062 m 0
 86.0634765625 457.793945312 69.3876953125 457.793945312 59.1181640625 447.524414062 c 0
 54.5927734375 442.999023438 52.0615234375 437.231445312 51.5244140625 431.315429688 c 2
 -1.1083984375 -147.631835938 l 2
 -1.1806640625 -148.4296875 -1.216796875 -149.23046875 -1.216796875 -150.03125 c 2
 -1.216796875 -202.663085938 l 2
 -1.216796875 -209.400390625 1.3505859375 -216.13671875 6.4853515625 -221.271484375 c 0
 16.755859375 -231.541992188 33.431640625 -231.541992188 43.7021484375 -221.271484375 c 0
 48.8369140625 -216.13671875 51.404296875 -209.400390625 51.404296875 -202.663085938 c 2
 51.404296875 -151.234375 l 1
 103.927734375 426.516601562 l 2
 104.610351562 434.028320312 102.079101562 441.778320312 96.333984375 447.524414062 c 0
6.4853515625 -10.7451171875 m 0
 16.7548828125 -21.0146484375 33.4306640625 -21.0146484375 43.701171875 -10.7451171875 c 0
 48.8359375 -5.609375 51.4033203125 1.126953125 51.4033203125 7.86328125 c 2
 51.404296875 207.495117188 l 1
 111.75 147.150390625 l 2
 122.01953125 136.879882812 138.6953125 136.879882812 148.965820312 147.150390625 c 0
 154.100585938 152.28515625 156.66796875 159.021484375 156.66796875 165.7578125 c 2
 156.66796875 428.916015625 l 2
 156.66796875 435.65234375 154.100585938 442.388671875 148.965820312 447.524414062 c 0
 138.6953125 457.793945312 122.01953125 457.793945312 111.75 447.524414062 c 0
 106.614257812 442.388671875 104.046875 435.65234375 104.046875 428.916015625 c 2
 104.046875 229.28515625 l 1
 43.7021484375 289.629882812 l 2
 33.431640625 299.900390625 16.755859375 299.900390625 6.4853515625 289.629882812 c 0
 1.3505859375 284.495117188 -1.216796875 277.758789062 -1.216796875 271.022460938 c 2
 -1.2177734375 7.86328125 l 2
 -1.2177734375 1.126953125 1.349609375 -5.609375 6.4853515625 -10.7451171875 c 0
EndSplineSet
EndChar

StartChar: |.alt7
Encoding: 113 -1 111
Width: 114
VWidth: 0
Flags: HW
LayerCount: 2
Fore
SplineSet
104.83984375 -150.032226562 m 2
 104.83984375 -156.807617188 113.611328125 -156.842773438 113.611328125 -150.032226562 c 2
 113.611328125 113.126953125 l 2
 113.611328125 115.31640625 112.495117188 117.194335938 110.909179688 117.987304688 c 2
 5.6455078125 170.618164062 l 2
 0.2880859375 173.296875 -2.8720703125 163.471679688 2.27734375 160.896484375 c 2
 104.83984375 109.6171875 l 1
 104.83984375 -150.032226562 l 2
EndSplineSet
EndChar

StartChar: \.alt13
Encoding: 114 -1 112
Width: 187
VWidth: 0
Flags: HW
LayerCount: 2
Fore
SplineSet
105.051757812 6.705078125 m 2
 105.849609375 0.3212890625 111.616210938 2.1484375 110.756835938 9.0224609375 c 2
 58.1259765625 430.07421875 l 2
 57.4482421875 435.498046875 52.896484375 435.365234375 52.3876953125 429.771484375 c 2
 -0.2431640625 -149.176757812 l 2
 -0.869140625 -156.056640625 4.9287109375 -157.473632812 5.52734375 -150.88671875 c 2
 55.7265625 401.307617188 l 1
 105.051757812 6.705078125 l 2
160.537109375 53.916015625 m 0
 175.296875 53.916015625 187.46484375 56.9580078125 186.829101562 60.7734375 c 2
 134.197265625 376.5625 l 2
 133.614257812 380.064453125 122.056640625 382.86328125 107.905273438 382.86328125 c 0
 93.380859375 382.86328125 81.5888671875 379.915039062 81.5888671875 376.284179688 c 2
 81.5888671875 60.4951171875 l 2
 81.5888671875 56.8642578125 93.380859375 53.916015625 107.905273438 53.916015625 c 0
 122.275390625 53.916015625 133.971679688 56.802734375 134.216796875 60.380859375 c 1
 134.818359375 56.7705078125 145.977539062 53.916015625 160.537109375 53.916015625 c 0
EndSplineSet
EndChar

StartChar: S.alt1
Encoding: 115 -1 113
Width: 578
VWidth: 0
Flags: HW
LayerCount: 2
Fore
SplineSet
402.444335938 41.88671875 m 0
 412.71484375 31.6162109375 429.390625 31.6162109375 439.661132812 41.88671875 c 0
 444.795898438 47.021484375 447.36328125 53.7578125 447.36328125 60.494140625 c 2
 447.36328125 113.125976562 l 2
 447.36328125 119.109375 445.337890625 125.092773438 441.287109375 129.954101562 c 2
 178.12890625 445.744140625 l 2
 167.825195312 458.108398438 149.93359375 458.170898438 139.287109375 447.524414062 c 0
 129.590820312 437.828125 129.048828125 422.422851562 137.661132812 412.087890625 c 2
 394.7421875 103.58984375 l 1
 394.7421875 60.494140625 l 2
 394.7421875 53.7578125 397.309570312 47.021484375 402.444335938 41.88671875 c 0
263.693359375 -143.51953125 m 2
 258.77734375 -142.290039062 257.893554688 -155.362304688 262.623046875 -156.543945312 c 2
 473.1484375 -209.17578125 l 2
 477.607421875 -210.291015625 478.952148438 -199.319335938 475.102539062 -196.569335938 c 2
 106.681640625 66.5888671875 l 2
 102.07421875 69.8798828125 99.4169921875 57.564453125 103.844726562 54.4013671875 c 2
 444.061523438 -188.611328125 l 1
 263.693359375 -143.51953125 l 2
EndSplineSet
EndChar

StartChar: __
Encoding: 116 -1 114
Width: 684
VWidth: 0
Flags: HW
LayerCount: 2
Fore
SplineSet
526.686523438 -153.294921875 m 2
 530.322265625 -152.775390625 529.797851562 -146.217773438 525.943359375 -146.768554688 c 2
 157.5234375 -199.400390625 l 2
 153.887695312 -199.919921875 154.411132812 -206.477539062 158.265625 -205.926757812 c 2
 526.686523438 -153.294921875 l 2
EndSplineSet
Ligature2: "liga-1" _ _
EndChar

StartChar: ".alt17"
Encoding: 117 -1 115
Width: 272
VWidth: 0
Flags: HW
LayerCount: 2
Fore
SplineSet
7.9248046875 377.897460938 m 2
 5.580078125 382.1171875 -2.517578125 379.203125 -0 374.671875 c 2
 212.7109375 -8.208984375 l 1
 60.4052734375 220.250976562 l 2
 57.6982421875 224.310546875 49.8779296875 220.88671875 52.783203125 216.529296875 c 2
 263.30859375 -99.26171875 l 2
 265.891601562 -103.135742188 273.538085938 -100.208984375 271.08203125 -95.7880859375 c 2
 7.9248046875 377.897460938 l 2
EndSplineSet
EndChar

StartChar: \.alt14
Encoding: 118 -1 116
Width: 111
VWidth: 0
Flags: HW
LayerCount: 2
Fore
SplineSet
110.828125 271.020507812 m 2
 110.828125 278.283203125 109.517578125 284.178710938 107.904296875 284.178710938 c 0
 106.290039062 284.178710938 104.98046875 278.283203125 104.98046875 271.020507812 c 2
 104.98046875 60.4951171875 l 2
 104.98046875 53.2333984375 106.290039062 47.3369140625 107.904296875 47.3369140625 c 0
 109.517578125 47.3369140625 110.828125 53.2333984375 110.828125 60.4951171875 c 2
 110.828125 271.020507812 l 2
106.98046875 -57.25390625 m 2
 108.9921875 -60.271484375 110.828125 -53.20703125 110.828125 -44.7685546875 c 0
 110.828125 -38.958984375 109.990234375 -34.0244140625 108.828125 -32.2822265625 c 2
 3.5654296875 125.61328125 l 2
 1.5546875 128.630859375 -0.2822265625 121.565429688 -0.2822265625 113.126953125 c 0
 -0.2822265625 78.0390625 -0.2822265625 42.951171875 -0.2822265625 7.86328125 c 0
 -0.2822265625 0.6015625 1.0283203125 -5.2939453125 2.6416015625 -5.2939453125 c 0
 4.255859375 -5.2939453125 5.5654296875 0.6015625 5.5654296875 7.86328125 c 0
 5.5654296875 36.865234375 5.5654296875 65.8671875 5.5654296875 94.8681640625 c 1
 106.98046875 -57.25390625 l 2
EndSplineSet
EndChar

StartChar: /.alt6
Encoding: 119 -1 117
Width: 631
VWidth: 0
Flags: HW
LayerCount: 2
Fore
SplineSet
244.549804688 41.8876953125 m 0
 256.484375 29.9521484375 278.158203125 31.6396484375 286.697265625 48.71875 c 2
 391.959960938 259.245117188 l 2
 396.887695312 269.100585938 395.244140625 281.415039062 387.029296875 289.629882812 c 0
 375.09375 301.565429688 353.420898438 299.877929688 344.881835938 282.798828125 c 2
 239.618164062 72.271484375 l 2
 234.690429688 62.4169921875 236.334960938 50.1025390625 244.549804688 41.8876953125 c 0
EndSplineSet
EndChar

StartChar: D.alt1
Encoding: 120 -1 118
Width: 660
VWidth: 0
Flags: HW
LayerCount: 2
Fore
SplineSet
243.822265625 199.78125 m 0
 254.091796875 189.510742188 270.767578125 189.510742188 281.038085938 199.78125 c 0
 287.127929688 205.87109375 289.606445312 214.212890625 288.474609375 222.135742188 c 0
 280.546875 277.624023438 299.489257812 324.006835938 332.102539062 356.620117188 c 0
 390.3671875 414.884765625 490.184570312 427.103515625 559.611328125 357.676757812 c 0
 629.038085938 288.25 616.819335938 188.432617188 558.5546875 130.16796875 c 0
 525.94140625 97.5546875 479.55859375 78.61328125 424.0703125 86.5400390625 c 0
 416.147460938 87.671875 407.805664062 85.193359375 401.715820312 79.103515625 c 0
 391.446289062 68.8330078125 391.446289062 52.1572265625 401.715820312 41.8876953125 c 0
 405.896484375 37.70703125 411.138671875 35.2275390625 416.578125 34.451171875 c 0
 489.004882812 24.103515625 552.338867188 49.5205078125 595.771484375 92.9521484375 c 0
 671.947265625 169.127929688 688.9296875 302.790039062 596.828125 394.892578125 c 0
 504.724609375 486.99609375 371.0625 470.012695312 294.88671875 393.8359375 c 0
 251.454101562 350.404296875 226.038085938 287.0703125 236.385742188 214.642578125 c 0
 237.162109375 209.204101562 239.641601562 203.961914062 243.822265625 199.78125 c 0
258.669921875 -44.7685546875 m 0
 258.669921875 -59.2919921875 260.354492188 -71.083984375 262.4296875 -71.083984375 c 0
 338.916015625 -70.591796875 396.255859375 -37.1630859375 432.3984375 11.447265625 c 0
 448.4765625 33.072265625 460.36328125 57.4267578125 468.150390625 84.9501953125 c 0
 471.615234375 97.1962890625 474.350585938 110.145507812 476.295898438 125.951171875 c 0
 477.846679688 138.556640625 478.939453125 153.971679688 478.939453125 171.35546875 c 0
 478.939453125 203.9296875 475.434570312 227.512695312 471.099609375 245.774414062 c 0
 465.4609375 269.52734375 456.958007812 290.2109375 445.224609375 309.404296875 c 0
 418.852539062 352.54296875 376.030273438 386.716796875 315.204101562 402.58203125 c 0
 294.625 407.94921875 274.518554688 410.4765625 255.063476562 410.4765625 c 0
 175.119140625 410.4765625 106.205078125 367.924804688 60.4697265625 303.93359375 c 0
 40.126953125 275.471679688 24.37109375 243.034179688 13.994140625 206.553710938 c 0
 9.3779296875 190.32421875 5.748046875 173.244140625 3.224609375 153.146484375 c 0
 1.2119140625 137.124023438 -0.1572265625 118.081054688 -0.1572265625 96.76953125 c 0
 -0.1572265625 60.8837890625 3.5068359375 32.3828125 8.6904296875 8.8427734375 c 0
 15.3330078125 -21.3251953125 25.6044921875 -48.7626953125 40.1767578125 -75.310546875 c 0
 72.9404296875 -134.999023438 127.623046875 -188.80078125 209.532226562 -228.9140625 c 0
 255.916015625 -251.629882812 305.751953125 -262.705078125 355.244140625 -262.705078125 c 0
 436.186523438 -262.705078125 516.19140625 -233.118164062 578.708007812 -176.125976562 c 0
 580.551757812 -174.4453125 581.978515625 -163.39453125 581.978515625 -150.032226562 c 0
 581.978515625 -134.719726562 580.092773438 -121.782226562 577.729492188 -123.9375 c 0
 515.68359375 -180.5 435.913085938 -210.073242188 355.244140625 -210.073242188 c 0
 305.915039062 -210.073242188 256.243164062 -199.02734375 210.063476562 -176.412109375 c 0
 128.411132812 -136.424804688 73.986328125 -82.5078125 42.0732421875 -24.37109375 c 0
 27.9013671875 1.4482421875 18.203125 28.3740234375 12.7744140625 53.0283203125 c 0
 8.30078125 73.345703125 7.361328125 88.998046875 7.361328125 96.76953125 c 0
 7.361328125 101.705078125 7.6552734375 108.728515625 8.873046875 118.424804688 c 0
 10.3857421875 130.474609375 13.2392578125 144.99609375 17.361328125 159.489257812 c 0
 26.646484375 192.133789062 41.970703125 224.369140625 61.94921875 252.322265625 c 0
 106.934570312 315.264648438 175.5234375 357.844726562 255.063476562 357.844726562 c 0
 274.423828125 357.844726562 294.435546875 355.330078125 314.918945312 349.987304688 c 0
 375.452148438 334.198242188 417.984375 299.904296875 443.509765625 258.150390625 c 0
 454.842773438 239.61328125 462.797851562 219.322265625 467.231445312 200.64453125 c 0
 470.954101562 184.961914062 471.420898438 173.669921875 471.420898438 171.35546875 c 0
 471.420898438 169.866210938 471.3515625 166.40625 470.59765625 160.276367188 c 0
 469.66015625 152.662109375 467.725585938 142.413085938 464.76953125 131.962890625 c 0
 458.108398438 108.419921875 446.677734375 84.255859375 430.973632812 63.1337890625 c 0
 395.604492188 15.5634765625 338.576171875 -17.9619140625 262.42578125 -18.4521484375 c 0
 260.352539062 -18.4521484375 258.669921875 -30.251953125 258.669921875 -44.7685546875 c 0
EndSplineSet
EndChar

StartChar: Q.alt1
Encoding: 121 -1 119
Width: 482
VWidth: 0
Flags: HW
LayerCount: 2
Fore
SplineSet
465.12109375 114.537109375 m 0
 462.081054688 118.821289062 449.579101562 116.427734375 452.920898438 111.716796875 c 0
 474.58203125 81.1875 474.58203125 39.8037109375 452.920898438 9.2734375 c 0
 376.440429688 -98.5185546875 303.0234375 -138.340820312 242.55859375 -138.340820312 c 0
 186.293945312 -138.340820312 133.829101562 -103.920898438 93.2333984375 -49.560546875 c 0
 42.87109375 17.876953125 12.2705078125 113.477539062 12.2705078125 200.138671875 c 0
 12.2705078125 315.775390625 66.5185546875 411.275390625 190.229492188 411.275390625 c 0
 233.211914062 411.275390625 286.182617188 399.961914062 349.870117188 373.250976562 c 0
 356.768554688 370.358398438 364.444335938 376.46484375 357.64453125 379.31640625 c 0
 292.694335938 406.556640625 237.298828125 418.793945312 190.229492188 418.793945312 c 0
 51.802734375 418.793945312 -0.88671875 314.72265625 -0.88671875 200.138671875 c 0
 -0.88671875 112.481445312 29.8212890625 16.1923828125 81.125 -52.505859375 c 0
 121.861328125 -107.0546875 176.55859375 -145.860351562 242.55859375 -145.860351562 c 0
 313.41015625 -145.860351562 388.731445312 -101.2109375 465.12109375 6.453125 c 0
 488.19140625 38.970703125 488.19140625 82.0205078125 465.12109375 114.537109375 c 0
459.020507812 86.8115234375 m 2
 461.095703125 86.8115234375 462.780273438 98.6025390625 462.780273438 113.126953125 c 0
 462.780273438 127.651367188 461.095703125 139.442382812 459.020507812 139.442382812 c 2
 406.91796875 139.442382812 l 1
 302.159179688 348.9609375 l 2
 299.602539062 354.07421875 297.366210938 340.125976562 297.366210938 323.654296875 c 0
 297.366210938 311.638671875 298.51953125 301.493164062 300.092773438 298.346679688 c 2
 405.35546875 87.8193359375 l 2
 405.68359375 87.1630859375 406.030273438 86.8115234375 406.388671875 86.8115234375 c 2
 459.020507812 86.8115234375 l 2
EndSplineSet
EndChar

StartChar: if
Encoding: 122 -1 120
Width: 473
VWidth: 0
Flags: HW
LayerCount: 2
Fore
SplineSet
71.240234375 26.4716796875 m 0
 60.9697265625 36.7412109375 44.2939453125 36.7412109375 34.0234375 26.4716796875 c 0
 28.888671875 21.3369140625 26.3212890625 14.599609375 26.3212890625 7.86328125 c 2
 26.3212890625 -202.662109375 l 2
 26.3212890625 -216.819335938 38.4677734375 -228.97265625 52.6318359375 -228.973632812 c 2
 263.158203125 -228.973632812 l 2
 277.315429688 -228.974609375 289.469726562 -216.827148438 289.469726562 -202.663085938 c 2
 289.46875 323.653320312 l 2
 289.46875 330.389648438 286.901367188 337.125976562 281.765625 342.260742188 c 0
 271.49609375 352.53125 254.819335938 352.53125 244.549804688 342.260742188 c 0
 239.415039062 337.125976562 236.846679688 330.389648438 236.846679688 323.653320312 c 2
 236.84765625 -176.352539062 l 1
 78.9423828125 -176.3515625 l 1
 78.9423828125 7.86328125 l 2
 78.9423828125 14.599609375 76.375 21.3369140625 71.240234375 26.4716796875 c 0
447.368164062 113.126953125 m 0
 447.368164062 131.549804688 427.599609375 145.825195312 409.309570312 136.6796875 c 2
 198.784179688 31.416015625 l 2
 190.147460938 27.09765625 184.2109375 18.1689453125 184.2109375 7.86328125 c 0
 184.2109375 -10.55859375 203.98046875 -24.833984375 222.270507812 -15.689453125 c 2
 432.795898438 89.57421875 l 2
 441.432617188 93.892578125 447.368164062 102.822265625 447.368164062 113.126953125 c 0
EndSplineSet
Ligature2: "liga-1" i f
EndChar

StartChar: \.alt15
Encoding: 123 -1 121
Width: 227
VWidth: 0
Flags: HW
LayerCount: 2
Fore
SplineSet
47.3984375 165.7578125 m 2
 47.3984375 158.583007812 53.15234375 152.7421875 60.29296875 152.602539062 c 1
 100.28515625 -47.359375 l 2
 101.490234375 -53.3818359375 106.8125 -57.92578125 113.1875 -57.92578125 c 0
 121.088867188 -57.92578125 127.818359375 -50.8203125 126.08984375 -42.177734375 c 2
 73.458984375 220.979492188 l 2
 72.25390625 227.002929688 66.931640625 231.546875 60.5556640625 231.546875 c 0
 53.2939453125 231.546875 47.3984375 225.651367188 47.3984375 218.388671875 c 2
 47.3984375 165.7578125 l 2
210.4296875 -151.216796875 m 2
 214.842773438 -154.526367188 231.240234375 -152.423828125 226.470703125 -148.845703125 c 2
 15.9443359375 9.048828125 l 2
 11.53125 12.3583984375 -4.8662109375 10.255859375 -0.095703125 6.677734375 c 2
 210.4296875 -151.216796875 l 2
EndSplineSet
EndChar
